M48
;DRILL file {KiCad (5.0.2)-1} date 3/26/2020 2:30:19 PM
;FORMAT={2:4/ absolute / inch / suppress trailing zeros}
FMAT,2
INCH,LZ
T1C0.0130
T2C0.0217
T3C0.0260
T4C0.0335
T5C0.0394
T6C0.0512
T7C0.1260
T8C0.0315
%
G90
G05
T1
X052087Y-044488
X052165Y-039606
X052362Y-038583
X052559Y-040118
X052677Y-042165
X052677Y-041732
X052756Y-046457
X052913Y-047283
X053071Y-041732
X053622Y-051181
X054252Y-041732
X054606Y-039528
X054646Y-051102
X055394Y-050354
X055748Y-039291
X055827Y-046457
X05622Y-049606
X05626Y-039567
X056457Y-036614
X056772Y-039606
X05685Y-048858
X057323Y-041417
X057402Y-036535
X05748Y-046063
X059213Y-048031
X060039Y-045965
T3
X053346Y-039272
T5
X062697Y-046063
X062697Y-047835
X062697Y-051083
X062697Y-052854
X054882Y-042425
X054882Y-043425
X055882Y-042425
X055882Y-043425
X056882Y-042425
X056882Y-043425
X057882Y-042425
X057882Y-043425
X058882Y-042425
X058882Y-043425
X059882Y-042425
X059882Y-043425
X055315Y-03563
X05586Y-034512
X056406Y-03563
X056951Y-034512
X057496Y-03563
X058041Y-034512
X058587Y-03563
X059132Y-034512
X059677Y-03563
T6
X061713Y-045571
X061713Y-048327
X061713Y-050591
X061713Y-053346
T7
X052575Y-035512
X062417Y-035512
T8
X061988Y-038484
X061988Y-040453
T2
X062943Y-037943G85X063199Y-037943
G05
X062943Y-040994G85X063199Y-040994
G05
T4
X061467Y-038002G85X061683Y-038002
G05
X061467Y-040935G85X061683Y-040935
G05
T0
M30
