G04 #@! TF.GenerationSoftware,KiCad,Pcbnew,(5.0.2)-1*
G04 #@! TF.CreationDate,2020-03-26T14:30:10-07:00*
G04 #@! TF.ProjectId,RetroWIFI,52657472-6f57-4494-9649-2e6b69636164,rev?*
G04 #@! TF.SameCoordinates,Original*
G04 #@! TF.FileFunction,Legend,Top*
G04 #@! TF.FilePolarity,Positive*
%FSLAX46Y46*%
G04 Gerber Fmt 4.6, Leading zero omitted, Abs format (unit mm)*
G04 Created by KiCad (PCBNEW (5.0.2)-1) date 3/26/2020 2:30:10 PM*
%MOMM*%
%LPD*%
G01*
G04 APERTURE LIST*
%ADD10C,0.200000*%
%ADD11C,0.150000*%
%ADD12C,0.120000*%
G04 APERTURE END LIST*
D10*
X154228571Y-120890476D02*
X154228571Y-121223809D01*
X154752380Y-121223809D02*
X153752380Y-121223809D01*
X153752380Y-120747619D01*
X154752380Y-119890476D02*
X154752380Y-120366666D01*
X153752380Y-120366666D01*
X154466666Y-119604761D02*
X154466666Y-119128571D01*
X154752380Y-119700000D02*
X153752380Y-119366666D01*
X154752380Y-119033333D01*
X154704761Y-118747619D02*
X154752380Y-118604761D01*
X154752380Y-118366666D01*
X154704761Y-118271428D01*
X154657142Y-118223809D01*
X154561904Y-118176190D01*
X154466666Y-118176190D01*
X154371428Y-118223809D01*
X154323809Y-118271428D01*
X154276190Y-118366666D01*
X154228571Y-118557142D01*
X154180952Y-118652380D01*
X154133333Y-118700000D01*
X154038095Y-118747619D01*
X153942857Y-118747619D01*
X153847619Y-118700000D01*
X153800000Y-118652380D01*
X153752380Y-118557142D01*
X153752380Y-118319047D01*
X153800000Y-118176190D01*
X154752380Y-117747619D02*
X153752380Y-117747619D01*
X154228571Y-117747619D02*
X154228571Y-117176190D01*
X154752380Y-117176190D02*
X153752380Y-117176190D01*
X154452380Y-133452380D02*
X153976190Y-133785714D01*
X154452380Y-134023809D02*
X153452380Y-134023809D01*
X153452380Y-133642857D01*
X153500000Y-133547619D01*
X153547619Y-133500000D01*
X153642857Y-133452380D01*
X153785714Y-133452380D01*
X153880952Y-133500000D01*
X153928571Y-133547619D01*
X153976190Y-133642857D01*
X153976190Y-134023809D01*
X153928571Y-133023809D02*
X153928571Y-132690476D01*
X154452380Y-132547619D02*
X154452380Y-133023809D01*
X153452380Y-133023809D01*
X153452380Y-132547619D01*
X154404761Y-132166666D02*
X154452380Y-132023809D01*
X154452380Y-131785714D01*
X154404761Y-131690476D01*
X154357142Y-131642857D01*
X154261904Y-131595238D01*
X154166666Y-131595238D01*
X154071428Y-131642857D01*
X154023809Y-131690476D01*
X153976190Y-131785714D01*
X153928571Y-131976190D01*
X153880952Y-132071428D01*
X153833333Y-132119047D01*
X153738095Y-132166666D01*
X153642857Y-132166666D01*
X153547619Y-132119047D01*
X153500000Y-132071428D01*
X153452380Y-131976190D01*
X153452380Y-131738095D01*
X153500000Y-131595238D01*
X153928571Y-131166666D02*
X153928571Y-130833333D01*
X154452380Y-130690476D02*
X154452380Y-131166666D01*
X153452380Y-131166666D01*
X153452380Y-130690476D01*
X153452380Y-130404761D02*
X153452380Y-129833333D01*
X154452380Y-130119047D02*
X153452380Y-130119047D01*
D11*
G04 #@! TO.C,J1*
X157600000Y-104400000D02*
X159000000Y-104400000D01*
X161400000Y-104400000D02*
X161550000Y-104400000D01*
X161550000Y-104400000D02*
X161550000Y-104100000D01*
X161550000Y-104100000D02*
X162000000Y-104100000D01*
X162000000Y-96400000D02*
X161550000Y-96400000D01*
X161550000Y-96400000D02*
X161550000Y-96100000D01*
X161550000Y-96100000D02*
X161400000Y-96100000D01*
X159000000Y-96100000D02*
X157600000Y-96100000D01*
X155425000Y-101325000D02*
X155425000Y-102050000D01*
X155425000Y-102050000D02*
X155850000Y-102050000D01*
X155850000Y-102050000D02*
X155850000Y-103050000D01*
X155850000Y-98450000D02*
X155850000Y-97450000D01*
D12*
G04 #@! TO.C,C1*
X152140000Y-100221078D02*
X152140000Y-99703922D01*
X153560000Y-100221078D02*
X153560000Y-99703922D01*
G04 #@! TO.C,C2*
X140290000Y-102428922D02*
X140290000Y-102946078D01*
X141710000Y-102428922D02*
X141710000Y-102946078D01*
G04 #@! TO.C,D1*
X140040000Y-96750000D02*
X140040000Y-99435000D01*
X140040000Y-99435000D02*
X141960000Y-99435000D01*
X141960000Y-99435000D02*
X141960000Y-96750000D01*
G04 #@! TO.C,J2*
X161525000Y-82780000D02*
X161525000Y-93260000D01*
X161525000Y-93260000D02*
X130555000Y-93260000D01*
X130555000Y-93260000D02*
X130555000Y-82780000D01*
X140750000Y-94154338D02*
X140250000Y-94154338D01*
X140250000Y-94154338D02*
X140500000Y-93721325D01*
X140500000Y-93721325D02*
X140750000Y-94154338D01*
G04 #@! TO.C,R1*
X137960000Y-97988578D02*
X137960000Y-97471422D01*
X136540000Y-97988578D02*
X136540000Y-97471422D01*
G04 #@! TO.C,R2*
X151790000Y-127446078D02*
X151790000Y-126928922D01*
X153210000Y-127446078D02*
X153210000Y-126928922D01*
G04 #@! TO.C,R3*
X131590000Y-110621078D02*
X131590000Y-110103922D01*
X133010000Y-110621078D02*
X133010000Y-110103922D01*
G04 #@! TO.C,R4*
X135553922Y-101040000D02*
X136071078Y-101040000D01*
X135553922Y-102460000D02*
X136071078Y-102460000D01*
G04 #@! TO.C,R5*
X151727500Y-118991422D02*
X151727500Y-119508578D01*
X153147500Y-118991422D02*
X153147500Y-119508578D01*
D11*
G04 #@! TO.C,U3*
X147500000Y-138000000D02*
X132500000Y-138000000D01*
X132500000Y-138000000D02*
X132500000Y-131000000D01*
X132500000Y-131000000D02*
X147500000Y-131000000D01*
X147500000Y-131000000D02*
X147500000Y-138000000D01*
X148000000Y-138500000D02*
X132000000Y-138500000D01*
X132000000Y-138500000D02*
X132000000Y-114500000D01*
X132000000Y-114500000D02*
X148000000Y-114500000D01*
X148000000Y-114500000D02*
X148000000Y-138500000D01*
D12*
G04 #@! TO.C,U1*
X150460000Y-98190000D02*
X149200000Y-98190000D01*
X143640000Y-98190000D02*
X144900000Y-98190000D01*
X150460000Y-101950000D02*
X150460000Y-98190000D01*
X143640000Y-104200000D02*
X143640000Y-98190000D01*
G04 #@! TO.C,J3*
X153430000Y-111630000D02*
X153430000Y-106430000D01*
X140670000Y-111630000D02*
X153430000Y-111630000D01*
X138070000Y-106430000D02*
X153430000Y-106430000D01*
X140670000Y-111630000D02*
X140670000Y-109030000D01*
X140670000Y-109030000D02*
X138070000Y-109030000D01*
X138070000Y-109030000D02*
X138070000Y-106430000D01*
X139400000Y-111630000D02*
X138070000Y-111630000D01*
X138070000Y-111630000D02*
X138070000Y-110300000D01*
G04 #@! TO.C,SW1*
X155130000Y-134980000D02*
X155480000Y-134980000D01*
X155130000Y-135870000D02*
X155130000Y-134980000D01*
X155430000Y-135870000D02*
X155130000Y-135870000D01*
X158070000Y-135870000D02*
X161920000Y-135870000D01*
X161920000Y-135870000D02*
X161920000Y-128130000D01*
X161920000Y-128130000D02*
X158070000Y-128130000D01*
X157680000Y-129510000D02*
X157680000Y-134490000D01*
X155130000Y-129020000D02*
X155130000Y-128130000D01*
X155130000Y-129020000D02*
X155480000Y-129020000D01*
X155430000Y-128130000D02*
X155130000Y-128130000D01*
G04 #@! TO.C,SW2*
X155430000Y-115380000D02*
X155130000Y-115380000D01*
X155130000Y-116270000D02*
X155480000Y-116270000D01*
X155130000Y-116270000D02*
X155130000Y-115380000D01*
X157680000Y-116760000D02*
X157680000Y-121740000D01*
X161920000Y-115380000D02*
X158070000Y-115380000D01*
X161920000Y-123120000D02*
X161920000Y-115380000D01*
X158070000Y-123120000D02*
X161920000Y-123120000D01*
X155430000Y-123120000D02*
X155130000Y-123120000D01*
X155130000Y-123120000D02*
X155130000Y-122230000D01*
X155130000Y-122230000D02*
X155480000Y-122230000D01*
G04 #@! TO.C,J1*
D11*
X158266666Y-105352380D02*
X158266666Y-106066666D01*
X158219047Y-106209523D01*
X158123809Y-106304761D01*
X157980952Y-106352380D01*
X157885714Y-106352380D01*
X159266666Y-106352380D02*
X158695238Y-106352380D01*
X158980952Y-106352380D02*
X158980952Y-105352380D01*
X158885714Y-105495238D01*
X158790476Y-105590476D01*
X158695238Y-105638095D01*
G04 #@! TO.C,C1*
X151557142Y-100129166D02*
X151604761Y-100176785D01*
X151652380Y-100319642D01*
X151652380Y-100414880D01*
X151604761Y-100557738D01*
X151509523Y-100652976D01*
X151414285Y-100700595D01*
X151223809Y-100748214D01*
X151080952Y-100748214D01*
X150890476Y-100700595D01*
X150795238Y-100652976D01*
X150700000Y-100557738D01*
X150652380Y-100414880D01*
X150652380Y-100319642D01*
X150700000Y-100176785D01*
X150747619Y-100129166D01*
X151652380Y-99176785D02*
X151652380Y-99748214D01*
X151652380Y-99462500D02*
X150652380Y-99462500D01*
X150795238Y-99557738D01*
X150890476Y-99652976D01*
X150938095Y-99748214D01*
G04 #@! TO.C,C2*
X139607142Y-102916666D02*
X139654761Y-102964285D01*
X139702380Y-103107142D01*
X139702380Y-103202380D01*
X139654761Y-103345238D01*
X139559523Y-103440476D01*
X139464285Y-103488095D01*
X139273809Y-103535714D01*
X139130952Y-103535714D01*
X138940476Y-103488095D01*
X138845238Y-103440476D01*
X138750000Y-103345238D01*
X138702380Y-103202380D01*
X138702380Y-103107142D01*
X138750000Y-102964285D01*
X138797619Y-102916666D01*
X138797619Y-102535714D02*
X138750000Y-102488095D01*
X138702380Y-102392857D01*
X138702380Y-102154761D01*
X138750000Y-102059523D01*
X138797619Y-102011904D01*
X138892857Y-101964285D01*
X138988095Y-101964285D01*
X139130952Y-102011904D01*
X139702380Y-102583333D01*
X139702380Y-101964285D01*
G04 #@! TO.C,D1*
X139802380Y-98488095D02*
X138802380Y-98488095D01*
X138802380Y-98250000D01*
X138850000Y-98107142D01*
X138945238Y-98011904D01*
X139040476Y-97964285D01*
X139230952Y-97916666D01*
X139373809Y-97916666D01*
X139564285Y-97964285D01*
X139659523Y-98011904D01*
X139754761Y-98107142D01*
X139802380Y-98250000D01*
X139802380Y-98488095D01*
X139802380Y-96964285D02*
X139802380Y-97535714D01*
X139802380Y-97250000D02*
X138802380Y-97250000D01*
X138945238Y-97345238D01*
X139040476Y-97440476D01*
X139088095Y-97535714D01*
G04 #@! TO.C,J2*
X145706666Y-93652380D02*
X145706666Y-94366666D01*
X145659047Y-94509523D01*
X145563809Y-94604761D01*
X145420952Y-94652380D01*
X145325714Y-94652380D01*
X146135238Y-93747619D02*
X146182857Y-93700000D01*
X146278095Y-93652380D01*
X146516190Y-93652380D01*
X146611428Y-93700000D01*
X146659047Y-93747619D01*
X146706666Y-93842857D01*
X146706666Y-93938095D01*
X146659047Y-94080952D01*
X146087619Y-94652380D01*
X146706666Y-94652380D01*
G04 #@! TO.C,R1*
X136052380Y-97896666D02*
X135576190Y-98230000D01*
X136052380Y-98468095D02*
X135052380Y-98468095D01*
X135052380Y-98087142D01*
X135100000Y-97991904D01*
X135147619Y-97944285D01*
X135242857Y-97896666D01*
X135385714Y-97896666D01*
X135480952Y-97944285D01*
X135528571Y-97991904D01*
X135576190Y-98087142D01*
X135576190Y-98468095D01*
X136052380Y-96944285D02*
X136052380Y-97515714D01*
X136052380Y-97230000D02*
X135052380Y-97230000D01*
X135195238Y-97325238D01*
X135290476Y-97420476D01*
X135338095Y-97515714D01*
G04 #@! TO.C,R2*
X151302380Y-127354166D02*
X150826190Y-127687500D01*
X151302380Y-127925595D02*
X150302380Y-127925595D01*
X150302380Y-127544642D01*
X150350000Y-127449404D01*
X150397619Y-127401785D01*
X150492857Y-127354166D01*
X150635714Y-127354166D01*
X150730952Y-127401785D01*
X150778571Y-127449404D01*
X150826190Y-127544642D01*
X150826190Y-127925595D01*
X150397619Y-126973214D02*
X150350000Y-126925595D01*
X150302380Y-126830357D01*
X150302380Y-126592261D01*
X150350000Y-126497023D01*
X150397619Y-126449404D01*
X150492857Y-126401785D01*
X150588095Y-126401785D01*
X150730952Y-126449404D01*
X151302380Y-127020833D01*
X151302380Y-126401785D01*
G04 #@! TO.C,R3*
X131102380Y-110529166D02*
X130626190Y-110862500D01*
X131102380Y-111100595D02*
X130102380Y-111100595D01*
X130102380Y-110719642D01*
X130150000Y-110624404D01*
X130197619Y-110576785D01*
X130292857Y-110529166D01*
X130435714Y-110529166D01*
X130530952Y-110576785D01*
X130578571Y-110624404D01*
X130626190Y-110719642D01*
X130626190Y-111100595D01*
X130102380Y-110195833D02*
X130102380Y-109576785D01*
X130483333Y-109910119D01*
X130483333Y-109767261D01*
X130530952Y-109672023D01*
X130578571Y-109624404D01*
X130673809Y-109576785D01*
X130911904Y-109576785D01*
X131007142Y-109624404D01*
X131054761Y-109672023D01*
X131102380Y-109767261D01*
X131102380Y-110052976D01*
X131054761Y-110148214D01*
X131007142Y-110195833D01*
G04 #@! TO.C,R4*
X135645833Y-103952380D02*
X135312500Y-103476190D01*
X135074404Y-103952380D02*
X135074404Y-102952380D01*
X135455357Y-102952380D01*
X135550595Y-103000000D01*
X135598214Y-103047619D01*
X135645833Y-103142857D01*
X135645833Y-103285714D01*
X135598214Y-103380952D01*
X135550595Y-103428571D01*
X135455357Y-103476190D01*
X135074404Y-103476190D01*
X136502976Y-103285714D02*
X136502976Y-103952380D01*
X136264880Y-102904761D02*
X136026785Y-103619047D01*
X136645833Y-103619047D01*
G04 #@! TO.C,R5*
X151202380Y-119416666D02*
X150726190Y-119750000D01*
X151202380Y-119988095D02*
X150202380Y-119988095D01*
X150202380Y-119607142D01*
X150250000Y-119511904D01*
X150297619Y-119464285D01*
X150392857Y-119416666D01*
X150535714Y-119416666D01*
X150630952Y-119464285D01*
X150678571Y-119511904D01*
X150726190Y-119607142D01*
X150726190Y-119988095D01*
X150202380Y-118511904D02*
X150202380Y-118988095D01*
X150678571Y-119035714D01*
X150630952Y-118988095D01*
X150583333Y-118892857D01*
X150583333Y-118654761D01*
X150630952Y-118559523D01*
X150678571Y-118511904D01*
X150773809Y-118464285D01*
X151011904Y-118464285D01*
X151107142Y-118511904D01*
X151154761Y-118559523D01*
X151202380Y-118654761D01*
X151202380Y-118892857D01*
X151154761Y-118988095D01*
X151107142Y-119035714D01*
G04 #@! TO.C,U3*
X139238095Y-125952380D02*
X139238095Y-126761904D01*
X139285714Y-126857142D01*
X139333333Y-126904761D01*
X139428571Y-126952380D01*
X139619047Y-126952380D01*
X139714285Y-126904761D01*
X139761904Y-126857142D01*
X139809523Y-126761904D01*
X139809523Y-125952380D01*
X140190476Y-125952380D02*
X140809523Y-125952380D01*
X140476190Y-126333333D01*
X140619047Y-126333333D01*
X140714285Y-126380952D01*
X140761904Y-126428571D01*
X140809523Y-126523809D01*
X140809523Y-126761904D01*
X140761904Y-126857142D01*
X140714285Y-126904761D01*
X140619047Y-126952380D01*
X140333333Y-126952380D01*
X140238095Y-126904761D01*
X140190476Y-126857142D01*
X137095238Y-134952380D02*
X137095238Y-133952380D01*
X137666666Y-134952380D01*
X137666666Y-133952380D01*
X138333333Y-133952380D02*
X138523809Y-133952380D01*
X138619047Y-134000000D01*
X138714285Y-134095238D01*
X138761904Y-134285714D01*
X138761904Y-134619047D01*
X138714285Y-134809523D01*
X138619047Y-134904761D01*
X138523809Y-134952380D01*
X138333333Y-134952380D01*
X138238095Y-134904761D01*
X138142857Y-134809523D01*
X138095238Y-134619047D01*
X138095238Y-134285714D01*
X138142857Y-134095238D01*
X138238095Y-134000000D01*
X138333333Y-133952380D01*
X140285714Y-134428571D02*
X139952380Y-134428571D01*
X139952380Y-134952380D02*
X139952380Y-133952380D01*
X140428571Y-133952380D01*
X140809523Y-134952380D02*
X140809523Y-133952380D01*
X141761904Y-134952380D02*
X141285714Y-134952380D01*
X141285714Y-133952380D01*
X142571428Y-134952380D02*
X142095238Y-134952380D01*
X142095238Y-133952380D01*
X142904761Y-134857142D02*
X142952380Y-134904761D01*
X142904761Y-134952380D01*
X142857142Y-134904761D01*
X142904761Y-134857142D01*
X142904761Y-134952380D01*
X142904761Y-134571428D02*
X142857142Y-134000000D01*
X142904761Y-133952380D01*
X142952380Y-134000000D01*
X142904761Y-134571428D01*
X142904761Y-133952380D01*
G04 #@! TO.C,U1*
X142002380Y-100861904D02*
X142811904Y-100861904D01*
X142907142Y-100814285D01*
X142954761Y-100766666D01*
X143002380Y-100671428D01*
X143002380Y-100480952D01*
X142954761Y-100385714D01*
X142907142Y-100338095D01*
X142811904Y-100290476D01*
X142002380Y-100290476D01*
X143002380Y-99290476D02*
X143002380Y-99861904D01*
X143002380Y-99576190D02*
X142002380Y-99576190D01*
X142145238Y-99671428D01*
X142240476Y-99766666D01*
X142288095Y-99861904D01*
G04 #@! TO.C,J3*
X136522380Y-109363333D02*
X137236666Y-109363333D01*
X137379523Y-109410952D01*
X137474761Y-109506190D01*
X137522380Y-109649047D01*
X137522380Y-109744285D01*
X136522380Y-108982380D02*
X136522380Y-108363333D01*
X136903333Y-108696666D01*
X136903333Y-108553809D01*
X136950952Y-108458571D01*
X136998571Y-108410952D01*
X137093809Y-108363333D01*
X137331904Y-108363333D01*
X137427142Y-108410952D01*
X137474761Y-108458571D01*
X137522380Y-108553809D01*
X137522380Y-108839523D01*
X137474761Y-108934761D01*
X137427142Y-108982380D01*
G04 #@! TD*
M02*
