G04 #@! TF.GenerationSoftware,KiCad,Pcbnew,(5.0.2)-1*
G04 #@! TF.CreationDate,2020-03-26T14:30:10-07:00*
G04 #@! TF.ProjectId,RetroWIFI,52657472-6f57-4494-9649-2e6b69636164,rev?*
G04 #@! TF.SameCoordinates,Original*
G04 #@! TF.FileFunction,Paste,Top*
G04 #@! TF.FilePolarity,Positive*
%FSLAX46Y46*%
G04 Gerber Fmt 4.6, Leading zero omitted, Abs format (unit mm)*
G04 Created by KiCad (PCBNEW (5.0.2)-1) date 3/26/2020 2:30:10 PM*
%MOMM*%
%LPD*%
G01*
G04 APERTURE LIST*
%ADD10R,2.000000X1.000000*%
%ADD11C,0.100000*%
%ADD12C,0.975000*%
%ADD13R,2.200000X1.000000*%
%ADD14R,1.000000X1.500000*%
%ADD15R,3.800000X2.000000*%
%ADD16R,1.500000X2.000000*%
G04 APERTURE END LIST*
D10*
G04 #@! TO.C,J1*
X156050000Y-101850000D03*
X156050000Y-98650000D03*
G04 #@! TD*
D11*
G04 #@! TO.C,C1*
G36*
X153330142Y-100413674D02*
X153353803Y-100417184D01*
X153377007Y-100422996D01*
X153399529Y-100431054D01*
X153421153Y-100441282D01*
X153441670Y-100453579D01*
X153460883Y-100467829D01*
X153478607Y-100483893D01*
X153494671Y-100501617D01*
X153508921Y-100520830D01*
X153521218Y-100541347D01*
X153531446Y-100562971D01*
X153539504Y-100585493D01*
X153545316Y-100608697D01*
X153548826Y-100632358D01*
X153550000Y-100656250D01*
X153550000Y-101143750D01*
X153548826Y-101167642D01*
X153545316Y-101191303D01*
X153539504Y-101214507D01*
X153531446Y-101237029D01*
X153521218Y-101258653D01*
X153508921Y-101279170D01*
X153494671Y-101298383D01*
X153478607Y-101316107D01*
X153460883Y-101332171D01*
X153441670Y-101346421D01*
X153421153Y-101358718D01*
X153399529Y-101368946D01*
X153377007Y-101377004D01*
X153353803Y-101382816D01*
X153330142Y-101386326D01*
X153306250Y-101387500D01*
X152393750Y-101387500D01*
X152369858Y-101386326D01*
X152346197Y-101382816D01*
X152322993Y-101377004D01*
X152300471Y-101368946D01*
X152278847Y-101358718D01*
X152258330Y-101346421D01*
X152239117Y-101332171D01*
X152221393Y-101316107D01*
X152205329Y-101298383D01*
X152191079Y-101279170D01*
X152178782Y-101258653D01*
X152168554Y-101237029D01*
X152160496Y-101214507D01*
X152154684Y-101191303D01*
X152151174Y-101167642D01*
X152150000Y-101143750D01*
X152150000Y-100656250D01*
X152151174Y-100632358D01*
X152154684Y-100608697D01*
X152160496Y-100585493D01*
X152168554Y-100562971D01*
X152178782Y-100541347D01*
X152191079Y-100520830D01*
X152205329Y-100501617D01*
X152221393Y-100483893D01*
X152239117Y-100467829D01*
X152258330Y-100453579D01*
X152278847Y-100441282D01*
X152300471Y-100431054D01*
X152322993Y-100422996D01*
X152346197Y-100417184D01*
X152369858Y-100413674D01*
X152393750Y-100412500D01*
X153306250Y-100412500D01*
X153330142Y-100413674D01*
X153330142Y-100413674D01*
G37*
D12*
X152850000Y-100900000D03*
D11*
G36*
X153330142Y-98538674D02*
X153353803Y-98542184D01*
X153377007Y-98547996D01*
X153399529Y-98556054D01*
X153421153Y-98566282D01*
X153441670Y-98578579D01*
X153460883Y-98592829D01*
X153478607Y-98608893D01*
X153494671Y-98626617D01*
X153508921Y-98645830D01*
X153521218Y-98666347D01*
X153531446Y-98687971D01*
X153539504Y-98710493D01*
X153545316Y-98733697D01*
X153548826Y-98757358D01*
X153550000Y-98781250D01*
X153550000Y-99268750D01*
X153548826Y-99292642D01*
X153545316Y-99316303D01*
X153539504Y-99339507D01*
X153531446Y-99362029D01*
X153521218Y-99383653D01*
X153508921Y-99404170D01*
X153494671Y-99423383D01*
X153478607Y-99441107D01*
X153460883Y-99457171D01*
X153441670Y-99471421D01*
X153421153Y-99483718D01*
X153399529Y-99493946D01*
X153377007Y-99502004D01*
X153353803Y-99507816D01*
X153330142Y-99511326D01*
X153306250Y-99512500D01*
X152393750Y-99512500D01*
X152369858Y-99511326D01*
X152346197Y-99507816D01*
X152322993Y-99502004D01*
X152300471Y-99493946D01*
X152278847Y-99483718D01*
X152258330Y-99471421D01*
X152239117Y-99457171D01*
X152221393Y-99441107D01*
X152205329Y-99423383D01*
X152191079Y-99404170D01*
X152178782Y-99383653D01*
X152168554Y-99362029D01*
X152160496Y-99339507D01*
X152154684Y-99316303D01*
X152151174Y-99292642D01*
X152150000Y-99268750D01*
X152150000Y-98781250D01*
X152151174Y-98757358D01*
X152154684Y-98733697D01*
X152160496Y-98710493D01*
X152168554Y-98687971D01*
X152178782Y-98666347D01*
X152191079Y-98645830D01*
X152205329Y-98626617D01*
X152221393Y-98608893D01*
X152239117Y-98592829D01*
X152258330Y-98578579D01*
X152278847Y-98566282D01*
X152300471Y-98556054D01*
X152322993Y-98547996D01*
X152346197Y-98542184D01*
X152369858Y-98538674D01*
X152393750Y-98537500D01*
X153306250Y-98537500D01*
X153330142Y-98538674D01*
X153330142Y-98538674D01*
G37*
D12*
X152850000Y-99025000D03*
G04 #@! TD*
D11*
G04 #@! TO.C,C2*
G36*
X141480142Y-103138674D02*
X141503803Y-103142184D01*
X141527007Y-103147996D01*
X141549529Y-103156054D01*
X141571153Y-103166282D01*
X141591670Y-103178579D01*
X141610883Y-103192829D01*
X141628607Y-103208893D01*
X141644671Y-103226617D01*
X141658921Y-103245830D01*
X141671218Y-103266347D01*
X141681446Y-103287971D01*
X141689504Y-103310493D01*
X141695316Y-103333697D01*
X141698826Y-103357358D01*
X141700000Y-103381250D01*
X141700000Y-103868750D01*
X141698826Y-103892642D01*
X141695316Y-103916303D01*
X141689504Y-103939507D01*
X141681446Y-103962029D01*
X141671218Y-103983653D01*
X141658921Y-104004170D01*
X141644671Y-104023383D01*
X141628607Y-104041107D01*
X141610883Y-104057171D01*
X141591670Y-104071421D01*
X141571153Y-104083718D01*
X141549529Y-104093946D01*
X141527007Y-104102004D01*
X141503803Y-104107816D01*
X141480142Y-104111326D01*
X141456250Y-104112500D01*
X140543750Y-104112500D01*
X140519858Y-104111326D01*
X140496197Y-104107816D01*
X140472993Y-104102004D01*
X140450471Y-104093946D01*
X140428847Y-104083718D01*
X140408330Y-104071421D01*
X140389117Y-104057171D01*
X140371393Y-104041107D01*
X140355329Y-104023383D01*
X140341079Y-104004170D01*
X140328782Y-103983653D01*
X140318554Y-103962029D01*
X140310496Y-103939507D01*
X140304684Y-103916303D01*
X140301174Y-103892642D01*
X140300000Y-103868750D01*
X140300000Y-103381250D01*
X140301174Y-103357358D01*
X140304684Y-103333697D01*
X140310496Y-103310493D01*
X140318554Y-103287971D01*
X140328782Y-103266347D01*
X140341079Y-103245830D01*
X140355329Y-103226617D01*
X140371393Y-103208893D01*
X140389117Y-103192829D01*
X140408330Y-103178579D01*
X140428847Y-103166282D01*
X140450471Y-103156054D01*
X140472993Y-103147996D01*
X140496197Y-103142184D01*
X140519858Y-103138674D01*
X140543750Y-103137500D01*
X141456250Y-103137500D01*
X141480142Y-103138674D01*
X141480142Y-103138674D01*
G37*
D12*
X141000000Y-103625000D03*
D11*
G36*
X141480142Y-101263674D02*
X141503803Y-101267184D01*
X141527007Y-101272996D01*
X141549529Y-101281054D01*
X141571153Y-101291282D01*
X141591670Y-101303579D01*
X141610883Y-101317829D01*
X141628607Y-101333893D01*
X141644671Y-101351617D01*
X141658921Y-101370830D01*
X141671218Y-101391347D01*
X141681446Y-101412971D01*
X141689504Y-101435493D01*
X141695316Y-101458697D01*
X141698826Y-101482358D01*
X141700000Y-101506250D01*
X141700000Y-101993750D01*
X141698826Y-102017642D01*
X141695316Y-102041303D01*
X141689504Y-102064507D01*
X141681446Y-102087029D01*
X141671218Y-102108653D01*
X141658921Y-102129170D01*
X141644671Y-102148383D01*
X141628607Y-102166107D01*
X141610883Y-102182171D01*
X141591670Y-102196421D01*
X141571153Y-102208718D01*
X141549529Y-102218946D01*
X141527007Y-102227004D01*
X141503803Y-102232816D01*
X141480142Y-102236326D01*
X141456250Y-102237500D01*
X140543750Y-102237500D01*
X140519858Y-102236326D01*
X140496197Y-102232816D01*
X140472993Y-102227004D01*
X140450471Y-102218946D01*
X140428847Y-102208718D01*
X140408330Y-102196421D01*
X140389117Y-102182171D01*
X140371393Y-102166107D01*
X140355329Y-102148383D01*
X140341079Y-102129170D01*
X140328782Y-102108653D01*
X140318554Y-102087029D01*
X140310496Y-102064507D01*
X140304684Y-102041303D01*
X140301174Y-102017642D01*
X140300000Y-101993750D01*
X140300000Y-101506250D01*
X140301174Y-101482358D01*
X140304684Y-101458697D01*
X140310496Y-101435493D01*
X140318554Y-101412971D01*
X140328782Y-101391347D01*
X140341079Y-101370830D01*
X140355329Y-101351617D01*
X140371393Y-101333893D01*
X140389117Y-101317829D01*
X140408330Y-101303579D01*
X140428847Y-101291282D01*
X140450471Y-101281054D01*
X140472993Y-101272996D01*
X140496197Y-101267184D01*
X140519858Y-101263674D01*
X140543750Y-101262500D01*
X141456250Y-101262500D01*
X141480142Y-101263674D01*
X141480142Y-101263674D01*
G37*
D12*
X141000000Y-101750000D03*
G04 #@! TD*
D11*
G04 #@! TO.C,D1*
G36*
X141480142Y-98201174D02*
X141503803Y-98204684D01*
X141527007Y-98210496D01*
X141549529Y-98218554D01*
X141571153Y-98228782D01*
X141591670Y-98241079D01*
X141610883Y-98255329D01*
X141628607Y-98271393D01*
X141644671Y-98289117D01*
X141658921Y-98308330D01*
X141671218Y-98328847D01*
X141681446Y-98350471D01*
X141689504Y-98372993D01*
X141695316Y-98396197D01*
X141698826Y-98419858D01*
X141700000Y-98443750D01*
X141700000Y-98931250D01*
X141698826Y-98955142D01*
X141695316Y-98978803D01*
X141689504Y-99002007D01*
X141681446Y-99024529D01*
X141671218Y-99046153D01*
X141658921Y-99066670D01*
X141644671Y-99085883D01*
X141628607Y-99103607D01*
X141610883Y-99119671D01*
X141591670Y-99133921D01*
X141571153Y-99146218D01*
X141549529Y-99156446D01*
X141527007Y-99164504D01*
X141503803Y-99170316D01*
X141480142Y-99173826D01*
X141456250Y-99175000D01*
X140543750Y-99175000D01*
X140519858Y-99173826D01*
X140496197Y-99170316D01*
X140472993Y-99164504D01*
X140450471Y-99156446D01*
X140428847Y-99146218D01*
X140408330Y-99133921D01*
X140389117Y-99119671D01*
X140371393Y-99103607D01*
X140355329Y-99085883D01*
X140341079Y-99066670D01*
X140328782Y-99046153D01*
X140318554Y-99024529D01*
X140310496Y-99002007D01*
X140304684Y-98978803D01*
X140301174Y-98955142D01*
X140300000Y-98931250D01*
X140300000Y-98443750D01*
X140301174Y-98419858D01*
X140304684Y-98396197D01*
X140310496Y-98372993D01*
X140318554Y-98350471D01*
X140328782Y-98328847D01*
X140341079Y-98308330D01*
X140355329Y-98289117D01*
X140371393Y-98271393D01*
X140389117Y-98255329D01*
X140408330Y-98241079D01*
X140428847Y-98228782D01*
X140450471Y-98218554D01*
X140472993Y-98210496D01*
X140496197Y-98204684D01*
X140519858Y-98201174D01*
X140543750Y-98200000D01*
X141456250Y-98200000D01*
X141480142Y-98201174D01*
X141480142Y-98201174D01*
G37*
D12*
X141000000Y-98687500D03*
D11*
G36*
X141480142Y-96326174D02*
X141503803Y-96329684D01*
X141527007Y-96335496D01*
X141549529Y-96343554D01*
X141571153Y-96353782D01*
X141591670Y-96366079D01*
X141610883Y-96380329D01*
X141628607Y-96396393D01*
X141644671Y-96414117D01*
X141658921Y-96433330D01*
X141671218Y-96453847D01*
X141681446Y-96475471D01*
X141689504Y-96497993D01*
X141695316Y-96521197D01*
X141698826Y-96544858D01*
X141700000Y-96568750D01*
X141700000Y-97056250D01*
X141698826Y-97080142D01*
X141695316Y-97103803D01*
X141689504Y-97127007D01*
X141681446Y-97149529D01*
X141671218Y-97171153D01*
X141658921Y-97191670D01*
X141644671Y-97210883D01*
X141628607Y-97228607D01*
X141610883Y-97244671D01*
X141591670Y-97258921D01*
X141571153Y-97271218D01*
X141549529Y-97281446D01*
X141527007Y-97289504D01*
X141503803Y-97295316D01*
X141480142Y-97298826D01*
X141456250Y-97300000D01*
X140543750Y-97300000D01*
X140519858Y-97298826D01*
X140496197Y-97295316D01*
X140472993Y-97289504D01*
X140450471Y-97281446D01*
X140428847Y-97271218D01*
X140408330Y-97258921D01*
X140389117Y-97244671D01*
X140371393Y-97228607D01*
X140355329Y-97210883D01*
X140341079Y-97191670D01*
X140328782Y-97171153D01*
X140318554Y-97149529D01*
X140310496Y-97127007D01*
X140304684Y-97103803D01*
X140301174Y-97080142D01*
X140300000Y-97056250D01*
X140300000Y-96568750D01*
X140301174Y-96544858D01*
X140304684Y-96521197D01*
X140310496Y-96497993D01*
X140318554Y-96475471D01*
X140328782Y-96453847D01*
X140341079Y-96433330D01*
X140355329Y-96414117D01*
X140371393Y-96396393D01*
X140389117Y-96380329D01*
X140408330Y-96366079D01*
X140428847Y-96353782D01*
X140450471Y-96343554D01*
X140472993Y-96335496D01*
X140496197Y-96329684D01*
X140519858Y-96326174D01*
X140543750Y-96325000D01*
X141456250Y-96325000D01*
X141480142Y-96326174D01*
X141480142Y-96326174D01*
G37*
D12*
X141000000Y-96812500D03*
G04 #@! TD*
D11*
G04 #@! TO.C,R1*
G36*
X137730142Y-96306174D02*
X137753803Y-96309684D01*
X137777007Y-96315496D01*
X137799529Y-96323554D01*
X137821153Y-96333782D01*
X137841670Y-96346079D01*
X137860883Y-96360329D01*
X137878607Y-96376393D01*
X137894671Y-96394117D01*
X137908921Y-96413330D01*
X137921218Y-96433847D01*
X137931446Y-96455471D01*
X137939504Y-96477993D01*
X137945316Y-96501197D01*
X137948826Y-96524858D01*
X137950000Y-96548750D01*
X137950000Y-97036250D01*
X137948826Y-97060142D01*
X137945316Y-97083803D01*
X137939504Y-97107007D01*
X137931446Y-97129529D01*
X137921218Y-97151153D01*
X137908921Y-97171670D01*
X137894671Y-97190883D01*
X137878607Y-97208607D01*
X137860883Y-97224671D01*
X137841670Y-97238921D01*
X137821153Y-97251218D01*
X137799529Y-97261446D01*
X137777007Y-97269504D01*
X137753803Y-97275316D01*
X137730142Y-97278826D01*
X137706250Y-97280000D01*
X136793750Y-97280000D01*
X136769858Y-97278826D01*
X136746197Y-97275316D01*
X136722993Y-97269504D01*
X136700471Y-97261446D01*
X136678847Y-97251218D01*
X136658330Y-97238921D01*
X136639117Y-97224671D01*
X136621393Y-97208607D01*
X136605329Y-97190883D01*
X136591079Y-97171670D01*
X136578782Y-97151153D01*
X136568554Y-97129529D01*
X136560496Y-97107007D01*
X136554684Y-97083803D01*
X136551174Y-97060142D01*
X136550000Y-97036250D01*
X136550000Y-96548750D01*
X136551174Y-96524858D01*
X136554684Y-96501197D01*
X136560496Y-96477993D01*
X136568554Y-96455471D01*
X136578782Y-96433847D01*
X136591079Y-96413330D01*
X136605329Y-96394117D01*
X136621393Y-96376393D01*
X136639117Y-96360329D01*
X136658330Y-96346079D01*
X136678847Y-96333782D01*
X136700471Y-96323554D01*
X136722993Y-96315496D01*
X136746197Y-96309684D01*
X136769858Y-96306174D01*
X136793750Y-96305000D01*
X137706250Y-96305000D01*
X137730142Y-96306174D01*
X137730142Y-96306174D01*
G37*
D12*
X137250000Y-96792500D03*
D11*
G36*
X137730142Y-98181174D02*
X137753803Y-98184684D01*
X137777007Y-98190496D01*
X137799529Y-98198554D01*
X137821153Y-98208782D01*
X137841670Y-98221079D01*
X137860883Y-98235329D01*
X137878607Y-98251393D01*
X137894671Y-98269117D01*
X137908921Y-98288330D01*
X137921218Y-98308847D01*
X137931446Y-98330471D01*
X137939504Y-98352993D01*
X137945316Y-98376197D01*
X137948826Y-98399858D01*
X137950000Y-98423750D01*
X137950000Y-98911250D01*
X137948826Y-98935142D01*
X137945316Y-98958803D01*
X137939504Y-98982007D01*
X137931446Y-99004529D01*
X137921218Y-99026153D01*
X137908921Y-99046670D01*
X137894671Y-99065883D01*
X137878607Y-99083607D01*
X137860883Y-99099671D01*
X137841670Y-99113921D01*
X137821153Y-99126218D01*
X137799529Y-99136446D01*
X137777007Y-99144504D01*
X137753803Y-99150316D01*
X137730142Y-99153826D01*
X137706250Y-99155000D01*
X136793750Y-99155000D01*
X136769858Y-99153826D01*
X136746197Y-99150316D01*
X136722993Y-99144504D01*
X136700471Y-99136446D01*
X136678847Y-99126218D01*
X136658330Y-99113921D01*
X136639117Y-99099671D01*
X136621393Y-99083607D01*
X136605329Y-99065883D01*
X136591079Y-99046670D01*
X136578782Y-99026153D01*
X136568554Y-99004529D01*
X136560496Y-98982007D01*
X136554684Y-98958803D01*
X136551174Y-98935142D01*
X136550000Y-98911250D01*
X136550000Y-98423750D01*
X136551174Y-98399858D01*
X136554684Y-98376197D01*
X136560496Y-98352993D01*
X136568554Y-98330471D01*
X136578782Y-98308847D01*
X136591079Y-98288330D01*
X136605329Y-98269117D01*
X136621393Y-98251393D01*
X136639117Y-98235329D01*
X136658330Y-98221079D01*
X136678847Y-98208782D01*
X136700471Y-98198554D01*
X136722993Y-98190496D01*
X136746197Y-98184684D01*
X136769858Y-98181174D01*
X136793750Y-98180000D01*
X137706250Y-98180000D01*
X137730142Y-98181174D01*
X137730142Y-98181174D01*
G37*
D12*
X137250000Y-98667500D03*
G04 #@! TD*
D11*
G04 #@! TO.C,R2*
G36*
X152980142Y-127638674D02*
X153003803Y-127642184D01*
X153027007Y-127647996D01*
X153049529Y-127656054D01*
X153071153Y-127666282D01*
X153091670Y-127678579D01*
X153110883Y-127692829D01*
X153128607Y-127708893D01*
X153144671Y-127726617D01*
X153158921Y-127745830D01*
X153171218Y-127766347D01*
X153181446Y-127787971D01*
X153189504Y-127810493D01*
X153195316Y-127833697D01*
X153198826Y-127857358D01*
X153200000Y-127881250D01*
X153200000Y-128368750D01*
X153198826Y-128392642D01*
X153195316Y-128416303D01*
X153189504Y-128439507D01*
X153181446Y-128462029D01*
X153171218Y-128483653D01*
X153158921Y-128504170D01*
X153144671Y-128523383D01*
X153128607Y-128541107D01*
X153110883Y-128557171D01*
X153091670Y-128571421D01*
X153071153Y-128583718D01*
X153049529Y-128593946D01*
X153027007Y-128602004D01*
X153003803Y-128607816D01*
X152980142Y-128611326D01*
X152956250Y-128612500D01*
X152043750Y-128612500D01*
X152019858Y-128611326D01*
X151996197Y-128607816D01*
X151972993Y-128602004D01*
X151950471Y-128593946D01*
X151928847Y-128583718D01*
X151908330Y-128571421D01*
X151889117Y-128557171D01*
X151871393Y-128541107D01*
X151855329Y-128523383D01*
X151841079Y-128504170D01*
X151828782Y-128483653D01*
X151818554Y-128462029D01*
X151810496Y-128439507D01*
X151804684Y-128416303D01*
X151801174Y-128392642D01*
X151800000Y-128368750D01*
X151800000Y-127881250D01*
X151801174Y-127857358D01*
X151804684Y-127833697D01*
X151810496Y-127810493D01*
X151818554Y-127787971D01*
X151828782Y-127766347D01*
X151841079Y-127745830D01*
X151855329Y-127726617D01*
X151871393Y-127708893D01*
X151889117Y-127692829D01*
X151908330Y-127678579D01*
X151928847Y-127666282D01*
X151950471Y-127656054D01*
X151972993Y-127647996D01*
X151996197Y-127642184D01*
X152019858Y-127638674D01*
X152043750Y-127637500D01*
X152956250Y-127637500D01*
X152980142Y-127638674D01*
X152980142Y-127638674D01*
G37*
D12*
X152500000Y-128125000D03*
D11*
G36*
X152980142Y-125763674D02*
X153003803Y-125767184D01*
X153027007Y-125772996D01*
X153049529Y-125781054D01*
X153071153Y-125791282D01*
X153091670Y-125803579D01*
X153110883Y-125817829D01*
X153128607Y-125833893D01*
X153144671Y-125851617D01*
X153158921Y-125870830D01*
X153171218Y-125891347D01*
X153181446Y-125912971D01*
X153189504Y-125935493D01*
X153195316Y-125958697D01*
X153198826Y-125982358D01*
X153200000Y-126006250D01*
X153200000Y-126493750D01*
X153198826Y-126517642D01*
X153195316Y-126541303D01*
X153189504Y-126564507D01*
X153181446Y-126587029D01*
X153171218Y-126608653D01*
X153158921Y-126629170D01*
X153144671Y-126648383D01*
X153128607Y-126666107D01*
X153110883Y-126682171D01*
X153091670Y-126696421D01*
X153071153Y-126708718D01*
X153049529Y-126718946D01*
X153027007Y-126727004D01*
X153003803Y-126732816D01*
X152980142Y-126736326D01*
X152956250Y-126737500D01*
X152043750Y-126737500D01*
X152019858Y-126736326D01*
X151996197Y-126732816D01*
X151972993Y-126727004D01*
X151950471Y-126718946D01*
X151928847Y-126708718D01*
X151908330Y-126696421D01*
X151889117Y-126682171D01*
X151871393Y-126666107D01*
X151855329Y-126648383D01*
X151841079Y-126629170D01*
X151828782Y-126608653D01*
X151818554Y-126587029D01*
X151810496Y-126564507D01*
X151804684Y-126541303D01*
X151801174Y-126517642D01*
X151800000Y-126493750D01*
X151800000Y-126006250D01*
X151801174Y-125982358D01*
X151804684Y-125958697D01*
X151810496Y-125935493D01*
X151818554Y-125912971D01*
X151828782Y-125891347D01*
X151841079Y-125870830D01*
X151855329Y-125851617D01*
X151871393Y-125833893D01*
X151889117Y-125817829D01*
X151908330Y-125803579D01*
X151928847Y-125791282D01*
X151950471Y-125781054D01*
X151972993Y-125772996D01*
X151996197Y-125767184D01*
X152019858Y-125763674D01*
X152043750Y-125762500D01*
X152956250Y-125762500D01*
X152980142Y-125763674D01*
X152980142Y-125763674D01*
G37*
D12*
X152500000Y-126250000D03*
G04 #@! TD*
D11*
G04 #@! TO.C,R3*
G36*
X132780142Y-110813674D02*
X132803803Y-110817184D01*
X132827007Y-110822996D01*
X132849529Y-110831054D01*
X132871153Y-110841282D01*
X132891670Y-110853579D01*
X132910883Y-110867829D01*
X132928607Y-110883893D01*
X132944671Y-110901617D01*
X132958921Y-110920830D01*
X132971218Y-110941347D01*
X132981446Y-110962971D01*
X132989504Y-110985493D01*
X132995316Y-111008697D01*
X132998826Y-111032358D01*
X133000000Y-111056250D01*
X133000000Y-111543750D01*
X132998826Y-111567642D01*
X132995316Y-111591303D01*
X132989504Y-111614507D01*
X132981446Y-111637029D01*
X132971218Y-111658653D01*
X132958921Y-111679170D01*
X132944671Y-111698383D01*
X132928607Y-111716107D01*
X132910883Y-111732171D01*
X132891670Y-111746421D01*
X132871153Y-111758718D01*
X132849529Y-111768946D01*
X132827007Y-111777004D01*
X132803803Y-111782816D01*
X132780142Y-111786326D01*
X132756250Y-111787500D01*
X131843750Y-111787500D01*
X131819858Y-111786326D01*
X131796197Y-111782816D01*
X131772993Y-111777004D01*
X131750471Y-111768946D01*
X131728847Y-111758718D01*
X131708330Y-111746421D01*
X131689117Y-111732171D01*
X131671393Y-111716107D01*
X131655329Y-111698383D01*
X131641079Y-111679170D01*
X131628782Y-111658653D01*
X131618554Y-111637029D01*
X131610496Y-111614507D01*
X131604684Y-111591303D01*
X131601174Y-111567642D01*
X131600000Y-111543750D01*
X131600000Y-111056250D01*
X131601174Y-111032358D01*
X131604684Y-111008697D01*
X131610496Y-110985493D01*
X131618554Y-110962971D01*
X131628782Y-110941347D01*
X131641079Y-110920830D01*
X131655329Y-110901617D01*
X131671393Y-110883893D01*
X131689117Y-110867829D01*
X131708330Y-110853579D01*
X131728847Y-110841282D01*
X131750471Y-110831054D01*
X131772993Y-110822996D01*
X131796197Y-110817184D01*
X131819858Y-110813674D01*
X131843750Y-110812500D01*
X132756250Y-110812500D01*
X132780142Y-110813674D01*
X132780142Y-110813674D01*
G37*
D12*
X132300000Y-111300000D03*
D11*
G36*
X132780142Y-108938674D02*
X132803803Y-108942184D01*
X132827007Y-108947996D01*
X132849529Y-108956054D01*
X132871153Y-108966282D01*
X132891670Y-108978579D01*
X132910883Y-108992829D01*
X132928607Y-109008893D01*
X132944671Y-109026617D01*
X132958921Y-109045830D01*
X132971218Y-109066347D01*
X132981446Y-109087971D01*
X132989504Y-109110493D01*
X132995316Y-109133697D01*
X132998826Y-109157358D01*
X133000000Y-109181250D01*
X133000000Y-109668750D01*
X132998826Y-109692642D01*
X132995316Y-109716303D01*
X132989504Y-109739507D01*
X132981446Y-109762029D01*
X132971218Y-109783653D01*
X132958921Y-109804170D01*
X132944671Y-109823383D01*
X132928607Y-109841107D01*
X132910883Y-109857171D01*
X132891670Y-109871421D01*
X132871153Y-109883718D01*
X132849529Y-109893946D01*
X132827007Y-109902004D01*
X132803803Y-109907816D01*
X132780142Y-109911326D01*
X132756250Y-109912500D01*
X131843750Y-109912500D01*
X131819858Y-109911326D01*
X131796197Y-109907816D01*
X131772993Y-109902004D01*
X131750471Y-109893946D01*
X131728847Y-109883718D01*
X131708330Y-109871421D01*
X131689117Y-109857171D01*
X131671393Y-109841107D01*
X131655329Y-109823383D01*
X131641079Y-109804170D01*
X131628782Y-109783653D01*
X131618554Y-109762029D01*
X131610496Y-109739507D01*
X131604684Y-109716303D01*
X131601174Y-109692642D01*
X131600000Y-109668750D01*
X131600000Y-109181250D01*
X131601174Y-109157358D01*
X131604684Y-109133697D01*
X131610496Y-109110493D01*
X131618554Y-109087971D01*
X131628782Y-109066347D01*
X131641079Y-109045830D01*
X131655329Y-109026617D01*
X131671393Y-109008893D01*
X131689117Y-108992829D01*
X131708330Y-108978579D01*
X131728847Y-108966282D01*
X131750471Y-108956054D01*
X131772993Y-108947996D01*
X131796197Y-108942184D01*
X131819858Y-108938674D01*
X131843750Y-108937500D01*
X132756250Y-108937500D01*
X132780142Y-108938674D01*
X132780142Y-108938674D01*
G37*
D12*
X132300000Y-109425000D03*
G04 #@! TD*
D11*
G04 #@! TO.C,R4*
G36*
X135142642Y-101051174D02*
X135166303Y-101054684D01*
X135189507Y-101060496D01*
X135212029Y-101068554D01*
X135233653Y-101078782D01*
X135254170Y-101091079D01*
X135273383Y-101105329D01*
X135291107Y-101121393D01*
X135307171Y-101139117D01*
X135321421Y-101158330D01*
X135333718Y-101178847D01*
X135343946Y-101200471D01*
X135352004Y-101222993D01*
X135357816Y-101246197D01*
X135361326Y-101269858D01*
X135362500Y-101293750D01*
X135362500Y-102206250D01*
X135361326Y-102230142D01*
X135357816Y-102253803D01*
X135352004Y-102277007D01*
X135343946Y-102299529D01*
X135333718Y-102321153D01*
X135321421Y-102341670D01*
X135307171Y-102360883D01*
X135291107Y-102378607D01*
X135273383Y-102394671D01*
X135254170Y-102408921D01*
X135233653Y-102421218D01*
X135212029Y-102431446D01*
X135189507Y-102439504D01*
X135166303Y-102445316D01*
X135142642Y-102448826D01*
X135118750Y-102450000D01*
X134631250Y-102450000D01*
X134607358Y-102448826D01*
X134583697Y-102445316D01*
X134560493Y-102439504D01*
X134537971Y-102431446D01*
X134516347Y-102421218D01*
X134495830Y-102408921D01*
X134476617Y-102394671D01*
X134458893Y-102378607D01*
X134442829Y-102360883D01*
X134428579Y-102341670D01*
X134416282Y-102321153D01*
X134406054Y-102299529D01*
X134397996Y-102277007D01*
X134392184Y-102253803D01*
X134388674Y-102230142D01*
X134387500Y-102206250D01*
X134387500Y-101293750D01*
X134388674Y-101269858D01*
X134392184Y-101246197D01*
X134397996Y-101222993D01*
X134406054Y-101200471D01*
X134416282Y-101178847D01*
X134428579Y-101158330D01*
X134442829Y-101139117D01*
X134458893Y-101121393D01*
X134476617Y-101105329D01*
X134495830Y-101091079D01*
X134516347Y-101078782D01*
X134537971Y-101068554D01*
X134560493Y-101060496D01*
X134583697Y-101054684D01*
X134607358Y-101051174D01*
X134631250Y-101050000D01*
X135118750Y-101050000D01*
X135142642Y-101051174D01*
X135142642Y-101051174D01*
G37*
D12*
X134875000Y-101750000D03*
D11*
G36*
X137017642Y-101051174D02*
X137041303Y-101054684D01*
X137064507Y-101060496D01*
X137087029Y-101068554D01*
X137108653Y-101078782D01*
X137129170Y-101091079D01*
X137148383Y-101105329D01*
X137166107Y-101121393D01*
X137182171Y-101139117D01*
X137196421Y-101158330D01*
X137208718Y-101178847D01*
X137218946Y-101200471D01*
X137227004Y-101222993D01*
X137232816Y-101246197D01*
X137236326Y-101269858D01*
X137237500Y-101293750D01*
X137237500Y-102206250D01*
X137236326Y-102230142D01*
X137232816Y-102253803D01*
X137227004Y-102277007D01*
X137218946Y-102299529D01*
X137208718Y-102321153D01*
X137196421Y-102341670D01*
X137182171Y-102360883D01*
X137166107Y-102378607D01*
X137148383Y-102394671D01*
X137129170Y-102408921D01*
X137108653Y-102421218D01*
X137087029Y-102431446D01*
X137064507Y-102439504D01*
X137041303Y-102445316D01*
X137017642Y-102448826D01*
X136993750Y-102450000D01*
X136506250Y-102450000D01*
X136482358Y-102448826D01*
X136458697Y-102445316D01*
X136435493Y-102439504D01*
X136412971Y-102431446D01*
X136391347Y-102421218D01*
X136370830Y-102408921D01*
X136351617Y-102394671D01*
X136333893Y-102378607D01*
X136317829Y-102360883D01*
X136303579Y-102341670D01*
X136291282Y-102321153D01*
X136281054Y-102299529D01*
X136272996Y-102277007D01*
X136267184Y-102253803D01*
X136263674Y-102230142D01*
X136262500Y-102206250D01*
X136262500Y-101293750D01*
X136263674Y-101269858D01*
X136267184Y-101246197D01*
X136272996Y-101222993D01*
X136281054Y-101200471D01*
X136291282Y-101178847D01*
X136303579Y-101158330D01*
X136317829Y-101139117D01*
X136333893Y-101121393D01*
X136351617Y-101105329D01*
X136370830Y-101091079D01*
X136391347Y-101078782D01*
X136412971Y-101068554D01*
X136435493Y-101060496D01*
X136458697Y-101054684D01*
X136482358Y-101051174D01*
X136506250Y-101050000D01*
X136993750Y-101050000D01*
X137017642Y-101051174D01*
X137017642Y-101051174D01*
G37*
D12*
X136750000Y-101750000D03*
G04 #@! TD*
D11*
G04 #@! TO.C,R5*
G36*
X152917642Y-119701174D02*
X152941303Y-119704684D01*
X152964507Y-119710496D01*
X152987029Y-119718554D01*
X153008653Y-119728782D01*
X153029170Y-119741079D01*
X153048383Y-119755329D01*
X153066107Y-119771393D01*
X153082171Y-119789117D01*
X153096421Y-119808330D01*
X153108718Y-119828847D01*
X153118946Y-119850471D01*
X153127004Y-119872993D01*
X153132816Y-119896197D01*
X153136326Y-119919858D01*
X153137500Y-119943750D01*
X153137500Y-120431250D01*
X153136326Y-120455142D01*
X153132816Y-120478803D01*
X153127004Y-120502007D01*
X153118946Y-120524529D01*
X153108718Y-120546153D01*
X153096421Y-120566670D01*
X153082171Y-120585883D01*
X153066107Y-120603607D01*
X153048383Y-120619671D01*
X153029170Y-120633921D01*
X153008653Y-120646218D01*
X152987029Y-120656446D01*
X152964507Y-120664504D01*
X152941303Y-120670316D01*
X152917642Y-120673826D01*
X152893750Y-120675000D01*
X151981250Y-120675000D01*
X151957358Y-120673826D01*
X151933697Y-120670316D01*
X151910493Y-120664504D01*
X151887971Y-120656446D01*
X151866347Y-120646218D01*
X151845830Y-120633921D01*
X151826617Y-120619671D01*
X151808893Y-120603607D01*
X151792829Y-120585883D01*
X151778579Y-120566670D01*
X151766282Y-120546153D01*
X151756054Y-120524529D01*
X151747996Y-120502007D01*
X151742184Y-120478803D01*
X151738674Y-120455142D01*
X151737500Y-120431250D01*
X151737500Y-119943750D01*
X151738674Y-119919858D01*
X151742184Y-119896197D01*
X151747996Y-119872993D01*
X151756054Y-119850471D01*
X151766282Y-119828847D01*
X151778579Y-119808330D01*
X151792829Y-119789117D01*
X151808893Y-119771393D01*
X151826617Y-119755329D01*
X151845830Y-119741079D01*
X151866347Y-119728782D01*
X151887971Y-119718554D01*
X151910493Y-119710496D01*
X151933697Y-119704684D01*
X151957358Y-119701174D01*
X151981250Y-119700000D01*
X152893750Y-119700000D01*
X152917642Y-119701174D01*
X152917642Y-119701174D01*
G37*
D12*
X152437500Y-120187500D03*
D11*
G36*
X152917642Y-117826174D02*
X152941303Y-117829684D01*
X152964507Y-117835496D01*
X152987029Y-117843554D01*
X153008653Y-117853782D01*
X153029170Y-117866079D01*
X153048383Y-117880329D01*
X153066107Y-117896393D01*
X153082171Y-117914117D01*
X153096421Y-117933330D01*
X153108718Y-117953847D01*
X153118946Y-117975471D01*
X153127004Y-117997993D01*
X153132816Y-118021197D01*
X153136326Y-118044858D01*
X153137500Y-118068750D01*
X153137500Y-118556250D01*
X153136326Y-118580142D01*
X153132816Y-118603803D01*
X153127004Y-118627007D01*
X153118946Y-118649529D01*
X153108718Y-118671153D01*
X153096421Y-118691670D01*
X153082171Y-118710883D01*
X153066107Y-118728607D01*
X153048383Y-118744671D01*
X153029170Y-118758921D01*
X153008653Y-118771218D01*
X152987029Y-118781446D01*
X152964507Y-118789504D01*
X152941303Y-118795316D01*
X152917642Y-118798826D01*
X152893750Y-118800000D01*
X151981250Y-118800000D01*
X151957358Y-118798826D01*
X151933697Y-118795316D01*
X151910493Y-118789504D01*
X151887971Y-118781446D01*
X151866347Y-118771218D01*
X151845830Y-118758921D01*
X151826617Y-118744671D01*
X151808893Y-118728607D01*
X151792829Y-118710883D01*
X151778579Y-118691670D01*
X151766282Y-118671153D01*
X151756054Y-118649529D01*
X151747996Y-118627007D01*
X151742184Y-118603803D01*
X151738674Y-118580142D01*
X151737500Y-118556250D01*
X151737500Y-118068750D01*
X151738674Y-118044858D01*
X151742184Y-118021197D01*
X151747996Y-117997993D01*
X151756054Y-117975471D01*
X151766282Y-117953847D01*
X151778579Y-117933330D01*
X151792829Y-117914117D01*
X151808893Y-117896393D01*
X151826617Y-117880329D01*
X151845830Y-117866079D01*
X151866347Y-117853782D01*
X151887971Y-117843554D01*
X151910493Y-117835496D01*
X151933697Y-117829684D01*
X151957358Y-117826174D01*
X151981250Y-117825000D01*
X152893750Y-117825000D01*
X152917642Y-117826174D01*
X152917642Y-117826174D01*
G37*
D12*
X152437500Y-118312500D03*
G04 #@! TD*
D13*
G04 #@! TO.C,U3*
X148000000Y-130000000D03*
X148000000Y-128000000D03*
X148000000Y-126000000D03*
X148000000Y-124000000D03*
X148000000Y-122000000D03*
X148000000Y-120000000D03*
X148000000Y-118000000D03*
X148000000Y-116000000D03*
D14*
X145000000Y-114500000D03*
X143000000Y-114500000D03*
X141000000Y-114500000D03*
X139000000Y-114500000D03*
X137000000Y-114500000D03*
X135000000Y-114500000D03*
D13*
X132000000Y-116000000D03*
X132000000Y-118000000D03*
X132000000Y-120000000D03*
X132000000Y-122000000D03*
X132000000Y-124000000D03*
X132000000Y-126000000D03*
X132000000Y-128000000D03*
X132000000Y-130000000D03*
G04 #@! TD*
D15*
G04 #@! TO.C,U1*
X147050000Y-96950000D03*
D16*
X147050000Y-103250000D03*
X149350000Y-103250000D03*
X144750000Y-103250000D03*
G04 #@! TD*
M02*
