G04 #@! TF.GenerationSoftware,KiCad,Pcbnew,(5.0.2)-1*
G04 #@! TF.CreationDate,2020-03-26T14:30:10-07:00*
G04 #@! TF.ProjectId,RetroWIFI,52657472-6f57-4494-9649-2e6b69636164,rev?*
G04 #@! TF.SameCoordinates,Original*
G04 #@! TF.FileFunction,Legend,Bot*
G04 #@! TF.FilePolarity,Positive*
%FSLAX46Y46*%
G04 Gerber Fmt 4.6, Leading zero omitted, Abs format (unit mm)*
G04 Created by KiCad (PCBNEW (5.0.2)-1) date 3/26/2020 2:30:10 PM*
%MOMM*%
%LPD*%
G01*
G04 APERTURE LIST*
%ADD10C,0.200000*%
%ADD11C,0.300000*%
%ADD12C,0.120000*%
%ADD13C,0.150000*%
G04 APERTURE END LIST*
D10*
X154128571Y-117257142D02*
X154176190Y-117304761D01*
X154319047Y-117352380D01*
X154414285Y-117352380D01*
X154557142Y-117304761D01*
X154652380Y-117209523D01*
X154700000Y-117114285D01*
X154747619Y-116923809D01*
X154747619Y-116780952D01*
X154700000Y-116590476D01*
X154652380Y-116495238D01*
X154557142Y-116400000D01*
X154414285Y-116352380D01*
X154319047Y-116352380D01*
X154176190Y-116400000D01*
X154128571Y-116447619D01*
X153842857Y-116352380D02*
X153271428Y-116352380D01*
X153557142Y-117352380D02*
X153557142Y-116352380D01*
X152985714Y-117304761D02*
X152842857Y-117352380D01*
X152604761Y-117352380D01*
X152509523Y-117304761D01*
X152461904Y-117257142D01*
X152414285Y-117161904D01*
X152414285Y-117066666D01*
X152461904Y-116971428D01*
X152509523Y-116923809D01*
X152604761Y-116876190D01*
X152795238Y-116828571D01*
X152890476Y-116780952D01*
X152938095Y-116733333D01*
X152985714Y-116638095D01*
X152985714Y-116542857D01*
X152938095Y-116447619D01*
X152890476Y-116400000D01*
X152795238Y-116352380D01*
X152557142Y-116352380D01*
X152414285Y-116400000D01*
X151271428Y-116304761D02*
X152128571Y-117590476D01*
X150366666Y-117352380D02*
X150700000Y-116876190D01*
X150938095Y-117352380D02*
X150938095Y-116352380D01*
X150557142Y-116352380D01*
X150461904Y-116400000D01*
X150414285Y-116447619D01*
X150366666Y-116542857D01*
X150366666Y-116685714D01*
X150414285Y-116780952D01*
X150461904Y-116828571D01*
X150557142Y-116876190D01*
X150938095Y-116876190D01*
X150080952Y-116352380D02*
X149509523Y-116352380D01*
X149795238Y-117352380D02*
X149795238Y-116352380D01*
X149223809Y-117304761D02*
X149080952Y-117352380D01*
X148842857Y-117352380D01*
X148747619Y-117304761D01*
X148700000Y-117257142D01*
X148652380Y-117161904D01*
X148652380Y-117066666D01*
X148700000Y-116971428D01*
X148747619Y-116923809D01*
X148842857Y-116876190D01*
X149033333Y-116828571D01*
X149128571Y-116780952D01*
X149176190Y-116733333D01*
X149223809Y-116638095D01*
X149223809Y-116542857D01*
X149176190Y-116447619D01*
X149128571Y-116400000D01*
X149033333Y-116352380D01*
X148795238Y-116352380D01*
X148652380Y-116400000D01*
X152923809Y-125302380D02*
X152923809Y-124302380D01*
X152542857Y-124302380D01*
X152447619Y-124350000D01*
X152400000Y-124397619D01*
X152352380Y-124492857D01*
X152352380Y-124635714D01*
X152400000Y-124730952D01*
X152447619Y-124778571D01*
X152542857Y-124826190D01*
X152923809Y-124826190D01*
X151495238Y-125302380D02*
X151495238Y-124778571D01*
X151542857Y-124683333D01*
X151638095Y-124635714D01*
X151828571Y-124635714D01*
X151923809Y-124683333D01*
X151495238Y-125254761D02*
X151590476Y-125302380D01*
X151828571Y-125302380D01*
X151923809Y-125254761D01*
X151971428Y-125159523D01*
X151971428Y-125064285D01*
X151923809Y-124969047D01*
X151828571Y-124921428D01*
X151590476Y-124921428D01*
X151495238Y-124873809D01*
X151066666Y-125254761D02*
X150971428Y-125302380D01*
X150780952Y-125302380D01*
X150685714Y-125254761D01*
X150638095Y-125159523D01*
X150638095Y-125111904D01*
X150685714Y-125016666D01*
X150780952Y-124969047D01*
X150923809Y-124969047D01*
X151019047Y-124921428D01*
X151066666Y-124826190D01*
X151066666Y-124778571D01*
X151019047Y-124683333D01*
X150923809Y-124635714D01*
X150780952Y-124635714D01*
X150685714Y-124683333D01*
X150257142Y-125254761D02*
X150161904Y-125302380D01*
X149971428Y-125302380D01*
X149876190Y-125254761D01*
X149828571Y-125159523D01*
X149828571Y-125111904D01*
X149876190Y-125016666D01*
X149971428Y-124969047D01*
X150114285Y-124969047D01*
X150209523Y-124921428D01*
X150257142Y-124826190D01*
X150257142Y-124778571D01*
X150209523Y-124683333D01*
X150114285Y-124635714D01*
X149971428Y-124635714D01*
X149876190Y-124683333D01*
X152638095Y-127335714D02*
X152638095Y-125907142D01*
X150161904Y-127335714D02*
X150161904Y-125907142D01*
X152547619Y-119252380D02*
X153023809Y-119252380D01*
X153023809Y-118252380D01*
X152071428Y-119252380D02*
X152166666Y-119204761D01*
X152214285Y-119157142D01*
X152261904Y-119061904D01*
X152261904Y-118776190D01*
X152214285Y-118680952D01*
X152166666Y-118633333D01*
X152071428Y-118585714D01*
X151928571Y-118585714D01*
X151833333Y-118633333D01*
X151785714Y-118680952D01*
X151738095Y-118776190D01*
X151738095Y-119061904D01*
X151785714Y-119157142D01*
X151833333Y-119204761D01*
X151928571Y-119252380D01*
X152071428Y-119252380D01*
X151166666Y-119252380D02*
X151261904Y-119204761D01*
X151309523Y-119157142D01*
X151357142Y-119061904D01*
X151357142Y-118776190D01*
X151309523Y-118680952D01*
X151261904Y-118633333D01*
X151166666Y-118585714D01*
X151023809Y-118585714D01*
X150928571Y-118633333D01*
X150880952Y-118680952D01*
X150833333Y-118776190D01*
X150833333Y-119061904D01*
X150880952Y-119157142D01*
X150928571Y-119204761D01*
X151023809Y-119252380D01*
X151166666Y-119252380D01*
X150404761Y-118585714D02*
X150404761Y-119585714D01*
X150404761Y-118633333D02*
X150309523Y-118585714D01*
X150119047Y-118585714D01*
X150023809Y-118633333D01*
X149976190Y-118680952D01*
X149928571Y-118776190D01*
X149928571Y-119061904D01*
X149976190Y-119157142D01*
X150023809Y-119204761D01*
X150119047Y-119252380D01*
X150309523Y-119252380D01*
X150404761Y-119204761D01*
X153119047Y-120571428D02*
X152357142Y-120571428D01*
X151880952Y-120571428D02*
X151119047Y-120571428D01*
X150642857Y-120571428D02*
X149880952Y-120571428D01*
X153119047Y-122271428D02*
X152357142Y-122271428D01*
X151880952Y-122271428D02*
X151119047Y-122271428D01*
X150642857Y-122271428D02*
X149880952Y-122271428D01*
D11*
X139500000Y-97735714D02*
X139428571Y-97807142D01*
X139500000Y-97878571D01*
X139571428Y-97807142D01*
X139500000Y-97735714D01*
X139500000Y-97878571D01*
D10*
X132300000Y-123200000D02*
X132300000Y-121700000D01*
X134100000Y-123200000D02*
X132300000Y-123200000D01*
X134100000Y-121700000D02*
X134100000Y-123200000D01*
X132300000Y-121700000D02*
X134100000Y-121700000D01*
X146352380Y-116747619D02*
X145876190Y-116414285D01*
X146352380Y-116176190D02*
X145352380Y-116176190D01*
X145352380Y-116557142D01*
X145400000Y-116652380D01*
X145447619Y-116700000D01*
X145542857Y-116747619D01*
X145685714Y-116747619D01*
X145780952Y-116700000D01*
X145828571Y-116652380D01*
X145876190Y-116557142D01*
X145876190Y-116176190D01*
X145352380Y-117033333D02*
X145352380Y-117604761D01*
X146352380Y-117319047D02*
X145352380Y-117319047D01*
X146304761Y-117890476D02*
X146352380Y-118033333D01*
X146352380Y-118271428D01*
X146304761Y-118366666D01*
X146257142Y-118414285D01*
X146161904Y-118461904D01*
X146066666Y-118461904D01*
X145971428Y-118414285D01*
X145923809Y-118366666D01*
X145876190Y-118271428D01*
X145828571Y-118080952D01*
X145780952Y-117985714D01*
X145733333Y-117938095D01*
X145638095Y-117890476D01*
X145542857Y-117890476D01*
X145447619Y-117938095D01*
X145400000Y-117985714D01*
X145352380Y-118080952D01*
X145352380Y-118319047D01*
X145400000Y-118461904D01*
X146352380Y-120176190D02*
X146352380Y-119604761D01*
X146352380Y-119890476D02*
X145352380Y-119890476D01*
X145495238Y-119795238D01*
X145590476Y-119700000D01*
X145638095Y-119604761D01*
X145447619Y-120557142D02*
X145400000Y-120604761D01*
X145352380Y-120700000D01*
X145352380Y-120938095D01*
X145400000Y-121033333D01*
X145447619Y-121080952D01*
X145542857Y-121128571D01*
X145638095Y-121128571D01*
X145780952Y-121080952D01*
X146352380Y-120509523D01*
X146352380Y-121128571D01*
X146352380Y-122842857D02*
X146352380Y-122271428D01*
X146352380Y-122557142D02*
X145352380Y-122557142D01*
X145495238Y-122461904D01*
X145590476Y-122366666D01*
X145638095Y-122271428D01*
X146352380Y-123795238D02*
X146352380Y-123223809D01*
X146352380Y-123509523D02*
X145352380Y-123509523D01*
X145495238Y-123414285D01*
X145590476Y-123319047D01*
X145638095Y-123223809D01*
X146352380Y-125557142D02*
X145876190Y-125223809D01*
X146352380Y-124985714D02*
X145352380Y-124985714D01*
X145352380Y-125366666D01*
X145400000Y-125461904D01*
X145447619Y-125509523D01*
X145542857Y-125557142D01*
X145685714Y-125557142D01*
X145780952Y-125509523D01*
X145828571Y-125461904D01*
X145876190Y-125366666D01*
X145876190Y-124985714D01*
X145352380Y-125842857D02*
X145352380Y-126414285D01*
X146352380Y-126128571D02*
X145352380Y-126128571D01*
X146304761Y-126700000D02*
X146352380Y-126842857D01*
X146352380Y-127080952D01*
X146304761Y-127176190D01*
X146257142Y-127223809D01*
X146161904Y-127271428D01*
X146066666Y-127271428D01*
X145971428Y-127223809D01*
X145923809Y-127176190D01*
X145876190Y-127080952D01*
X145828571Y-126890476D01*
X145780952Y-126795238D01*
X145733333Y-126747619D01*
X145638095Y-126700000D01*
X145542857Y-126700000D01*
X145447619Y-126747619D01*
X145400000Y-126795238D01*
X145352380Y-126890476D01*
X145352380Y-127128571D01*
X145400000Y-127271428D01*
X143657142Y-116742857D02*
X143704761Y-116695238D01*
X143752380Y-116552380D01*
X143752380Y-116457142D01*
X143704761Y-116314285D01*
X143609523Y-116219047D01*
X143514285Y-116171428D01*
X143323809Y-116123809D01*
X143180952Y-116123809D01*
X142990476Y-116171428D01*
X142895238Y-116219047D01*
X142800000Y-116314285D01*
X142752380Y-116457142D01*
X142752380Y-116552380D01*
X142800000Y-116695238D01*
X142847619Y-116742857D01*
X142752380Y-117028571D02*
X142752380Y-117600000D01*
X143752380Y-117314285D02*
X142752380Y-117314285D01*
X143704761Y-117885714D02*
X143752380Y-118028571D01*
X143752380Y-118266666D01*
X143704761Y-118361904D01*
X143657142Y-118409523D01*
X143561904Y-118457142D01*
X143466666Y-118457142D01*
X143371428Y-118409523D01*
X143323809Y-118361904D01*
X143276190Y-118266666D01*
X143228571Y-118076190D01*
X143180952Y-117980952D01*
X143133333Y-117933333D01*
X143038095Y-117885714D01*
X142942857Y-117885714D01*
X142847619Y-117933333D01*
X142800000Y-117980952D01*
X142752380Y-118076190D01*
X142752380Y-118314285D01*
X142800000Y-118457142D01*
X143752380Y-120171428D02*
X143752380Y-119600000D01*
X143752380Y-119885714D02*
X142752380Y-119885714D01*
X142895238Y-119790476D01*
X142990476Y-119695238D01*
X143038095Y-119600000D01*
X142752380Y-120790476D02*
X142752380Y-120885714D01*
X142800000Y-120980952D01*
X142847619Y-121028571D01*
X142942857Y-121076190D01*
X143133333Y-121123809D01*
X143371428Y-121123809D01*
X143561904Y-121076190D01*
X143657142Y-121028571D01*
X143704761Y-120980952D01*
X143752380Y-120885714D01*
X143752380Y-120790476D01*
X143704761Y-120695238D01*
X143657142Y-120647619D01*
X143561904Y-120600000D01*
X143371428Y-120552380D01*
X143133333Y-120552380D01*
X142942857Y-120600000D01*
X142847619Y-120647619D01*
X142800000Y-120695238D01*
X142752380Y-120790476D01*
X143752380Y-122361904D02*
X143752380Y-122552380D01*
X143704761Y-122647619D01*
X143657142Y-122695238D01*
X143514285Y-122790476D01*
X143323809Y-122838095D01*
X142942857Y-122838095D01*
X142847619Y-122790476D01*
X142800000Y-122742857D01*
X142752380Y-122647619D01*
X142752380Y-122457142D01*
X142800000Y-122361904D01*
X142847619Y-122314285D01*
X142942857Y-122266666D01*
X143180952Y-122266666D01*
X143276190Y-122314285D01*
X143323809Y-122361904D01*
X143371428Y-122457142D01*
X143371428Y-122647619D01*
X143323809Y-122742857D01*
X143276190Y-122790476D01*
X143180952Y-122838095D01*
X143657142Y-125361904D02*
X143704761Y-125314285D01*
X143752380Y-125171428D01*
X143752380Y-125076190D01*
X143704761Y-124933333D01*
X143609523Y-124838095D01*
X143514285Y-124790476D01*
X143323809Y-124742857D01*
X143180952Y-124742857D01*
X142990476Y-124790476D01*
X142895238Y-124838095D01*
X142800000Y-124933333D01*
X142752380Y-125076190D01*
X142752380Y-125171428D01*
X142800000Y-125314285D01*
X142847619Y-125361904D01*
X142752380Y-125647619D02*
X142752380Y-126219047D01*
X143752380Y-125933333D02*
X142752380Y-125933333D01*
X143704761Y-126504761D02*
X143752380Y-126647619D01*
X143752380Y-126885714D01*
X143704761Y-126980952D01*
X143657142Y-127028571D01*
X143561904Y-127076190D01*
X143466666Y-127076190D01*
X143371428Y-127028571D01*
X143323809Y-126980952D01*
X143276190Y-126885714D01*
X143228571Y-126695238D01*
X143180952Y-126600000D01*
X143133333Y-126552380D01*
X143038095Y-126504761D01*
X142942857Y-126504761D01*
X142847619Y-126552380D01*
X142800000Y-126600000D01*
X142752380Y-126695238D01*
X142752380Y-126933333D01*
X142800000Y-127076190D01*
X141152380Y-118190476D02*
X140676190Y-117857142D01*
X141152380Y-117619047D02*
X140152380Y-117619047D01*
X140152380Y-118000000D01*
X140200000Y-118095238D01*
X140247619Y-118142857D01*
X140342857Y-118190476D01*
X140485714Y-118190476D01*
X140580952Y-118142857D01*
X140628571Y-118095238D01*
X140676190Y-118000000D01*
X140676190Y-117619047D01*
X141152380Y-118619047D02*
X140152380Y-118619047D01*
X140580952Y-120761904D02*
X140533333Y-120666666D01*
X140485714Y-120619047D01*
X140390476Y-120571428D01*
X140342857Y-120571428D01*
X140247619Y-120619047D01*
X140200000Y-120666666D01*
X140152380Y-120761904D01*
X140152380Y-120952380D01*
X140200000Y-121047619D01*
X140247619Y-121095238D01*
X140342857Y-121142857D01*
X140390476Y-121142857D01*
X140485714Y-121095238D01*
X140533333Y-121047619D01*
X140580952Y-120952380D01*
X140580952Y-120761904D01*
X140628571Y-120666666D01*
X140676190Y-120619047D01*
X140771428Y-120571428D01*
X140961904Y-120571428D01*
X141057142Y-120619047D01*
X141104761Y-120666666D01*
X141152380Y-120761904D01*
X141152380Y-120952380D01*
X141104761Y-121047619D01*
X141057142Y-121095238D01*
X140961904Y-121142857D01*
X140771428Y-121142857D01*
X140676190Y-121095238D01*
X140628571Y-121047619D01*
X140580952Y-120952380D01*
X140152380Y-122238095D02*
X140152380Y-122904761D01*
X141152380Y-122476190D01*
X140200000Y-125333333D02*
X140152380Y-125238095D01*
X140152380Y-125095238D01*
X140200000Y-124952380D01*
X140295238Y-124857142D01*
X140390476Y-124809523D01*
X140580952Y-124761904D01*
X140723809Y-124761904D01*
X140914285Y-124809523D01*
X141009523Y-124857142D01*
X141104761Y-124952380D01*
X141152380Y-125095238D01*
X141152380Y-125190476D01*
X141104761Y-125333333D01*
X141057142Y-125380952D01*
X140723809Y-125380952D01*
X140723809Y-125190476D01*
X141152380Y-125809523D02*
X140152380Y-125809523D01*
X141152380Y-126380952D01*
X140152380Y-126380952D01*
X141152380Y-126857142D02*
X140152380Y-126857142D01*
X140152380Y-127095238D01*
X140200000Y-127238095D01*
X140295238Y-127333333D01*
X140390476Y-127380952D01*
X140580952Y-127428571D01*
X140723809Y-127428571D01*
X140914285Y-127380952D01*
X141009523Y-127333333D01*
X141104761Y-127238095D01*
X141152380Y-127095238D01*
X141152380Y-126857142D01*
X138752380Y-116090476D02*
X137752380Y-116090476D01*
X137752380Y-116328571D01*
X137800000Y-116471428D01*
X137895238Y-116566666D01*
X137990476Y-116614285D01*
X138180952Y-116661904D01*
X138323809Y-116661904D01*
X138514285Y-116614285D01*
X138609523Y-116566666D01*
X138704761Y-116471428D01*
X138752380Y-116328571D01*
X138752380Y-116090476D01*
X138657142Y-117661904D02*
X138704761Y-117614285D01*
X138752380Y-117471428D01*
X138752380Y-117376190D01*
X138704761Y-117233333D01*
X138609523Y-117138095D01*
X138514285Y-117090476D01*
X138323809Y-117042857D01*
X138180952Y-117042857D01*
X137990476Y-117090476D01*
X137895238Y-117138095D01*
X137800000Y-117233333D01*
X137752380Y-117376190D01*
X137752380Y-117471428D01*
X137800000Y-117614285D01*
X137847619Y-117661904D01*
X138752380Y-118090476D02*
X137752380Y-118090476D01*
X137752380Y-118328571D01*
X137800000Y-118471428D01*
X137895238Y-118566666D01*
X137990476Y-118614285D01*
X138180952Y-118661904D01*
X138323809Y-118661904D01*
X138514285Y-118614285D01*
X138609523Y-118566666D01*
X138704761Y-118471428D01*
X138752380Y-118328571D01*
X138752380Y-118090476D01*
X137752380Y-121042857D02*
X137752380Y-120852380D01*
X137800000Y-120757142D01*
X137847619Y-120709523D01*
X137990476Y-120614285D01*
X138180952Y-120566666D01*
X138561904Y-120566666D01*
X138657142Y-120614285D01*
X138704761Y-120661904D01*
X138752380Y-120757142D01*
X138752380Y-120947619D01*
X138704761Y-121042857D01*
X138657142Y-121090476D01*
X138561904Y-121138095D01*
X138323809Y-121138095D01*
X138228571Y-121090476D01*
X138180952Y-121042857D01*
X138133333Y-120947619D01*
X138133333Y-120757142D01*
X138180952Y-120661904D01*
X138228571Y-120614285D01*
X138323809Y-120566666D01*
X137752380Y-122804761D02*
X137752380Y-122328571D01*
X138228571Y-122280952D01*
X138180952Y-122328571D01*
X138133333Y-122423809D01*
X138133333Y-122661904D01*
X138180952Y-122757142D01*
X138228571Y-122804761D01*
X138323809Y-122852380D01*
X138561904Y-122852380D01*
X138657142Y-122804761D01*
X138704761Y-122757142D01*
X138752380Y-122661904D01*
X138752380Y-122423809D01*
X138704761Y-122328571D01*
X138657142Y-122280952D01*
X137752380Y-124709523D02*
X137752380Y-125328571D01*
X138133333Y-124995238D01*
X138133333Y-125138095D01*
X138180952Y-125233333D01*
X138228571Y-125280952D01*
X138323809Y-125328571D01*
X138561904Y-125328571D01*
X138657142Y-125280952D01*
X138704761Y-125233333D01*
X138752380Y-125138095D01*
X138752380Y-124852380D01*
X138704761Y-124757142D01*
X138657142Y-124709523D01*
X138657142Y-125757142D02*
X138704761Y-125804761D01*
X138752380Y-125757142D01*
X138704761Y-125709523D01*
X138657142Y-125757142D01*
X138752380Y-125757142D01*
X137752380Y-126138095D02*
X137752380Y-126757142D01*
X138133333Y-126423809D01*
X138133333Y-126566666D01*
X138180952Y-126661904D01*
X138228571Y-126709523D01*
X138323809Y-126757142D01*
X138561904Y-126757142D01*
X138657142Y-126709523D01*
X138704761Y-126661904D01*
X138752380Y-126566666D01*
X138752380Y-126280952D01*
X138704761Y-126185714D01*
X138657142Y-126138095D01*
X136152380Y-116128571D02*
X135152380Y-116128571D01*
X135152380Y-116366666D01*
X135200000Y-116509523D01*
X135295238Y-116604761D01*
X135390476Y-116652380D01*
X135580952Y-116700000D01*
X135723809Y-116700000D01*
X135914285Y-116652380D01*
X136009523Y-116604761D01*
X136104761Y-116509523D01*
X136152380Y-116366666D01*
X136152380Y-116128571D01*
X136104761Y-117080952D02*
X136152380Y-117223809D01*
X136152380Y-117461904D01*
X136104761Y-117557142D01*
X136057142Y-117604761D01*
X135961904Y-117652380D01*
X135866666Y-117652380D01*
X135771428Y-117604761D01*
X135723809Y-117557142D01*
X135676190Y-117461904D01*
X135628571Y-117271428D01*
X135580952Y-117176190D01*
X135533333Y-117128571D01*
X135438095Y-117080952D01*
X135342857Y-117080952D01*
X135247619Y-117128571D01*
X135200000Y-117176190D01*
X135152380Y-117271428D01*
X135152380Y-117509523D01*
X135200000Y-117652380D01*
X136152380Y-118652380D02*
X135676190Y-118319047D01*
X136152380Y-118080952D02*
X135152380Y-118080952D01*
X135152380Y-118461904D01*
X135200000Y-118557142D01*
X135247619Y-118604761D01*
X135342857Y-118652380D01*
X135485714Y-118652380D01*
X135580952Y-118604761D01*
X135628571Y-118557142D01*
X135676190Y-118461904D01*
X135676190Y-118080952D01*
X135485714Y-121033333D02*
X136152380Y-121033333D01*
X135104761Y-120795238D02*
X135819047Y-120557142D01*
X135819047Y-121176190D01*
X135152380Y-122223809D02*
X135152380Y-122842857D01*
X135533333Y-122509523D01*
X135533333Y-122652380D01*
X135580952Y-122747619D01*
X135628571Y-122795238D01*
X135723809Y-122842857D01*
X135961904Y-122842857D01*
X136057142Y-122795238D01*
X136104761Y-122747619D01*
X136152380Y-122652380D01*
X136152380Y-122366666D01*
X136104761Y-122271428D01*
X136057142Y-122223809D01*
X136152380Y-125366666D02*
X135676190Y-125033333D01*
X136152380Y-124795238D02*
X135152380Y-124795238D01*
X135152380Y-125176190D01*
X135200000Y-125271428D01*
X135247619Y-125319047D01*
X135342857Y-125366666D01*
X135485714Y-125366666D01*
X135580952Y-125319047D01*
X135628571Y-125271428D01*
X135676190Y-125176190D01*
X135676190Y-124795238D01*
X135152380Y-125700000D02*
X136152380Y-126366666D01*
X135152380Y-126366666D02*
X136152380Y-125700000D01*
X133652380Y-116242857D02*
X132652380Y-116242857D01*
X132652380Y-116480952D01*
X132700000Y-116623809D01*
X132795238Y-116719047D01*
X132890476Y-116766666D01*
X133080952Y-116814285D01*
X133223809Y-116814285D01*
X133414285Y-116766666D01*
X133509523Y-116719047D01*
X133604761Y-116623809D01*
X133652380Y-116480952D01*
X133652380Y-116242857D01*
X132652380Y-117100000D02*
X132652380Y-117671428D01*
X133652380Y-117385714D02*
X132652380Y-117385714D01*
X133652380Y-118576190D02*
X133176190Y-118242857D01*
X133652380Y-118004761D02*
X132652380Y-118004761D01*
X132652380Y-118385714D01*
X132700000Y-118480952D01*
X132747619Y-118528571D01*
X132842857Y-118576190D01*
X132985714Y-118576190D01*
X133080952Y-118528571D01*
X133128571Y-118480952D01*
X133176190Y-118385714D01*
X133176190Y-118004761D01*
X132747619Y-120480952D02*
X132700000Y-120528571D01*
X132652380Y-120623809D01*
X132652380Y-120861904D01*
X132700000Y-120957142D01*
X132747619Y-121004761D01*
X132842857Y-121052380D01*
X132938095Y-121052380D01*
X133080952Y-121004761D01*
X133652380Y-120433333D01*
X133652380Y-121052380D01*
X133652380Y-122766666D02*
X133652380Y-122195238D01*
X133652380Y-122480952D02*
X132652380Y-122480952D01*
X132795238Y-122385714D01*
X132890476Y-122290476D01*
X132938095Y-122195238D01*
X132652380Y-124576190D02*
X132652380Y-125147619D01*
X133652380Y-124861904D02*
X132652380Y-124861904D01*
X132652380Y-125385714D02*
X133652380Y-126052380D01*
X132652380Y-126052380D02*
X133652380Y-125385714D01*
D11*
X150392857Y-134103571D02*
X150892857Y-133389285D01*
X151250000Y-134103571D02*
X151250000Y-132603571D01*
X150678571Y-132603571D01*
X150535714Y-132675000D01*
X150464285Y-132746428D01*
X150392857Y-132889285D01*
X150392857Y-133103571D01*
X150464285Y-133246428D01*
X150535714Y-133317857D01*
X150678571Y-133389285D01*
X151250000Y-133389285D01*
X149178571Y-134032142D02*
X149321428Y-134103571D01*
X149607142Y-134103571D01*
X149750000Y-134032142D01*
X149821428Y-133889285D01*
X149821428Y-133317857D01*
X149750000Y-133175000D01*
X149607142Y-133103571D01*
X149321428Y-133103571D01*
X149178571Y-133175000D01*
X149107142Y-133317857D01*
X149107142Y-133460714D01*
X149821428Y-133603571D01*
X148678571Y-133103571D02*
X148107142Y-133103571D01*
X148464285Y-132603571D02*
X148464285Y-133889285D01*
X148392857Y-134032142D01*
X148250000Y-134103571D01*
X148107142Y-134103571D01*
X147607142Y-134103571D02*
X147607142Y-133103571D01*
X147607142Y-133389285D02*
X147535714Y-133246428D01*
X147464285Y-133175000D01*
X147321428Y-133103571D01*
X147178571Y-133103571D01*
X146464285Y-134103571D02*
X146607142Y-134032142D01*
X146678571Y-133960714D01*
X146750000Y-133817857D01*
X146750000Y-133389285D01*
X146678571Y-133246428D01*
X146607142Y-133175000D01*
X146464285Y-133103571D01*
X146250000Y-133103571D01*
X146107142Y-133175000D01*
X146035714Y-133246428D01*
X145964285Y-133389285D01*
X145964285Y-133817857D01*
X146035714Y-133960714D01*
X146107142Y-134032142D01*
X146250000Y-134103571D01*
X146464285Y-134103571D01*
X145464285Y-132603571D02*
X145107142Y-134103571D01*
X144821428Y-133032142D01*
X144535714Y-134103571D01*
X144178571Y-132603571D01*
X143607142Y-134103571D02*
X143607142Y-132603571D01*
X142392857Y-133317857D02*
X142892857Y-133317857D01*
X142892857Y-134103571D02*
X142892857Y-132603571D01*
X142178571Y-132603571D01*
X141607142Y-134103571D02*
X141607142Y-132603571D01*
X139892857Y-133103571D02*
X139535714Y-134103571D01*
X139178571Y-133103571D01*
X137821428Y-134103571D02*
X138678571Y-134103571D01*
X138250000Y-134103571D02*
X138250000Y-132603571D01*
X138392857Y-132817857D01*
X138535714Y-132960714D01*
X138678571Y-133032142D01*
X137178571Y-133960714D02*
X137107142Y-134032142D01*
X137178571Y-134103571D01*
X137250000Y-134032142D01*
X137178571Y-133960714D01*
X137178571Y-134103571D01*
X136178571Y-132603571D02*
X136035714Y-132603571D01*
X135892857Y-132675000D01*
X135821428Y-132746428D01*
X135750000Y-132889285D01*
X135678571Y-133175000D01*
X135678571Y-133532142D01*
X135750000Y-133817857D01*
X135821428Y-133960714D01*
X135892857Y-134032142D01*
X136035714Y-134103571D01*
X136178571Y-134103571D01*
X136321428Y-134032142D01*
X136392857Y-133960714D01*
X136464285Y-133817857D01*
X136535714Y-133532142D01*
X136535714Y-133175000D01*
X136464285Y-132889285D01*
X136392857Y-132746428D01*
X136321428Y-132675000D01*
X136178571Y-132603571D01*
X152142857Y-136225000D02*
X151428571Y-136225000D01*
X152285714Y-136653571D02*
X151785714Y-135153571D01*
X151285714Y-136653571D01*
X150142857Y-136653571D02*
X150142857Y-135867857D01*
X150214285Y-135725000D01*
X150357142Y-135653571D01*
X150642857Y-135653571D01*
X150785714Y-135725000D01*
X150142857Y-136582142D02*
X150285714Y-136653571D01*
X150642857Y-136653571D01*
X150785714Y-136582142D01*
X150857142Y-136439285D01*
X150857142Y-136296428D01*
X150785714Y-136153571D01*
X150642857Y-136082142D01*
X150285714Y-136082142D01*
X150142857Y-136010714D01*
X149428571Y-136653571D02*
X149428571Y-135653571D01*
X149428571Y-135939285D02*
X149357142Y-135796428D01*
X149285714Y-135725000D01*
X149142857Y-135653571D01*
X149000000Y-135653571D01*
X148285714Y-136653571D02*
X148428571Y-136582142D01*
X148500000Y-136510714D01*
X148571428Y-136367857D01*
X148571428Y-135939285D01*
X148500000Y-135796428D01*
X148428571Y-135725000D01*
X148285714Y-135653571D01*
X148071428Y-135653571D01*
X147928571Y-135725000D01*
X147857142Y-135796428D01*
X147785714Y-135939285D01*
X147785714Y-136367857D01*
X147857142Y-136510714D01*
X147928571Y-136582142D01*
X148071428Y-136653571D01*
X148285714Y-136653571D01*
X147142857Y-135653571D02*
X147142857Y-136653571D01*
X147142857Y-135796428D02*
X147071428Y-135725000D01*
X146928571Y-135653571D01*
X146714285Y-135653571D01*
X146571428Y-135725000D01*
X146500000Y-135867857D01*
X146500000Y-136653571D01*
X144642857Y-136653571D02*
X144642857Y-135153571D01*
X143785714Y-136653571D01*
X143785714Y-135153571D01*
X142500000Y-136582142D02*
X142642857Y-136653571D01*
X142928571Y-136653571D01*
X143071428Y-136582142D01*
X143142857Y-136439285D01*
X143142857Y-135867857D01*
X143071428Y-135725000D01*
X142928571Y-135653571D01*
X142642857Y-135653571D01*
X142500000Y-135725000D01*
X142428571Y-135867857D01*
X142428571Y-136010714D01*
X143142857Y-136153571D01*
X141928571Y-135653571D02*
X141642857Y-136653571D01*
X141357142Y-135939285D01*
X141071428Y-136653571D01*
X140785714Y-135653571D01*
X139571428Y-136582142D02*
X139714285Y-136653571D01*
X140000000Y-136653571D01*
X140142857Y-136582142D01*
X140214285Y-136510714D01*
X140285714Y-136367857D01*
X140285714Y-135939285D01*
X140214285Y-135796428D01*
X140142857Y-135725000D01*
X140000000Y-135653571D01*
X139714285Y-135653571D01*
X139571428Y-135725000D01*
X138714285Y-136653571D02*
X138857142Y-136582142D01*
X138928571Y-136510714D01*
X139000000Y-136367857D01*
X139000000Y-135939285D01*
X138928571Y-135796428D01*
X138857142Y-135725000D01*
X138714285Y-135653571D01*
X138500000Y-135653571D01*
X138357142Y-135725000D01*
X138285714Y-135796428D01*
X138214285Y-135939285D01*
X138214285Y-136367857D01*
X138285714Y-136510714D01*
X138357142Y-136582142D01*
X138500000Y-136653571D01*
X138714285Y-136653571D01*
X137571428Y-136653571D02*
X137571428Y-135653571D01*
X137571428Y-135796428D02*
X137500000Y-135725000D01*
X137357142Y-135653571D01*
X137142857Y-135653571D01*
X137000000Y-135725000D01*
X136928571Y-135867857D01*
X136928571Y-136653571D01*
X136928571Y-135867857D02*
X136857142Y-135725000D01*
X136714285Y-135653571D01*
X136500000Y-135653571D01*
X136357142Y-135725000D01*
X136285714Y-135867857D01*
X136285714Y-136653571D01*
X135571428Y-136653571D02*
X135571428Y-135153571D01*
X135571428Y-135725000D02*
X135428571Y-135653571D01*
X135142857Y-135653571D01*
X135000000Y-135725000D01*
X134928571Y-135796428D01*
X134857142Y-135939285D01*
X134857142Y-136367857D01*
X134928571Y-136510714D01*
X135000000Y-136582142D01*
X135142857Y-136653571D01*
X135428571Y-136653571D01*
X135571428Y-136582142D01*
D12*
G04 #@! TO.C,C3*
X136790000Y-100178922D02*
X136790000Y-100696078D01*
X138210000Y-100178922D02*
X138210000Y-100696078D01*
G04 #@! TO.C,C4*
X141178922Y-95710000D02*
X141696078Y-95710000D01*
X141178922Y-94290000D02*
X141696078Y-94290000D01*
G04 #@! TO.C,C5*
X145528922Y-94290000D02*
X146046078Y-94290000D01*
X145528922Y-95710000D02*
X146046078Y-95710000D01*
G04 #@! TO.C,C6*
X138210000Y-96321078D02*
X138210000Y-95803922D01*
X136790000Y-96321078D02*
X136790000Y-95803922D01*
G04 #@! TO.C,C7*
X152390000Y-99908578D02*
X152390000Y-99391422D01*
X153810000Y-99908578D02*
X153810000Y-99391422D01*
D13*
G04 #@! TO.C,U2*
X140020000Y-98537500D02*
X140045000Y-98537500D01*
X140020000Y-102687500D02*
X140125000Y-102687500D01*
X150170000Y-102687500D02*
X150065000Y-102687500D01*
X150170000Y-98537500D02*
X150065000Y-98537500D01*
X140020000Y-98537500D02*
X140020000Y-102687500D01*
X150170000Y-98537500D02*
X150170000Y-102687500D01*
X140045000Y-98537500D02*
X140045000Y-97162500D01*
G04 #@! TO.C,C3*
X136207142Y-100270833D02*
X136254761Y-100223214D01*
X136302380Y-100080357D01*
X136302380Y-99985119D01*
X136254761Y-99842261D01*
X136159523Y-99747023D01*
X136064285Y-99699404D01*
X135873809Y-99651785D01*
X135730952Y-99651785D01*
X135540476Y-99699404D01*
X135445238Y-99747023D01*
X135350000Y-99842261D01*
X135302380Y-99985119D01*
X135302380Y-100080357D01*
X135350000Y-100223214D01*
X135397619Y-100270833D01*
X135302380Y-100604166D02*
X135302380Y-101223214D01*
X135683333Y-100889880D01*
X135683333Y-101032738D01*
X135730952Y-101127976D01*
X135778571Y-101175595D01*
X135873809Y-101223214D01*
X136111904Y-101223214D01*
X136207142Y-101175595D01*
X136254761Y-101127976D01*
X136302380Y-101032738D01*
X136302380Y-100747023D01*
X136254761Y-100651785D01*
X136207142Y-100604166D01*
G04 #@! TO.C,C4*
X141604166Y-93607142D02*
X141651785Y-93654761D01*
X141794642Y-93702380D01*
X141889880Y-93702380D01*
X142032738Y-93654761D01*
X142127976Y-93559523D01*
X142175595Y-93464285D01*
X142223214Y-93273809D01*
X142223214Y-93130952D01*
X142175595Y-92940476D01*
X142127976Y-92845238D01*
X142032738Y-92750000D01*
X141889880Y-92702380D01*
X141794642Y-92702380D01*
X141651785Y-92750000D01*
X141604166Y-92797619D01*
X140747023Y-93035714D02*
X140747023Y-93702380D01*
X140985119Y-92654761D02*
X141223214Y-93369047D01*
X140604166Y-93369047D01*
G04 #@! TO.C,C5*
X145916666Y-93607142D02*
X145964285Y-93654761D01*
X146107142Y-93702380D01*
X146202380Y-93702380D01*
X146345238Y-93654761D01*
X146440476Y-93559523D01*
X146488095Y-93464285D01*
X146535714Y-93273809D01*
X146535714Y-93130952D01*
X146488095Y-92940476D01*
X146440476Y-92845238D01*
X146345238Y-92750000D01*
X146202380Y-92702380D01*
X146107142Y-92702380D01*
X145964285Y-92750000D01*
X145916666Y-92797619D01*
X145011904Y-92702380D02*
X145488095Y-92702380D01*
X145535714Y-93178571D01*
X145488095Y-93130952D01*
X145392857Y-93083333D01*
X145154761Y-93083333D01*
X145059523Y-93130952D01*
X145011904Y-93178571D01*
X144964285Y-93273809D01*
X144964285Y-93511904D01*
X145011904Y-93607142D01*
X145059523Y-93654761D01*
X145154761Y-93702380D01*
X145392857Y-93702380D01*
X145488095Y-93654761D01*
X145535714Y-93607142D01*
G04 #@! TO.C,C6*
X136357142Y-95895833D02*
X136404761Y-95848214D01*
X136452380Y-95705357D01*
X136452380Y-95610119D01*
X136404761Y-95467261D01*
X136309523Y-95372023D01*
X136214285Y-95324404D01*
X136023809Y-95276785D01*
X135880952Y-95276785D01*
X135690476Y-95324404D01*
X135595238Y-95372023D01*
X135500000Y-95467261D01*
X135452380Y-95610119D01*
X135452380Y-95705357D01*
X135500000Y-95848214D01*
X135547619Y-95895833D01*
X135452380Y-96752976D02*
X135452380Y-96562500D01*
X135500000Y-96467261D01*
X135547619Y-96419642D01*
X135690476Y-96324404D01*
X135880952Y-96276785D01*
X136261904Y-96276785D01*
X136357142Y-96324404D01*
X136404761Y-96372023D01*
X136452380Y-96467261D01*
X136452380Y-96657738D01*
X136404761Y-96752976D01*
X136357142Y-96800595D01*
X136261904Y-96848214D01*
X136023809Y-96848214D01*
X135928571Y-96800595D01*
X135880952Y-96752976D01*
X135833333Y-96657738D01*
X135833333Y-96467261D01*
X135880952Y-96372023D01*
X135928571Y-96324404D01*
X136023809Y-96276785D01*
G04 #@! TO.C,C7*
X155107142Y-99483333D02*
X155154761Y-99435714D01*
X155202380Y-99292857D01*
X155202380Y-99197619D01*
X155154761Y-99054761D01*
X155059523Y-98959523D01*
X154964285Y-98911904D01*
X154773809Y-98864285D01*
X154630952Y-98864285D01*
X154440476Y-98911904D01*
X154345238Y-98959523D01*
X154250000Y-99054761D01*
X154202380Y-99197619D01*
X154202380Y-99292857D01*
X154250000Y-99435714D01*
X154297619Y-99483333D01*
X154202380Y-99816666D02*
X154202380Y-100483333D01*
X155202380Y-100054761D01*
G04 #@! TO.C,U2*
X144452380Y-99738095D02*
X145261904Y-99738095D01*
X145357142Y-99785714D01*
X145404761Y-99833333D01*
X145452380Y-99928571D01*
X145452380Y-100119047D01*
X145404761Y-100214285D01*
X145357142Y-100261904D01*
X145261904Y-100309523D01*
X144452380Y-100309523D01*
X144547619Y-100738095D02*
X144500000Y-100785714D01*
X144452380Y-100880952D01*
X144452380Y-101119047D01*
X144500000Y-101214285D01*
X144547619Y-101261904D01*
X144642857Y-101309523D01*
X144738095Y-101309523D01*
X144880952Y-101261904D01*
X145452380Y-100690476D01*
X145452380Y-101309523D01*
G04 #@! TD*
M02*
