G04 #@! TF.GenerationSoftware,KiCad,Pcbnew,(5.0.2)-1*
G04 #@! TF.CreationDate,2020-03-26T14:30:10-07:00*
G04 #@! TF.ProjectId,RetroWIFI,52657472-6f57-4494-9649-2e6b69636164,rev?*
G04 #@! TF.SameCoordinates,Original*
G04 #@! TF.FileFunction,Paste,Bot*
G04 #@! TF.FilePolarity,Positive*
%FSLAX46Y46*%
G04 Gerber Fmt 4.6, Leading zero omitted, Abs format (unit mm)*
G04 Created by KiCad (PCBNEW (5.0.2)-1) date 3/26/2020 2:30:10 PM*
%MOMM*%
%LPD*%
G01*
G04 APERTURE LIST*
%ADD10C,0.100000*%
%ADD11C,0.975000*%
%ADD12R,0.600000X1.500000*%
G04 APERTURE END LIST*
D10*
G04 #@! TO.C,C3*
G36*
X137980142Y-99013674D02*
X138003803Y-99017184D01*
X138027007Y-99022996D01*
X138049529Y-99031054D01*
X138071153Y-99041282D01*
X138091670Y-99053579D01*
X138110883Y-99067829D01*
X138128607Y-99083893D01*
X138144671Y-99101617D01*
X138158921Y-99120830D01*
X138171218Y-99141347D01*
X138181446Y-99162971D01*
X138189504Y-99185493D01*
X138195316Y-99208697D01*
X138198826Y-99232358D01*
X138200000Y-99256250D01*
X138200000Y-99743750D01*
X138198826Y-99767642D01*
X138195316Y-99791303D01*
X138189504Y-99814507D01*
X138181446Y-99837029D01*
X138171218Y-99858653D01*
X138158921Y-99879170D01*
X138144671Y-99898383D01*
X138128607Y-99916107D01*
X138110883Y-99932171D01*
X138091670Y-99946421D01*
X138071153Y-99958718D01*
X138049529Y-99968946D01*
X138027007Y-99977004D01*
X138003803Y-99982816D01*
X137980142Y-99986326D01*
X137956250Y-99987500D01*
X137043750Y-99987500D01*
X137019858Y-99986326D01*
X136996197Y-99982816D01*
X136972993Y-99977004D01*
X136950471Y-99968946D01*
X136928847Y-99958718D01*
X136908330Y-99946421D01*
X136889117Y-99932171D01*
X136871393Y-99916107D01*
X136855329Y-99898383D01*
X136841079Y-99879170D01*
X136828782Y-99858653D01*
X136818554Y-99837029D01*
X136810496Y-99814507D01*
X136804684Y-99791303D01*
X136801174Y-99767642D01*
X136800000Y-99743750D01*
X136800000Y-99256250D01*
X136801174Y-99232358D01*
X136804684Y-99208697D01*
X136810496Y-99185493D01*
X136818554Y-99162971D01*
X136828782Y-99141347D01*
X136841079Y-99120830D01*
X136855329Y-99101617D01*
X136871393Y-99083893D01*
X136889117Y-99067829D01*
X136908330Y-99053579D01*
X136928847Y-99041282D01*
X136950471Y-99031054D01*
X136972993Y-99022996D01*
X136996197Y-99017184D01*
X137019858Y-99013674D01*
X137043750Y-99012500D01*
X137956250Y-99012500D01*
X137980142Y-99013674D01*
X137980142Y-99013674D01*
G37*
D11*
X137500000Y-99500000D03*
D10*
G36*
X137980142Y-100888674D02*
X138003803Y-100892184D01*
X138027007Y-100897996D01*
X138049529Y-100906054D01*
X138071153Y-100916282D01*
X138091670Y-100928579D01*
X138110883Y-100942829D01*
X138128607Y-100958893D01*
X138144671Y-100976617D01*
X138158921Y-100995830D01*
X138171218Y-101016347D01*
X138181446Y-101037971D01*
X138189504Y-101060493D01*
X138195316Y-101083697D01*
X138198826Y-101107358D01*
X138200000Y-101131250D01*
X138200000Y-101618750D01*
X138198826Y-101642642D01*
X138195316Y-101666303D01*
X138189504Y-101689507D01*
X138181446Y-101712029D01*
X138171218Y-101733653D01*
X138158921Y-101754170D01*
X138144671Y-101773383D01*
X138128607Y-101791107D01*
X138110883Y-101807171D01*
X138091670Y-101821421D01*
X138071153Y-101833718D01*
X138049529Y-101843946D01*
X138027007Y-101852004D01*
X138003803Y-101857816D01*
X137980142Y-101861326D01*
X137956250Y-101862500D01*
X137043750Y-101862500D01*
X137019858Y-101861326D01*
X136996197Y-101857816D01*
X136972993Y-101852004D01*
X136950471Y-101843946D01*
X136928847Y-101833718D01*
X136908330Y-101821421D01*
X136889117Y-101807171D01*
X136871393Y-101791107D01*
X136855329Y-101773383D01*
X136841079Y-101754170D01*
X136828782Y-101733653D01*
X136818554Y-101712029D01*
X136810496Y-101689507D01*
X136804684Y-101666303D01*
X136801174Y-101642642D01*
X136800000Y-101618750D01*
X136800000Y-101131250D01*
X136801174Y-101107358D01*
X136804684Y-101083697D01*
X136810496Y-101060493D01*
X136818554Y-101037971D01*
X136828782Y-101016347D01*
X136841079Y-100995830D01*
X136855329Y-100976617D01*
X136871393Y-100958893D01*
X136889117Y-100942829D01*
X136908330Y-100928579D01*
X136928847Y-100916282D01*
X136950471Y-100906054D01*
X136972993Y-100897996D01*
X136996197Y-100892184D01*
X137019858Y-100888674D01*
X137043750Y-100887500D01*
X137956250Y-100887500D01*
X137980142Y-100888674D01*
X137980142Y-100888674D01*
G37*
D11*
X137500000Y-101375000D03*
G04 #@! TD*
D10*
G04 #@! TO.C,C4*
G36*
X140767642Y-94301174D02*
X140791303Y-94304684D01*
X140814507Y-94310496D01*
X140837029Y-94318554D01*
X140858653Y-94328782D01*
X140879170Y-94341079D01*
X140898383Y-94355329D01*
X140916107Y-94371393D01*
X140932171Y-94389117D01*
X140946421Y-94408330D01*
X140958718Y-94428847D01*
X140968946Y-94450471D01*
X140977004Y-94472993D01*
X140982816Y-94496197D01*
X140986326Y-94519858D01*
X140987500Y-94543750D01*
X140987500Y-95456250D01*
X140986326Y-95480142D01*
X140982816Y-95503803D01*
X140977004Y-95527007D01*
X140968946Y-95549529D01*
X140958718Y-95571153D01*
X140946421Y-95591670D01*
X140932171Y-95610883D01*
X140916107Y-95628607D01*
X140898383Y-95644671D01*
X140879170Y-95658921D01*
X140858653Y-95671218D01*
X140837029Y-95681446D01*
X140814507Y-95689504D01*
X140791303Y-95695316D01*
X140767642Y-95698826D01*
X140743750Y-95700000D01*
X140256250Y-95700000D01*
X140232358Y-95698826D01*
X140208697Y-95695316D01*
X140185493Y-95689504D01*
X140162971Y-95681446D01*
X140141347Y-95671218D01*
X140120830Y-95658921D01*
X140101617Y-95644671D01*
X140083893Y-95628607D01*
X140067829Y-95610883D01*
X140053579Y-95591670D01*
X140041282Y-95571153D01*
X140031054Y-95549529D01*
X140022996Y-95527007D01*
X140017184Y-95503803D01*
X140013674Y-95480142D01*
X140012500Y-95456250D01*
X140012500Y-94543750D01*
X140013674Y-94519858D01*
X140017184Y-94496197D01*
X140022996Y-94472993D01*
X140031054Y-94450471D01*
X140041282Y-94428847D01*
X140053579Y-94408330D01*
X140067829Y-94389117D01*
X140083893Y-94371393D01*
X140101617Y-94355329D01*
X140120830Y-94341079D01*
X140141347Y-94328782D01*
X140162971Y-94318554D01*
X140185493Y-94310496D01*
X140208697Y-94304684D01*
X140232358Y-94301174D01*
X140256250Y-94300000D01*
X140743750Y-94300000D01*
X140767642Y-94301174D01*
X140767642Y-94301174D01*
G37*
D11*
X140500000Y-95000000D03*
D10*
G36*
X142642642Y-94301174D02*
X142666303Y-94304684D01*
X142689507Y-94310496D01*
X142712029Y-94318554D01*
X142733653Y-94328782D01*
X142754170Y-94341079D01*
X142773383Y-94355329D01*
X142791107Y-94371393D01*
X142807171Y-94389117D01*
X142821421Y-94408330D01*
X142833718Y-94428847D01*
X142843946Y-94450471D01*
X142852004Y-94472993D01*
X142857816Y-94496197D01*
X142861326Y-94519858D01*
X142862500Y-94543750D01*
X142862500Y-95456250D01*
X142861326Y-95480142D01*
X142857816Y-95503803D01*
X142852004Y-95527007D01*
X142843946Y-95549529D01*
X142833718Y-95571153D01*
X142821421Y-95591670D01*
X142807171Y-95610883D01*
X142791107Y-95628607D01*
X142773383Y-95644671D01*
X142754170Y-95658921D01*
X142733653Y-95671218D01*
X142712029Y-95681446D01*
X142689507Y-95689504D01*
X142666303Y-95695316D01*
X142642642Y-95698826D01*
X142618750Y-95700000D01*
X142131250Y-95700000D01*
X142107358Y-95698826D01*
X142083697Y-95695316D01*
X142060493Y-95689504D01*
X142037971Y-95681446D01*
X142016347Y-95671218D01*
X141995830Y-95658921D01*
X141976617Y-95644671D01*
X141958893Y-95628607D01*
X141942829Y-95610883D01*
X141928579Y-95591670D01*
X141916282Y-95571153D01*
X141906054Y-95549529D01*
X141897996Y-95527007D01*
X141892184Y-95503803D01*
X141888674Y-95480142D01*
X141887500Y-95456250D01*
X141887500Y-94543750D01*
X141888674Y-94519858D01*
X141892184Y-94496197D01*
X141897996Y-94472993D01*
X141906054Y-94450471D01*
X141916282Y-94428847D01*
X141928579Y-94408330D01*
X141942829Y-94389117D01*
X141958893Y-94371393D01*
X141976617Y-94355329D01*
X141995830Y-94341079D01*
X142016347Y-94328782D01*
X142037971Y-94318554D01*
X142060493Y-94310496D01*
X142083697Y-94304684D01*
X142107358Y-94301174D01*
X142131250Y-94300000D01*
X142618750Y-94300000D01*
X142642642Y-94301174D01*
X142642642Y-94301174D01*
G37*
D11*
X142375000Y-95000000D03*
G04 #@! TD*
D10*
G04 #@! TO.C,C5*
G36*
X146992642Y-94301174D02*
X147016303Y-94304684D01*
X147039507Y-94310496D01*
X147062029Y-94318554D01*
X147083653Y-94328782D01*
X147104170Y-94341079D01*
X147123383Y-94355329D01*
X147141107Y-94371393D01*
X147157171Y-94389117D01*
X147171421Y-94408330D01*
X147183718Y-94428847D01*
X147193946Y-94450471D01*
X147202004Y-94472993D01*
X147207816Y-94496197D01*
X147211326Y-94519858D01*
X147212500Y-94543750D01*
X147212500Y-95456250D01*
X147211326Y-95480142D01*
X147207816Y-95503803D01*
X147202004Y-95527007D01*
X147193946Y-95549529D01*
X147183718Y-95571153D01*
X147171421Y-95591670D01*
X147157171Y-95610883D01*
X147141107Y-95628607D01*
X147123383Y-95644671D01*
X147104170Y-95658921D01*
X147083653Y-95671218D01*
X147062029Y-95681446D01*
X147039507Y-95689504D01*
X147016303Y-95695316D01*
X146992642Y-95698826D01*
X146968750Y-95700000D01*
X146481250Y-95700000D01*
X146457358Y-95698826D01*
X146433697Y-95695316D01*
X146410493Y-95689504D01*
X146387971Y-95681446D01*
X146366347Y-95671218D01*
X146345830Y-95658921D01*
X146326617Y-95644671D01*
X146308893Y-95628607D01*
X146292829Y-95610883D01*
X146278579Y-95591670D01*
X146266282Y-95571153D01*
X146256054Y-95549529D01*
X146247996Y-95527007D01*
X146242184Y-95503803D01*
X146238674Y-95480142D01*
X146237500Y-95456250D01*
X146237500Y-94543750D01*
X146238674Y-94519858D01*
X146242184Y-94496197D01*
X146247996Y-94472993D01*
X146256054Y-94450471D01*
X146266282Y-94428847D01*
X146278579Y-94408330D01*
X146292829Y-94389117D01*
X146308893Y-94371393D01*
X146326617Y-94355329D01*
X146345830Y-94341079D01*
X146366347Y-94328782D01*
X146387971Y-94318554D01*
X146410493Y-94310496D01*
X146433697Y-94304684D01*
X146457358Y-94301174D01*
X146481250Y-94300000D01*
X146968750Y-94300000D01*
X146992642Y-94301174D01*
X146992642Y-94301174D01*
G37*
D11*
X146725000Y-95000000D03*
D10*
G36*
X145117642Y-94301174D02*
X145141303Y-94304684D01*
X145164507Y-94310496D01*
X145187029Y-94318554D01*
X145208653Y-94328782D01*
X145229170Y-94341079D01*
X145248383Y-94355329D01*
X145266107Y-94371393D01*
X145282171Y-94389117D01*
X145296421Y-94408330D01*
X145308718Y-94428847D01*
X145318946Y-94450471D01*
X145327004Y-94472993D01*
X145332816Y-94496197D01*
X145336326Y-94519858D01*
X145337500Y-94543750D01*
X145337500Y-95456250D01*
X145336326Y-95480142D01*
X145332816Y-95503803D01*
X145327004Y-95527007D01*
X145318946Y-95549529D01*
X145308718Y-95571153D01*
X145296421Y-95591670D01*
X145282171Y-95610883D01*
X145266107Y-95628607D01*
X145248383Y-95644671D01*
X145229170Y-95658921D01*
X145208653Y-95671218D01*
X145187029Y-95681446D01*
X145164507Y-95689504D01*
X145141303Y-95695316D01*
X145117642Y-95698826D01*
X145093750Y-95700000D01*
X144606250Y-95700000D01*
X144582358Y-95698826D01*
X144558697Y-95695316D01*
X144535493Y-95689504D01*
X144512971Y-95681446D01*
X144491347Y-95671218D01*
X144470830Y-95658921D01*
X144451617Y-95644671D01*
X144433893Y-95628607D01*
X144417829Y-95610883D01*
X144403579Y-95591670D01*
X144391282Y-95571153D01*
X144381054Y-95549529D01*
X144372996Y-95527007D01*
X144367184Y-95503803D01*
X144363674Y-95480142D01*
X144362500Y-95456250D01*
X144362500Y-94543750D01*
X144363674Y-94519858D01*
X144367184Y-94496197D01*
X144372996Y-94472993D01*
X144381054Y-94450471D01*
X144391282Y-94428847D01*
X144403579Y-94408330D01*
X144417829Y-94389117D01*
X144433893Y-94371393D01*
X144451617Y-94355329D01*
X144470830Y-94341079D01*
X144491347Y-94328782D01*
X144512971Y-94318554D01*
X144535493Y-94310496D01*
X144558697Y-94304684D01*
X144582358Y-94301174D01*
X144606250Y-94300000D01*
X145093750Y-94300000D01*
X145117642Y-94301174D01*
X145117642Y-94301174D01*
G37*
D11*
X144850000Y-95000000D03*
G04 #@! TD*
D10*
G04 #@! TO.C,C6*
G36*
X137980142Y-96513674D02*
X138003803Y-96517184D01*
X138027007Y-96522996D01*
X138049529Y-96531054D01*
X138071153Y-96541282D01*
X138091670Y-96553579D01*
X138110883Y-96567829D01*
X138128607Y-96583893D01*
X138144671Y-96601617D01*
X138158921Y-96620830D01*
X138171218Y-96641347D01*
X138181446Y-96662971D01*
X138189504Y-96685493D01*
X138195316Y-96708697D01*
X138198826Y-96732358D01*
X138200000Y-96756250D01*
X138200000Y-97243750D01*
X138198826Y-97267642D01*
X138195316Y-97291303D01*
X138189504Y-97314507D01*
X138181446Y-97337029D01*
X138171218Y-97358653D01*
X138158921Y-97379170D01*
X138144671Y-97398383D01*
X138128607Y-97416107D01*
X138110883Y-97432171D01*
X138091670Y-97446421D01*
X138071153Y-97458718D01*
X138049529Y-97468946D01*
X138027007Y-97477004D01*
X138003803Y-97482816D01*
X137980142Y-97486326D01*
X137956250Y-97487500D01*
X137043750Y-97487500D01*
X137019858Y-97486326D01*
X136996197Y-97482816D01*
X136972993Y-97477004D01*
X136950471Y-97468946D01*
X136928847Y-97458718D01*
X136908330Y-97446421D01*
X136889117Y-97432171D01*
X136871393Y-97416107D01*
X136855329Y-97398383D01*
X136841079Y-97379170D01*
X136828782Y-97358653D01*
X136818554Y-97337029D01*
X136810496Y-97314507D01*
X136804684Y-97291303D01*
X136801174Y-97267642D01*
X136800000Y-97243750D01*
X136800000Y-96756250D01*
X136801174Y-96732358D01*
X136804684Y-96708697D01*
X136810496Y-96685493D01*
X136818554Y-96662971D01*
X136828782Y-96641347D01*
X136841079Y-96620830D01*
X136855329Y-96601617D01*
X136871393Y-96583893D01*
X136889117Y-96567829D01*
X136908330Y-96553579D01*
X136928847Y-96541282D01*
X136950471Y-96531054D01*
X136972993Y-96522996D01*
X136996197Y-96517184D01*
X137019858Y-96513674D01*
X137043750Y-96512500D01*
X137956250Y-96512500D01*
X137980142Y-96513674D01*
X137980142Y-96513674D01*
G37*
D11*
X137500000Y-97000000D03*
D10*
G36*
X137980142Y-94638674D02*
X138003803Y-94642184D01*
X138027007Y-94647996D01*
X138049529Y-94656054D01*
X138071153Y-94666282D01*
X138091670Y-94678579D01*
X138110883Y-94692829D01*
X138128607Y-94708893D01*
X138144671Y-94726617D01*
X138158921Y-94745830D01*
X138171218Y-94766347D01*
X138181446Y-94787971D01*
X138189504Y-94810493D01*
X138195316Y-94833697D01*
X138198826Y-94857358D01*
X138200000Y-94881250D01*
X138200000Y-95368750D01*
X138198826Y-95392642D01*
X138195316Y-95416303D01*
X138189504Y-95439507D01*
X138181446Y-95462029D01*
X138171218Y-95483653D01*
X138158921Y-95504170D01*
X138144671Y-95523383D01*
X138128607Y-95541107D01*
X138110883Y-95557171D01*
X138091670Y-95571421D01*
X138071153Y-95583718D01*
X138049529Y-95593946D01*
X138027007Y-95602004D01*
X138003803Y-95607816D01*
X137980142Y-95611326D01*
X137956250Y-95612500D01*
X137043750Y-95612500D01*
X137019858Y-95611326D01*
X136996197Y-95607816D01*
X136972993Y-95602004D01*
X136950471Y-95593946D01*
X136928847Y-95583718D01*
X136908330Y-95571421D01*
X136889117Y-95557171D01*
X136871393Y-95541107D01*
X136855329Y-95523383D01*
X136841079Y-95504170D01*
X136828782Y-95483653D01*
X136818554Y-95462029D01*
X136810496Y-95439507D01*
X136804684Y-95416303D01*
X136801174Y-95392642D01*
X136800000Y-95368750D01*
X136800000Y-94881250D01*
X136801174Y-94857358D01*
X136804684Y-94833697D01*
X136810496Y-94810493D01*
X136818554Y-94787971D01*
X136828782Y-94766347D01*
X136841079Y-94745830D01*
X136855329Y-94726617D01*
X136871393Y-94708893D01*
X136889117Y-94692829D01*
X136908330Y-94678579D01*
X136928847Y-94666282D01*
X136950471Y-94656054D01*
X136972993Y-94647996D01*
X136996197Y-94642184D01*
X137019858Y-94638674D01*
X137043750Y-94637500D01*
X137956250Y-94637500D01*
X137980142Y-94638674D01*
X137980142Y-94638674D01*
G37*
D11*
X137500000Y-95125000D03*
G04 #@! TD*
D10*
G04 #@! TO.C,C7*
G36*
X153580142Y-98226174D02*
X153603803Y-98229684D01*
X153627007Y-98235496D01*
X153649529Y-98243554D01*
X153671153Y-98253782D01*
X153691670Y-98266079D01*
X153710883Y-98280329D01*
X153728607Y-98296393D01*
X153744671Y-98314117D01*
X153758921Y-98333330D01*
X153771218Y-98353847D01*
X153781446Y-98375471D01*
X153789504Y-98397993D01*
X153795316Y-98421197D01*
X153798826Y-98444858D01*
X153800000Y-98468750D01*
X153800000Y-98956250D01*
X153798826Y-98980142D01*
X153795316Y-99003803D01*
X153789504Y-99027007D01*
X153781446Y-99049529D01*
X153771218Y-99071153D01*
X153758921Y-99091670D01*
X153744671Y-99110883D01*
X153728607Y-99128607D01*
X153710883Y-99144671D01*
X153691670Y-99158921D01*
X153671153Y-99171218D01*
X153649529Y-99181446D01*
X153627007Y-99189504D01*
X153603803Y-99195316D01*
X153580142Y-99198826D01*
X153556250Y-99200000D01*
X152643750Y-99200000D01*
X152619858Y-99198826D01*
X152596197Y-99195316D01*
X152572993Y-99189504D01*
X152550471Y-99181446D01*
X152528847Y-99171218D01*
X152508330Y-99158921D01*
X152489117Y-99144671D01*
X152471393Y-99128607D01*
X152455329Y-99110883D01*
X152441079Y-99091670D01*
X152428782Y-99071153D01*
X152418554Y-99049529D01*
X152410496Y-99027007D01*
X152404684Y-99003803D01*
X152401174Y-98980142D01*
X152400000Y-98956250D01*
X152400000Y-98468750D01*
X152401174Y-98444858D01*
X152404684Y-98421197D01*
X152410496Y-98397993D01*
X152418554Y-98375471D01*
X152428782Y-98353847D01*
X152441079Y-98333330D01*
X152455329Y-98314117D01*
X152471393Y-98296393D01*
X152489117Y-98280329D01*
X152508330Y-98266079D01*
X152528847Y-98253782D01*
X152550471Y-98243554D01*
X152572993Y-98235496D01*
X152596197Y-98229684D01*
X152619858Y-98226174D01*
X152643750Y-98225000D01*
X153556250Y-98225000D01*
X153580142Y-98226174D01*
X153580142Y-98226174D01*
G37*
D11*
X153100000Y-98712500D03*
D10*
G36*
X153580142Y-100101174D02*
X153603803Y-100104684D01*
X153627007Y-100110496D01*
X153649529Y-100118554D01*
X153671153Y-100128782D01*
X153691670Y-100141079D01*
X153710883Y-100155329D01*
X153728607Y-100171393D01*
X153744671Y-100189117D01*
X153758921Y-100208330D01*
X153771218Y-100228847D01*
X153781446Y-100250471D01*
X153789504Y-100272993D01*
X153795316Y-100296197D01*
X153798826Y-100319858D01*
X153800000Y-100343750D01*
X153800000Y-100831250D01*
X153798826Y-100855142D01*
X153795316Y-100878803D01*
X153789504Y-100902007D01*
X153781446Y-100924529D01*
X153771218Y-100946153D01*
X153758921Y-100966670D01*
X153744671Y-100985883D01*
X153728607Y-101003607D01*
X153710883Y-101019671D01*
X153691670Y-101033921D01*
X153671153Y-101046218D01*
X153649529Y-101056446D01*
X153627007Y-101064504D01*
X153603803Y-101070316D01*
X153580142Y-101073826D01*
X153556250Y-101075000D01*
X152643750Y-101075000D01*
X152619858Y-101073826D01*
X152596197Y-101070316D01*
X152572993Y-101064504D01*
X152550471Y-101056446D01*
X152528847Y-101046218D01*
X152508330Y-101033921D01*
X152489117Y-101019671D01*
X152471393Y-101003607D01*
X152455329Y-100985883D01*
X152441079Y-100966670D01*
X152428782Y-100946153D01*
X152418554Y-100924529D01*
X152410496Y-100902007D01*
X152404684Y-100878803D01*
X152401174Y-100855142D01*
X152400000Y-100831250D01*
X152400000Y-100343750D01*
X152401174Y-100319858D01*
X152404684Y-100296197D01*
X152410496Y-100272993D01*
X152418554Y-100250471D01*
X152428782Y-100228847D01*
X152441079Y-100208330D01*
X152455329Y-100189117D01*
X152471393Y-100171393D01*
X152489117Y-100155329D01*
X152508330Y-100141079D01*
X152528847Y-100128782D01*
X152550471Y-100118554D01*
X152572993Y-100110496D01*
X152596197Y-100104684D01*
X152619858Y-100101174D01*
X152643750Y-100100000D01*
X153556250Y-100100000D01*
X153580142Y-100101174D01*
X153580142Y-100101174D01*
G37*
D11*
X153100000Y-100587500D03*
G04 #@! TD*
D12*
G04 #@! TO.C,U2*
X140650000Y-97912500D03*
X141920000Y-97912500D03*
X143190000Y-97912500D03*
X144460000Y-97912500D03*
X145730000Y-97912500D03*
X147000000Y-97912500D03*
X148270000Y-97912500D03*
X149540000Y-97912500D03*
X149540000Y-103312500D03*
X148270000Y-103312500D03*
X147000000Y-103312500D03*
X145730000Y-103312500D03*
X144460000Y-103312500D03*
X143190000Y-103312500D03*
X141920000Y-103312500D03*
X140650000Y-103312500D03*
G04 #@! TD*
M02*
