G04 #@! TF.GenerationSoftware,KiCad,Pcbnew,(5.0.2)-1*
G04 #@! TF.CreationDate,2020-03-26T14:30:10-07:00*
G04 #@! TF.ProjectId,RetroWIFI,52657472-6f57-4494-9649-2e6b69636164,rev?*
G04 #@! TF.SameCoordinates,Original*
G04 #@! TF.FileFunction,Soldermask,Top*
G04 #@! TF.FilePolarity,Negative*
%FSLAX46Y46*%
G04 Gerber Fmt 4.6, Leading zero omitted, Abs format (unit mm)*
G04 Created by KiCad (PCBNEW (5.0.2)-1) date 3/26/2020 2:30:10 PM*
%MOMM*%
%LPD*%
G01*
G04 APERTURE LIST*
%ADD10C,0.100000*%
G04 APERTURE END LIST*
D10*
G04 #@! TO.C,SW1*
X159694500Y-129750000D02*
G75*
G03X159694500Y-129750000I-444500J0D01*
G01*
X159694500Y-134250000D02*
G75*
G03X159694500Y-134250000I-444500J0D01*
G01*
X157385000Y-135500000D02*
G75*
G03X157385000Y-135500000I-635000J0D01*
G01*
X157385000Y-128500000D02*
G75*
G03X157385000Y-128500000I-635000J0D01*
G01*
G04 #@! TO.C,SW2*
X157385000Y-115750000D02*
G75*
G03X157385000Y-115750000I-635000J0D01*
G01*
X157385000Y-122750000D02*
G75*
G03X157385000Y-122750000I-635000J0D01*
G01*
X159694500Y-121500000D02*
G75*
G03X159694500Y-121500000I-444500J0D01*
G01*
X159694500Y-117000000D02*
G75*
G03X159694500Y-117000000I-444500J0D01*
G01*
G36*
X157085734Y-134393232D02*
X157295202Y-134479996D01*
X157483723Y-134605962D01*
X157644038Y-134766277D01*
X157770004Y-134954798D01*
X157856768Y-135164266D01*
X157901000Y-135386635D01*
X157901000Y-135613365D01*
X157856768Y-135835734D01*
X157770004Y-136045202D01*
X157644038Y-136233723D01*
X157483723Y-136394038D01*
X157295202Y-136520004D01*
X157085734Y-136606768D01*
X156863365Y-136651000D01*
X156636635Y-136651000D01*
X156414266Y-136606768D01*
X156204798Y-136520004D01*
X156016277Y-136394038D01*
X155855962Y-136233723D01*
X155729996Y-136045202D01*
X155643232Y-135835734D01*
X155599000Y-135613365D01*
X155599000Y-135386635D01*
X155643232Y-135164266D01*
X155729996Y-134954798D01*
X155855962Y-134766277D01*
X156016277Y-134605962D01*
X156204798Y-134479996D01*
X156414266Y-134393232D01*
X156636635Y-134349000D01*
X156863365Y-134349000D01*
X157085734Y-134393232D01*
X157085734Y-134393232D01*
G37*
G36*
X159512812Y-133383624D02*
X159676784Y-133451544D01*
X159824354Y-133550147D01*
X159949853Y-133675646D01*
X160048456Y-133823216D01*
X160116376Y-133987188D01*
X160151000Y-134161259D01*
X160151000Y-134338741D01*
X160116376Y-134512812D01*
X160048456Y-134676784D01*
X159949853Y-134824354D01*
X159824354Y-134949853D01*
X159676784Y-135048456D01*
X159512812Y-135116376D01*
X159338741Y-135151000D01*
X159161259Y-135151000D01*
X158987188Y-135116376D01*
X158823216Y-135048456D01*
X158675646Y-134949853D01*
X158550147Y-134824354D01*
X158451544Y-134676784D01*
X158383624Y-134512812D01*
X158349000Y-134338741D01*
X158349000Y-134161259D01*
X158383624Y-133987188D01*
X158451544Y-133823216D01*
X158550147Y-133675646D01*
X158675646Y-133550147D01*
X158823216Y-133451544D01*
X158987188Y-133383624D01*
X159161259Y-133349000D01*
X159338741Y-133349000D01*
X159512812Y-133383624D01*
X159512812Y-133383624D01*
G37*
G36*
X159512812Y-128883624D02*
X159676784Y-128951544D01*
X159824354Y-129050147D01*
X159949853Y-129175646D01*
X160048456Y-129323216D01*
X160116376Y-129487188D01*
X160151000Y-129661259D01*
X160151000Y-129838741D01*
X160116376Y-130012812D01*
X160048456Y-130176784D01*
X159949853Y-130324354D01*
X159824354Y-130449853D01*
X159676784Y-130548456D01*
X159512812Y-130616376D01*
X159338741Y-130651000D01*
X159161259Y-130651000D01*
X158987188Y-130616376D01*
X158823216Y-130548456D01*
X158675646Y-130449853D01*
X158550147Y-130324354D01*
X158451544Y-130176784D01*
X158383624Y-130012812D01*
X158349000Y-129838741D01*
X158349000Y-129661259D01*
X158383624Y-129487188D01*
X158451544Y-129323216D01*
X158550147Y-129175646D01*
X158675646Y-129050147D01*
X158823216Y-128951544D01*
X158987188Y-128883624D01*
X159161259Y-128849000D01*
X159338741Y-128849000D01*
X159512812Y-128883624D01*
X159512812Y-128883624D01*
G37*
G36*
X133151000Y-130551000D02*
X130849000Y-130551000D01*
X130849000Y-129449000D01*
X133151000Y-129449000D01*
X133151000Y-130551000D01*
X133151000Y-130551000D01*
G37*
G36*
X149151000Y-130551000D02*
X146849000Y-130551000D01*
X146849000Y-129449000D01*
X149151000Y-129449000D01*
X149151000Y-130551000D01*
X149151000Y-130551000D01*
G37*
G36*
X157085734Y-127393232D02*
X157295202Y-127479996D01*
X157483723Y-127605962D01*
X157644038Y-127766277D01*
X157770004Y-127954798D01*
X157856768Y-128164266D01*
X157901000Y-128386635D01*
X157901000Y-128613365D01*
X157856768Y-128835734D01*
X157770004Y-129045202D01*
X157644038Y-129233723D01*
X157483723Y-129394038D01*
X157295202Y-129520004D01*
X157085734Y-129606768D01*
X156863365Y-129651000D01*
X156636635Y-129651000D01*
X156414266Y-129606768D01*
X156204798Y-129520004D01*
X156016277Y-129394038D01*
X155855962Y-129233723D01*
X155729996Y-129045202D01*
X155643232Y-128835734D01*
X155599000Y-128613365D01*
X155599000Y-128386635D01*
X155643232Y-128164266D01*
X155729996Y-127954798D01*
X155855962Y-127766277D01*
X156016277Y-127605962D01*
X156204798Y-127479996D01*
X156414266Y-127393232D01*
X156636635Y-127349000D01*
X156863365Y-127349000D01*
X157085734Y-127393232D01*
X157085734Y-127393232D01*
G37*
G36*
X153084466Y-127591065D02*
X153123137Y-127602796D01*
X153158779Y-127621848D01*
X153190017Y-127647483D01*
X153215652Y-127678721D01*
X153234704Y-127714363D01*
X153246435Y-127753034D01*
X153251000Y-127799388D01*
X153251000Y-128450612D01*
X153246435Y-128496966D01*
X153234704Y-128535637D01*
X153215652Y-128571279D01*
X153190017Y-128602517D01*
X153158779Y-128628152D01*
X153123137Y-128647204D01*
X153084466Y-128658935D01*
X153038112Y-128663500D01*
X151961888Y-128663500D01*
X151915534Y-128658935D01*
X151876863Y-128647204D01*
X151841221Y-128628152D01*
X151809983Y-128602517D01*
X151784348Y-128571279D01*
X151765296Y-128535637D01*
X151753565Y-128496966D01*
X151749000Y-128450612D01*
X151749000Y-127799388D01*
X151753565Y-127753034D01*
X151765296Y-127714363D01*
X151784348Y-127678721D01*
X151809983Y-127647483D01*
X151841221Y-127621848D01*
X151876863Y-127602796D01*
X151915534Y-127591065D01*
X151961888Y-127586500D01*
X153038112Y-127586500D01*
X153084466Y-127591065D01*
X153084466Y-127591065D01*
G37*
G36*
X133151000Y-128551000D02*
X130849000Y-128551000D01*
X130849000Y-127449000D01*
X133151000Y-127449000D01*
X133151000Y-128551000D01*
X133151000Y-128551000D01*
G37*
G36*
X149151000Y-128551000D02*
X146849000Y-128551000D01*
X146849000Y-127449000D01*
X149151000Y-127449000D01*
X149151000Y-128551000D01*
X149151000Y-128551000D01*
G37*
G36*
X153084466Y-125716065D02*
X153123137Y-125727796D01*
X153158779Y-125746848D01*
X153190017Y-125772483D01*
X153215652Y-125803721D01*
X153234704Y-125839363D01*
X153246435Y-125878034D01*
X153251000Y-125924388D01*
X153251000Y-126575612D01*
X153246435Y-126621966D01*
X153234704Y-126660637D01*
X153215652Y-126696279D01*
X153190017Y-126727517D01*
X153158779Y-126753152D01*
X153123137Y-126772204D01*
X153084466Y-126783935D01*
X153038112Y-126788500D01*
X151961888Y-126788500D01*
X151915534Y-126783935D01*
X151876863Y-126772204D01*
X151841221Y-126753152D01*
X151809983Y-126727517D01*
X151784348Y-126696279D01*
X151765296Y-126660637D01*
X151753565Y-126621966D01*
X151749000Y-126575612D01*
X151749000Y-125924388D01*
X151753565Y-125878034D01*
X151765296Y-125839363D01*
X151784348Y-125803721D01*
X151809983Y-125772483D01*
X151841221Y-125746848D01*
X151876863Y-125727796D01*
X151915534Y-125716065D01*
X151961888Y-125711500D01*
X153038112Y-125711500D01*
X153084466Y-125716065D01*
X153084466Y-125716065D01*
G37*
G36*
X133151000Y-126551000D02*
X130849000Y-126551000D01*
X130849000Y-125449000D01*
X133151000Y-125449000D01*
X133151000Y-126551000D01*
X133151000Y-126551000D01*
G37*
G36*
X149151000Y-126551000D02*
X146849000Y-126551000D01*
X146849000Y-125449000D01*
X149151000Y-125449000D01*
X149151000Y-126551000D01*
X149151000Y-126551000D01*
G37*
G36*
X149151000Y-124551000D02*
X146849000Y-124551000D01*
X146849000Y-123449000D01*
X149151000Y-123449000D01*
X149151000Y-124551000D01*
X149151000Y-124551000D01*
G37*
G36*
X133151000Y-124551000D02*
X130849000Y-124551000D01*
X130849000Y-123449000D01*
X133151000Y-123449000D01*
X133151000Y-124551000D01*
X133151000Y-124551000D01*
G37*
G36*
X157085734Y-121643232D02*
X157295202Y-121729996D01*
X157483723Y-121855962D01*
X157644038Y-122016277D01*
X157770004Y-122204798D01*
X157856768Y-122414266D01*
X157901000Y-122636635D01*
X157901000Y-122863365D01*
X157856768Y-123085734D01*
X157770004Y-123295202D01*
X157644038Y-123483723D01*
X157483723Y-123644038D01*
X157295202Y-123770004D01*
X157085734Y-123856768D01*
X156863365Y-123901000D01*
X156636635Y-123901000D01*
X156414266Y-123856768D01*
X156204798Y-123770004D01*
X156016277Y-123644038D01*
X155855962Y-123483723D01*
X155729996Y-123295202D01*
X155643232Y-123085734D01*
X155599000Y-122863365D01*
X155599000Y-122636635D01*
X155643232Y-122414266D01*
X155729996Y-122204798D01*
X155855962Y-122016277D01*
X156016277Y-121855962D01*
X156204798Y-121729996D01*
X156414266Y-121643232D01*
X156636635Y-121599000D01*
X156863365Y-121599000D01*
X157085734Y-121643232D01*
X157085734Y-121643232D01*
G37*
G36*
X149151000Y-122551000D02*
X146849000Y-122551000D01*
X146849000Y-121449000D01*
X149151000Y-121449000D01*
X149151000Y-122551000D01*
X149151000Y-122551000D01*
G37*
G36*
X133151000Y-122551000D02*
X130849000Y-122551000D01*
X130849000Y-121449000D01*
X133151000Y-121449000D01*
X133151000Y-122551000D01*
X133151000Y-122551000D01*
G37*
G36*
X159512812Y-120633624D02*
X159676784Y-120701544D01*
X159824354Y-120800147D01*
X159949853Y-120925646D01*
X160048456Y-121073216D01*
X160116376Y-121237188D01*
X160151000Y-121411259D01*
X160151000Y-121588741D01*
X160116376Y-121762812D01*
X160048456Y-121926784D01*
X159949853Y-122074354D01*
X159824354Y-122199853D01*
X159676784Y-122298456D01*
X159512812Y-122366376D01*
X159338741Y-122401000D01*
X159161259Y-122401000D01*
X158987188Y-122366376D01*
X158823216Y-122298456D01*
X158675646Y-122199853D01*
X158550147Y-122074354D01*
X158451544Y-121926784D01*
X158383624Y-121762812D01*
X158349000Y-121588741D01*
X158349000Y-121411259D01*
X158383624Y-121237188D01*
X158451544Y-121073216D01*
X158550147Y-120925646D01*
X158675646Y-120800147D01*
X158823216Y-120701544D01*
X158987188Y-120633624D01*
X159161259Y-120599000D01*
X159338741Y-120599000D01*
X159512812Y-120633624D01*
X159512812Y-120633624D01*
G37*
G36*
X153021966Y-119653565D02*
X153060637Y-119665296D01*
X153096279Y-119684348D01*
X153127517Y-119709983D01*
X153153152Y-119741221D01*
X153172204Y-119776863D01*
X153183935Y-119815534D01*
X153188500Y-119861888D01*
X153188500Y-120513112D01*
X153183935Y-120559466D01*
X153172204Y-120598137D01*
X153153152Y-120633779D01*
X153127517Y-120665017D01*
X153096279Y-120690652D01*
X153060637Y-120709704D01*
X153021966Y-120721435D01*
X152975612Y-120726000D01*
X151899388Y-120726000D01*
X151853034Y-120721435D01*
X151814363Y-120709704D01*
X151778721Y-120690652D01*
X151747483Y-120665017D01*
X151721848Y-120633779D01*
X151702796Y-120598137D01*
X151691065Y-120559466D01*
X151686500Y-120513112D01*
X151686500Y-119861888D01*
X151691065Y-119815534D01*
X151702796Y-119776863D01*
X151721848Y-119741221D01*
X151747483Y-119709983D01*
X151778721Y-119684348D01*
X151814363Y-119665296D01*
X151853034Y-119653565D01*
X151899388Y-119649000D01*
X152975612Y-119649000D01*
X153021966Y-119653565D01*
X153021966Y-119653565D01*
G37*
G36*
X133151000Y-120551000D02*
X130849000Y-120551000D01*
X130849000Y-119449000D01*
X133151000Y-119449000D01*
X133151000Y-120551000D01*
X133151000Y-120551000D01*
G37*
G36*
X149151000Y-120551000D02*
X146849000Y-120551000D01*
X146849000Y-119449000D01*
X149151000Y-119449000D01*
X149151000Y-120551000D01*
X149151000Y-120551000D01*
G37*
G36*
X153021966Y-117778565D02*
X153060637Y-117790296D01*
X153096279Y-117809348D01*
X153127517Y-117834983D01*
X153153152Y-117866221D01*
X153172204Y-117901863D01*
X153183935Y-117940534D01*
X153188500Y-117986888D01*
X153188500Y-118638112D01*
X153183935Y-118684466D01*
X153172204Y-118723137D01*
X153153152Y-118758779D01*
X153127517Y-118790017D01*
X153096279Y-118815652D01*
X153060637Y-118834704D01*
X153021966Y-118846435D01*
X152975612Y-118851000D01*
X151899388Y-118851000D01*
X151853034Y-118846435D01*
X151814363Y-118834704D01*
X151778721Y-118815652D01*
X151747483Y-118790017D01*
X151721848Y-118758779D01*
X151702796Y-118723137D01*
X151691065Y-118684466D01*
X151686500Y-118638112D01*
X151686500Y-117986888D01*
X151691065Y-117940534D01*
X151702796Y-117901863D01*
X151721848Y-117866221D01*
X151747483Y-117834983D01*
X151778721Y-117809348D01*
X151814363Y-117790296D01*
X151853034Y-117778565D01*
X151899388Y-117774000D01*
X152975612Y-117774000D01*
X153021966Y-117778565D01*
X153021966Y-117778565D01*
G37*
G36*
X149151000Y-118551000D02*
X146849000Y-118551000D01*
X146849000Y-117449000D01*
X149151000Y-117449000D01*
X149151000Y-118551000D01*
X149151000Y-118551000D01*
G37*
G36*
X133151000Y-118551000D02*
X130849000Y-118551000D01*
X130849000Y-117449000D01*
X133151000Y-117449000D01*
X133151000Y-118551000D01*
X133151000Y-118551000D01*
G37*
G36*
X159512812Y-116133624D02*
X159676784Y-116201544D01*
X159824354Y-116300147D01*
X159949853Y-116425646D01*
X160048456Y-116573216D01*
X160116376Y-116737188D01*
X160151000Y-116911259D01*
X160151000Y-117088741D01*
X160116376Y-117262812D01*
X160048456Y-117426784D01*
X159949853Y-117574354D01*
X159824354Y-117699853D01*
X159676784Y-117798456D01*
X159512812Y-117866376D01*
X159338741Y-117901000D01*
X159161259Y-117901000D01*
X158987188Y-117866376D01*
X158823216Y-117798456D01*
X158675646Y-117699853D01*
X158550147Y-117574354D01*
X158451544Y-117426784D01*
X158383624Y-117262812D01*
X158349000Y-117088741D01*
X158349000Y-116911259D01*
X158383624Y-116737188D01*
X158451544Y-116573216D01*
X158550147Y-116425646D01*
X158675646Y-116300147D01*
X158823216Y-116201544D01*
X158987188Y-116133624D01*
X159161259Y-116099000D01*
X159338741Y-116099000D01*
X159512812Y-116133624D01*
X159512812Y-116133624D01*
G37*
G36*
X157085734Y-114643232D02*
X157295202Y-114729996D01*
X157483723Y-114855962D01*
X157644038Y-115016277D01*
X157770004Y-115204798D01*
X157856768Y-115414266D01*
X157901000Y-115636635D01*
X157901000Y-115863365D01*
X157856768Y-116085734D01*
X157770004Y-116295202D01*
X157644038Y-116483723D01*
X157483723Y-116644038D01*
X157295202Y-116770004D01*
X157085734Y-116856768D01*
X156863365Y-116901000D01*
X156636635Y-116901000D01*
X156414266Y-116856768D01*
X156204798Y-116770004D01*
X156016277Y-116644038D01*
X155855962Y-116483723D01*
X155729996Y-116295202D01*
X155643232Y-116085734D01*
X155599000Y-115863365D01*
X155599000Y-115636635D01*
X155643232Y-115414266D01*
X155729996Y-115204798D01*
X155855962Y-115016277D01*
X156016277Y-114855962D01*
X156204798Y-114729996D01*
X156414266Y-114643232D01*
X156636635Y-114599000D01*
X156863365Y-114599000D01*
X157085734Y-114643232D01*
X157085734Y-114643232D01*
G37*
G36*
X133151000Y-116551000D02*
X130849000Y-116551000D01*
X130849000Y-115449000D01*
X133151000Y-115449000D01*
X133151000Y-116551000D01*
X133151000Y-116551000D01*
G37*
G36*
X149151000Y-116551000D02*
X146849000Y-116551000D01*
X146849000Y-115449000D01*
X149151000Y-115449000D01*
X149151000Y-116551000D01*
X149151000Y-116551000D01*
G37*
G36*
X141551000Y-115301000D02*
X140449000Y-115301000D01*
X140449000Y-113699000D01*
X141551000Y-113699000D01*
X141551000Y-115301000D01*
X141551000Y-115301000D01*
G37*
G36*
X145551000Y-115301000D02*
X144449000Y-115301000D01*
X144449000Y-113699000D01*
X145551000Y-113699000D01*
X145551000Y-115301000D01*
X145551000Y-115301000D01*
G37*
G36*
X143551000Y-115301000D02*
X142449000Y-115301000D01*
X142449000Y-113699000D01*
X143551000Y-113699000D01*
X143551000Y-115301000D01*
X143551000Y-115301000D01*
G37*
G36*
X139551000Y-115301000D02*
X138449000Y-115301000D01*
X138449000Y-113699000D01*
X139551000Y-113699000D01*
X139551000Y-115301000D01*
X139551000Y-115301000D01*
G37*
G36*
X137551000Y-115301000D02*
X136449000Y-115301000D01*
X136449000Y-113699000D01*
X137551000Y-113699000D01*
X137551000Y-115301000D01*
X137551000Y-115301000D01*
G37*
G36*
X135551000Y-115301000D02*
X134449000Y-115301000D01*
X134449000Y-113699000D01*
X135551000Y-113699000D01*
X135551000Y-115301000D01*
X135551000Y-115301000D01*
G37*
G36*
X132884466Y-110766065D02*
X132923137Y-110777796D01*
X132958779Y-110796848D01*
X132990017Y-110822483D01*
X133015652Y-110853721D01*
X133034704Y-110889363D01*
X133046435Y-110928034D01*
X133051000Y-110974388D01*
X133051000Y-111625612D01*
X133046435Y-111671966D01*
X133034704Y-111710637D01*
X133015652Y-111746279D01*
X132990017Y-111777517D01*
X132958779Y-111803152D01*
X132923137Y-111822204D01*
X132884466Y-111833935D01*
X132838112Y-111838500D01*
X131761888Y-111838500D01*
X131715534Y-111833935D01*
X131676863Y-111822204D01*
X131641221Y-111803152D01*
X131609983Y-111777517D01*
X131584348Y-111746279D01*
X131565296Y-111710637D01*
X131553565Y-111671966D01*
X131549000Y-111625612D01*
X131549000Y-110974388D01*
X131553565Y-110928034D01*
X131565296Y-110889363D01*
X131584348Y-110853721D01*
X131609983Y-110822483D01*
X131641221Y-110796848D01*
X131676863Y-110777796D01*
X131715534Y-110766065D01*
X131761888Y-110761500D01*
X132838112Y-110761500D01*
X132884466Y-110766065D01*
X132884466Y-110766065D01*
G37*
G36*
X152210443Y-109405519D02*
X152276627Y-109412037D01*
X152389853Y-109446384D01*
X152446467Y-109463557D01*
X152585087Y-109537652D01*
X152602991Y-109547222D01*
X152638729Y-109576552D01*
X152740186Y-109659814D01*
X152811554Y-109746778D01*
X152852778Y-109797009D01*
X152852779Y-109797011D01*
X152936443Y-109953533D01*
X152939466Y-109963500D01*
X152987963Y-110123373D01*
X153005359Y-110300000D01*
X152987963Y-110476627D01*
X152953616Y-110589853D01*
X152936443Y-110646467D01*
X152874956Y-110761500D01*
X152852778Y-110802991D01*
X152836781Y-110822483D01*
X152740186Y-110940186D01*
X152638729Y-111023448D01*
X152602991Y-111052778D01*
X152602989Y-111052779D01*
X152446467Y-111136443D01*
X152389853Y-111153616D01*
X152276627Y-111187963D01*
X152210442Y-111194482D01*
X152144260Y-111201000D01*
X152055740Y-111201000D01*
X151989558Y-111194482D01*
X151923373Y-111187963D01*
X151810147Y-111153616D01*
X151753533Y-111136443D01*
X151597011Y-111052779D01*
X151597009Y-111052778D01*
X151561271Y-111023448D01*
X151459814Y-110940186D01*
X151363219Y-110822483D01*
X151347222Y-110802991D01*
X151325044Y-110761500D01*
X151263557Y-110646467D01*
X151246384Y-110589853D01*
X151212037Y-110476627D01*
X151194641Y-110300000D01*
X151212037Y-110123373D01*
X151260534Y-109963500D01*
X151263557Y-109953533D01*
X151347221Y-109797011D01*
X151347222Y-109797009D01*
X151388446Y-109746778D01*
X151459814Y-109659814D01*
X151561271Y-109576552D01*
X151597009Y-109547222D01*
X151614913Y-109537652D01*
X151753533Y-109463557D01*
X151810147Y-109446384D01*
X151923373Y-109412037D01*
X151989557Y-109405519D01*
X152055740Y-109399000D01*
X152144260Y-109399000D01*
X152210443Y-109405519D01*
X152210443Y-109405519D01*
G37*
G36*
X149670443Y-109405519D02*
X149736627Y-109412037D01*
X149849853Y-109446384D01*
X149906467Y-109463557D01*
X150045087Y-109537652D01*
X150062991Y-109547222D01*
X150098729Y-109576552D01*
X150200186Y-109659814D01*
X150271554Y-109746778D01*
X150312778Y-109797009D01*
X150312779Y-109797011D01*
X150396443Y-109953533D01*
X150399466Y-109963500D01*
X150447963Y-110123373D01*
X150465359Y-110300000D01*
X150447963Y-110476627D01*
X150413616Y-110589853D01*
X150396443Y-110646467D01*
X150334956Y-110761500D01*
X150312778Y-110802991D01*
X150296781Y-110822483D01*
X150200186Y-110940186D01*
X150098729Y-111023448D01*
X150062991Y-111052778D01*
X150062989Y-111052779D01*
X149906467Y-111136443D01*
X149849853Y-111153616D01*
X149736627Y-111187963D01*
X149670442Y-111194482D01*
X149604260Y-111201000D01*
X149515740Y-111201000D01*
X149449558Y-111194482D01*
X149383373Y-111187963D01*
X149270147Y-111153616D01*
X149213533Y-111136443D01*
X149057011Y-111052779D01*
X149057009Y-111052778D01*
X149021271Y-111023448D01*
X148919814Y-110940186D01*
X148823219Y-110822483D01*
X148807222Y-110802991D01*
X148785044Y-110761500D01*
X148723557Y-110646467D01*
X148706384Y-110589853D01*
X148672037Y-110476627D01*
X148654641Y-110300000D01*
X148672037Y-110123373D01*
X148720534Y-109963500D01*
X148723557Y-109953533D01*
X148807221Y-109797011D01*
X148807222Y-109797009D01*
X148848446Y-109746778D01*
X148919814Y-109659814D01*
X149021271Y-109576552D01*
X149057009Y-109547222D01*
X149074913Y-109537652D01*
X149213533Y-109463557D01*
X149270147Y-109446384D01*
X149383373Y-109412037D01*
X149449557Y-109405519D01*
X149515740Y-109399000D01*
X149604260Y-109399000D01*
X149670443Y-109405519D01*
X149670443Y-109405519D01*
G37*
G36*
X147130443Y-109405519D02*
X147196627Y-109412037D01*
X147309853Y-109446384D01*
X147366467Y-109463557D01*
X147505087Y-109537652D01*
X147522991Y-109547222D01*
X147558729Y-109576552D01*
X147660186Y-109659814D01*
X147731554Y-109746778D01*
X147772778Y-109797009D01*
X147772779Y-109797011D01*
X147856443Y-109953533D01*
X147859466Y-109963500D01*
X147907963Y-110123373D01*
X147925359Y-110300000D01*
X147907963Y-110476627D01*
X147873616Y-110589853D01*
X147856443Y-110646467D01*
X147794956Y-110761500D01*
X147772778Y-110802991D01*
X147756781Y-110822483D01*
X147660186Y-110940186D01*
X147558729Y-111023448D01*
X147522991Y-111052778D01*
X147522989Y-111052779D01*
X147366467Y-111136443D01*
X147309853Y-111153616D01*
X147196627Y-111187963D01*
X147130442Y-111194482D01*
X147064260Y-111201000D01*
X146975740Y-111201000D01*
X146909558Y-111194482D01*
X146843373Y-111187963D01*
X146730147Y-111153616D01*
X146673533Y-111136443D01*
X146517011Y-111052779D01*
X146517009Y-111052778D01*
X146481271Y-111023448D01*
X146379814Y-110940186D01*
X146283219Y-110822483D01*
X146267222Y-110802991D01*
X146245044Y-110761500D01*
X146183557Y-110646467D01*
X146166384Y-110589853D01*
X146132037Y-110476627D01*
X146114641Y-110300000D01*
X146132037Y-110123373D01*
X146180534Y-109963500D01*
X146183557Y-109953533D01*
X146267221Y-109797011D01*
X146267222Y-109797009D01*
X146308446Y-109746778D01*
X146379814Y-109659814D01*
X146481271Y-109576552D01*
X146517009Y-109547222D01*
X146534913Y-109537652D01*
X146673533Y-109463557D01*
X146730147Y-109446384D01*
X146843373Y-109412037D01*
X146909557Y-109405519D01*
X146975740Y-109399000D01*
X147064260Y-109399000D01*
X147130443Y-109405519D01*
X147130443Y-109405519D01*
G37*
G36*
X144590443Y-109405519D02*
X144656627Y-109412037D01*
X144769853Y-109446384D01*
X144826467Y-109463557D01*
X144965087Y-109537652D01*
X144982991Y-109547222D01*
X145018729Y-109576552D01*
X145120186Y-109659814D01*
X145191554Y-109746778D01*
X145232778Y-109797009D01*
X145232779Y-109797011D01*
X145316443Y-109953533D01*
X145319466Y-109963500D01*
X145367963Y-110123373D01*
X145385359Y-110300000D01*
X145367963Y-110476627D01*
X145333616Y-110589853D01*
X145316443Y-110646467D01*
X145254956Y-110761500D01*
X145232778Y-110802991D01*
X145216781Y-110822483D01*
X145120186Y-110940186D01*
X145018729Y-111023448D01*
X144982991Y-111052778D01*
X144982989Y-111052779D01*
X144826467Y-111136443D01*
X144769853Y-111153616D01*
X144656627Y-111187963D01*
X144590442Y-111194482D01*
X144524260Y-111201000D01*
X144435740Y-111201000D01*
X144369558Y-111194482D01*
X144303373Y-111187963D01*
X144190147Y-111153616D01*
X144133533Y-111136443D01*
X143977011Y-111052779D01*
X143977009Y-111052778D01*
X143941271Y-111023448D01*
X143839814Y-110940186D01*
X143743219Y-110822483D01*
X143727222Y-110802991D01*
X143705044Y-110761500D01*
X143643557Y-110646467D01*
X143626384Y-110589853D01*
X143592037Y-110476627D01*
X143574641Y-110300000D01*
X143592037Y-110123373D01*
X143640534Y-109963500D01*
X143643557Y-109953533D01*
X143727221Y-109797011D01*
X143727222Y-109797009D01*
X143768446Y-109746778D01*
X143839814Y-109659814D01*
X143941271Y-109576552D01*
X143977009Y-109547222D01*
X143994913Y-109537652D01*
X144133533Y-109463557D01*
X144190147Y-109446384D01*
X144303373Y-109412037D01*
X144369557Y-109405519D01*
X144435740Y-109399000D01*
X144524260Y-109399000D01*
X144590443Y-109405519D01*
X144590443Y-109405519D01*
G37*
G36*
X142050443Y-109405519D02*
X142116627Y-109412037D01*
X142229853Y-109446384D01*
X142286467Y-109463557D01*
X142425087Y-109537652D01*
X142442991Y-109547222D01*
X142478729Y-109576552D01*
X142580186Y-109659814D01*
X142651554Y-109746778D01*
X142692778Y-109797009D01*
X142692779Y-109797011D01*
X142776443Y-109953533D01*
X142779466Y-109963500D01*
X142827963Y-110123373D01*
X142845359Y-110300000D01*
X142827963Y-110476627D01*
X142793616Y-110589853D01*
X142776443Y-110646467D01*
X142714956Y-110761500D01*
X142692778Y-110802991D01*
X142676781Y-110822483D01*
X142580186Y-110940186D01*
X142478729Y-111023448D01*
X142442991Y-111052778D01*
X142442989Y-111052779D01*
X142286467Y-111136443D01*
X142229853Y-111153616D01*
X142116627Y-111187963D01*
X142050442Y-111194482D01*
X141984260Y-111201000D01*
X141895740Y-111201000D01*
X141829558Y-111194482D01*
X141763373Y-111187963D01*
X141650147Y-111153616D01*
X141593533Y-111136443D01*
X141437011Y-111052779D01*
X141437009Y-111052778D01*
X141401271Y-111023448D01*
X141299814Y-110940186D01*
X141203219Y-110822483D01*
X141187222Y-110802991D01*
X141165044Y-110761500D01*
X141103557Y-110646467D01*
X141086384Y-110589853D01*
X141052037Y-110476627D01*
X141034641Y-110300000D01*
X141052037Y-110123373D01*
X141100534Y-109963500D01*
X141103557Y-109953533D01*
X141187221Y-109797011D01*
X141187222Y-109797009D01*
X141228446Y-109746778D01*
X141299814Y-109659814D01*
X141401271Y-109576552D01*
X141437009Y-109547222D01*
X141454913Y-109537652D01*
X141593533Y-109463557D01*
X141650147Y-109446384D01*
X141763373Y-109412037D01*
X141829557Y-109405519D01*
X141895740Y-109399000D01*
X141984260Y-109399000D01*
X142050443Y-109405519D01*
X142050443Y-109405519D01*
G37*
G36*
X140301000Y-111201000D02*
X138499000Y-111201000D01*
X138499000Y-109399000D01*
X140301000Y-109399000D01*
X140301000Y-111201000D01*
X140301000Y-111201000D01*
G37*
G36*
X132884466Y-108891065D02*
X132923137Y-108902796D01*
X132958779Y-108921848D01*
X132990017Y-108947483D01*
X133015652Y-108978721D01*
X133034704Y-109014363D01*
X133046435Y-109053034D01*
X133051000Y-109099388D01*
X133051000Y-109750612D01*
X133046435Y-109796966D01*
X133034704Y-109835637D01*
X133015652Y-109871279D01*
X132990017Y-109902517D01*
X132958779Y-109928152D01*
X132923137Y-109947204D01*
X132884466Y-109958935D01*
X132838112Y-109963500D01*
X131761888Y-109963500D01*
X131715534Y-109958935D01*
X131676863Y-109947204D01*
X131641221Y-109928152D01*
X131609983Y-109902517D01*
X131584348Y-109871279D01*
X131565296Y-109835637D01*
X131553565Y-109796966D01*
X131549000Y-109750612D01*
X131549000Y-109099388D01*
X131553565Y-109053034D01*
X131565296Y-109014363D01*
X131584348Y-108978721D01*
X131609983Y-108947483D01*
X131641221Y-108921848D01*
X131676863Y-108902796D01*
X131715534Y-108891065D01*
X131761888Y-108886500D01*
X132838112Y-108886500D01*
X132884466Y-108891065D01*
X132884466Y-108891065D01*
G37*
G36*
X147130443Y-106865519D02*
X147196627Y-106872037D01*
X147309853Y-106906384D01*
X147366467Y-106923557D01*
X147505087Y-106997652D01*
X147522991Y-107007222D01*
X147558729Y-107036552D01*
X147660186Y-107119814D01*
X147743448Y-107221271D01*
X147772778Y-107257009D01*
X147772779Y-107257011D01*
X147856443Y-107413533D01*
X147856443Y-107413534D01*
X147907963Y-107583373D01*
X147925359Y-107760000D01*
X147907963Y-107936627D01*
X147873616Y-108049853D01*
X147856443Y-108106467D01*
X147782348Y-108245087D01*
X147772778Y-108262991D01*
X147743448Y-108298729D01*
X147660186Y-108400186D01*
X147558729Y-108483448D01*
X147522991Y-108512778D01*
X147522989Y-108512779D01*
X147366467Y-108596443D01*
X147309853Y-108613616D01*
X147196627Y-108647963D01*
X147130443Y-108654481D01*
X147064260Y-108661000D01*
X146975740Y-108661000D01*
X146909557Y-108654481D01*
X146843373Y-108647963D01*
X146730147Y-108613616D01*
X146673533Y-108596443D01*
X146517011Y-108512779D01*
X146517009Y-108512778D01*
X146481271Y-108483448D01*
X146379814Y-108400186D01*
X146296552Y-108298729D01*
X146267222Y-108262991D01*
X146257652Y-108245087D01*
X146183557Y-108106467D01*
X146166384Y-108049853D01*
X146132037Y-107936627D01*
X146114641Y-107760000D01*
X146132037Y-107583373D01*
X146183557Y-107413534D01*
X146183557Y-107413533D01*
X146267221Y-107257011D01*
X146267222Y-107257009D01*
X146296552Y-107221271D01*
X146379814Y-107119814D01*
X146481271Y-107036552D01*
X146517009Y-107007222D01*
X146534913Y-106997652D01*
X146673533Y-106923557D01*
X146730147Y-106906384D01*
X146843373Y-106872037D01*
X146909557Y-106865519D01*
X146975740Y-106859000D01*
X147064260Y-106859000D01*
X147130443Y-106865519D01*
X147130443Y-106865519D01*
G37*
G36*
X152210443Y-106865519D02*
X152276627Y-106872037D01*
X152389853Y-106906384D01*
X152446467Y-106923557D01*
X152585087Y-106997652D01*
X152602991Y-107007222D01*
X152638729Y-107036552D01*
X152740186Y-107119814D01*
X152823448Y-107221271D01*
X152852778Y-107257009D01*
X152852779Y-107257011D01*
X152936443Y-107413533D01*
X152936443Y-107413534D01*
X152987963Y-107583373D01*
X153005359Y-107760000D01*
X152987963Y-107936627D01*
X152953616Y-108049853D01*
X152936443Y-108106467D01*
X152862348Y-108245087D01*
X152852778Y-108262991D01*
X152823448Y-108298729D01*
X152740186Y-108400186D01*
X152638729Y-108483448D01*
X152602991Y-108512778D01*
X152602989Y-108512779D01*
X152446467Y-108596443D01*
X152389853Y-108613616D01*
X152276627Y-108647963D01*
X152210443Y-108654481D01*
X152144260Y-108661000D01*
X152055740Y-108661000D01*
X151989557Y-108654481D01*
X151923373Y-108647963D01*
X151810147Y-108613616D01*
X151753533Y-108596443D01*
X151597011Y-108512779D01*
X151597009Y-108512778D01*
X151561271Y-108483448D01*
X151459814Y-108400186D01*
X151376552Y-108298729D01*
X151347222Y-108262991D01*
X151337652Y-108245087D01*
X151263557Y-108106467D01*
X151246384Y-108049853D01*
X151212037Y-107936627D01*
X151194641Y-107760000D01*
X151212037Y-107583373D01*
X151263557Y-107413534D01*
X151263557Y-107413533D01*
X151347221Y-107257011D01*
X151347222Y-107257009D01*
X151376552Y-107221271D01*
X151459814Y-107119814D01*
X151561271Y-107036552D01*
X151597009Y-107007222D01*
X151614913Y-106997652D01*
X151753533Y-106923557D01*
X151810147Y-106906384D01*
X151923373Y-106872037D01*
X151989557Y-106865519D01*
X152055740Y-106859000D01*
X152144260Y-106859000D01*
X152210443Y-106865519D01*
X152210443Y-106865519D01*
G37*
G36*
X149670443Y-106865519D02*
X149736627Y-106872037D01*
X149849853Y-106906384D01*
X149906467Y-106923557D01*
X150045087Y-106997652D01*
X150062991Y-107007222D01*
X150098729Y-107036552D01*
X150200186Y-107119814D01*
X150283448Y-107221271D01*
X150312778Y-107257009D01*
X150312779Y-107257011D01*
X150396443Y-107413533D01*
X150396443Y-107413534D01*
X150447963Y-107583373D01*
X150465359Y-107760000D01*
X150447963Y-107936627D01*
X150413616Y-108049853D01*
X150396443Y-108106467D01*
X150322348Y-108245087D01*
X150312778Y-108262991D01*
X150283448Y-108298729D01*
X150200186Y-108400186D01*
X150098729Y-108483448D01*
X150062991Y-108512778D01*
X150062989Y-108512779D01*
X149906467Y-108596443D01*
X149849853Y-108613616D01*
X149736627Y-108647963D01*
X149670443Y-108654481D01*
X149604260Y-108661000D01*
X149515740Y-108661000D01*
X149449557Y-108654481D01*
X149383373Y-108647963D01*
X149270147Y-108613616D01*
X149213533Y-108596443D01*
X149057011Y-108512779D01*
X149057009Y-108512778D01*
X149021271Y-108483448D01*
X148919814Y-108400186D01*
X148836552Y-108298729D01*
X148807222Y-108262991D01*
X148797652Y-108245087D01*
X148723557Y-108106467D01*
X148706384Y-108049853D01*
X148672037Y-107936627D01*
X148654641Y-107760000D01*
X148672037Y-107583373D01*
X148723557Y-107413534D01*
X148723557Y-107413533D01*
X148807221Y-107257011D01*
X148807222Y-107257009D01*
X148836552Y-107221271D01*
X148919814Y-107119814D01*
X149021271Y-107036552D01*
X149057009Y-107007222D01*
X149074913Y-106997652D01*
X149213533Y-106923557D01*
X149270147Y-106906384D01*
X149383373Y-106872037D01*
X149449557Y-106865519D01*
X149515740Y-106859000D01*
X149604260Y-106859000D01*
X149670443Y-106865519D01*
X149670443Y-106865519D01*
G37*
G36*
X142050443Y-106865519D02*
X142116627Y-106872037D01*
X142229853Y-106906384D01*
X142286467Y-106923557D01*
X142425087Y-106997652D01*
X142442991Y-107007222D01*
X142478729Y-107036552D01*
X142580186Y-107119814D01*
X142663448Y-107221271D01*
X142692778Y-107257009D01*
X142692779Y-107257011D01*
X142776443Y-107413533D01*
X142776443Y-107413534D01*
X142827963Y-107583373D01*
X142845359Y-107760000D01*
X142827963Y-107936627D01*
X142793616Y-108049853D01*
X142776443Y-108106467D01*
X142702348Y-108245087D01*
X142692778Y-108262991D01*
X142663448Y-108298729D01*
X142580186Y-108400186D01*
X142478729Y-108483448D01*
X142442991Y-108512778D01*
X142442989Y-108512779D01*
X142286467Y-108596443D01*
X142229853Y-108613616D01*
X142116627Y-108647963D01*
X142050443Y-108654481D01*
X141984260Y-108661000D01*
X141895740Y-108661000D01*
X141829557Y-108654481D01*
X141763373Y-108647963D01*
X141650147Y-108613616D01*
X141593533Y-108596443D01*
X141437011Y-108512779D01*
X141437009Y-108512778D01*
X141401271Y-108483448D01*
X141299814Y-108400186D01*
X141216552Y-108298729D01*
X141187222Y-108262991D01*
X141177652Y-108245087D01*
X141103557Y-108106467D01*
X141086384Y-108049853D01*
X141052037Y-107936627D01*
X141034641Y-107760000D01*
X141052037Y-107583373D01*
X141103557Y-107413534D01*
X141103557Y-107413533D01*
X141187221Y-107257011D01*
X141187222Y-107257009D01*
X141216552Y-107221271D01*
X141299814Y-107119814D01*
X141401271Y-107036552D01*
X141437009Y-107007222D01*
X141454913Y-106997652D01*
X141593533Y-106923557D01*
X141650147Y-106906384D01*
X141763373Y-106872037D01*
X141829557Y-106865519D01*
X141895740Y-106859000D01*
X141984260Y-106859000D01*
X142050443Y-106865519D01*
X142050443Y-106865519D01*
G37*
G36*
X144590443Y-106865519D02*
X144656627Y-106872037D01*
X144769853Y-106906384D01*
X144826467Y-106923557D01*
X144965087Y-106997652D01*
X144982991Y-107007222D01*
X145018729Y-107036552D01*
X145120186Y-107119814D01*
X145203448Y-107221271D01*
X145232778Y-107257009D01*
X145232779Y-107257011D01*
X145316443Y-107413533D01*
X145316443Y-107413534D01*
X145367963Y-107583373D01*
X145385359Y-107760000D01*
X145367963Y-107936627D01*
X145333616Y-108049853D01*
X145316443Y-108106467D01*
X145242348Y-108245087D01*
X145232778Y-108262991D01*
X145203448Y-108298729D01*
X145120186Y-108400186D01*
X145018729Y-108483448D01*
X144982991Y-108512778D01*
X144982989Y-108512779D01*
X144826467Y-108596443D01*
X144769853Y-108613616D01*
X144656627Y-108647963D01*
X144590443Y-108654481D01*
X144524260Y-108661000D01*
X144435740Y-108661000D01*
X144369557Y-108654481D01*
X144303373Y-108647963D01*
X144190147Y-108613616D01*
X144133533Y-108596443D01*
X143977011Y-108512779D01*
X143977009Y-108512778D01*
X143941271Y-108483448D01*
X143839814Y-108400186D01*
X143756552Y-108298729D01*
X143727222Y-108262991D01*
X143717652Y-108245087D01*
X143643557Y-108106467D01*
X143626384Y-108049853D01*
X143592037Y-107936627D01*
X143574641Y-107760000D01*
X143592037Y-107583373D01*
X143643557Y-107413534D01*
X143643557Y-107413533D01*
X143727221Y-107257011D01*
X143727222Y-107257009D01*
X143756552Y-107221271D01*
X143839814Y-107119814D01*
X143941271Y-107036552D01*
X143977009Y-107007222D01*
X143994913Y-106997652D01*
X144133533Y-106923557D01*
X144190147Y-106906384D01*
X144303373Y-106872037D01*
X144369557Y-106865519D01*
X144435740Y-106859000D01*
X144524260Y-106859000D01*
X144590443Y-106865519D01*
X144590443Y-106865519D01*
G37*
G36*
X139510443Y-106865519D02*
X139576627Y-106872037D01*
X139689853Y-106906384D01*
X139746467Y-106923557D01*
X139885087Y-106997652D01*
X139902991Y-107007222D01*
X139938729Y-107036552D01*
X140040186Y-107119814D01*
X140123448Y-107221271D01*
X140152778Y-107257009D01*
X140152779Y-107257011D01*
X140236443Y-107413533D01*
X140236443Y-107413534D01*
X140287963Y-107583373D01*
X140305359Y-107760000D01*
X140287963Y-107936627D01*
X140253616Y-108049853D01*
X140236443Y-108106467D01*
X140162348Y-108245087D01*
X140152778Y-108262991D01*
X140123448Y-108298729D01*
X140040186Y-108400186D01*
X139938729Y-108483448D01*
X139902991Y-108512778D01*
X139902989Y-108512779D01*
X139746467Y-108596443D01*
X139689853Y-108613616D01*
X139576627Y-108647963D01*
X139510443Y-108654481D01*
X139444260Y-108661000D01*
X139355740Y-108661000D01*
X139289557Y-108654481D01*
X139223373Y-108647963D01*
X139110147Y-108613616D01*
X139053533Y-108596443D01*
X138897011Y-108512779D01*
X138897009Y-108512778D01*
X138861271Y-108483448D01*
X138759814Y-108400186D01*
X138676552Y-108298729D01*
X138647222Y-108262991D01*
X138637652Y-108245087D01*
X138563557Y-108106467D01*
X138546384Y-108049853D01*
X138512037Y-107936627D01*
X138494641Y-107760000D01*
X138512037Y-107583373D01*
X138563557Y-107413534D01*
X138563557Y-107413533D01*
X138647221Y-107257011D01*
X138647222Y-107257009D01*
X138676552Y-107221271D01*
X138759814Y-107119814D01*
X138861271Y-107036552D01*
X138897009Y-107007222D01*
X138914913Y-106997652D01*
X139053533Y-106923557D01*
X139110147Y-106906384D01*
X139223373Y-106872037D01*
X139289557Y-106865519D01*
X139355740Y-106859000D01*
X139444260Y-106859000D01*
X139510443Y-106865519D01*
X139510443Y-106865519D01*
G37*
G36*
X160647714Y-103508058D02*
X160647717Y-103508059D01*
X160765719Y-103543854D01*
X160765721Y-103543855D01*
X160874471Y-103601983D01*
X160969790Y-103680210D01*
X161048017Y-103775529D01*
X161106145Y-103884279D01*
X161141942Y-104002286D01*
X161154028Y-104125000D01*
X161141942Y-104247714D01*
X161106145Y-104365721D01*
X161048017Y-104474471D01*
X160969790Y-104569790D01*
X160874471Y-104648017D01*
X160874469Y-104648018D01*
X160765719Y-104706146D01*
X160669683Y-104735278D01*
X160647714Y-104741942D01*
X160555747Y-104751000D01*
X159844253Y-104751000D01*
X159752286Y-104741942D01*
X159730317Y-104735278D01*
X159634281Y-104706146D01*
X159525531Y-104648018D01*
X159525529Y-104648017D01*
X159430210Y-104569790D01*
X159351983Y-104474471D01*
X159293855Y-104365721D01*
X159258058Y-104247714D01*
X159245972Y-104125000D01*
X159258058Y-104002286D01*
X159293855Y-103884279D01*
X159351983Y-103775529D01*
X159430210Y-103680210D01*
X159525529Y-103601983D01*
X159634279Y-103543855D01*
X159634281Y-103543854D01*
X159752283Y-103508059D01*
X159752286Y-103508058D01*
X159844253Y-103499000D01*
X160555747Y-103499000D01*
X160647714Y-103508058D01*
X160647714Y-103508058D01*
G37*
G36*
X157101000Y-102216612D02*
X157103402Y-102240998D01*
X157110515Y-102264447D01*
X157122066Y-102286058D01*
X157137612Y-102305000D01*
X157156554Y-102320546D01*
X157178165Y-102332097D01*
X157201614Y-102339210D01*
X157226000Y-102341612D01*
X157250386Y-102339210D01*
X157264781Y-102334844D01*
X157264794Y-102334888D01*
X157276579Y-102331313D01*
X157282983Y-102329370D01*
X157361587Y-102305525D01*
X157427842Y-102299000D01*
X157472158Y-102299000D01*
X157538413Y-102305525D01*
X157613456Y-102328290D01*
X157623425Y-102331314D01*
X157701774Y-102373193D01*
X157770448Y-102429552D01*
X157826807Y-102498226D01*
X157868686Y-102576575D01*
X157868687Y-102576579D01*
X157894475Y-102661587D01*
X157903182Y-102750000D01*
X157894475Y-102838413D01*
X157871710Y-102913456D01*
X157868686Y-102923425D01*
X157826807Y-103001774D01*
X157770448Y-103070448D01*
X157701774Y-103126807D01*
X157623425Y-103168686D01*
X157613456Y-103171710D01*
X157538413Y-103194475D01*
X157472158Y-103201000D01*
X157427842Y-103201000D01*
X157361589Y-103194475D01*
X157326511Y-103183833D01*
X157305476Y-103177453D01*
X157281449Y-103172673D01*
X157256945Y-103172673D01*
X157232911Y-103177453D01*
X157210272Y-103186830D01*
X157189897Y-103200444D01*
X157172570Y-103217770D01*
X157158956Y-103238145D01*
X157149578Y-103260784D01*
X157144797Y-103284817D01*
X157144797Y-103309321D01*
X157149577Y-103333355D01*
X157158954Y-103355994D01*
X157172568Y-103376369D01*
X157189895Y-103393696D01*
X157226368Y-103423630D01*
X157323341Y-103541790D01*
X157323342Y-103541792D01*
X157395399Y-103676601D01*
X157425408Y-103775529D01*
X157439772Y-103822881D01*
X157454754Y-103975000D01*
X157439772Y-104127119D01*
X157439771Y-104127122D01*
X157430306Y-104158326D01*
X157395398Y-104273401D01*
X157323341Y-104408210D01*
X157226369Y-104526369D01*
X157108210Y-104623341D01*
X157062043Y-104648018D01*
X156973399Y-104695399D01*
X156854352Y-104731511D01*
X156827119Y-104739772D01*
X156713118Y-104751000D01*
X156086882Y-104751000D01*
X155972881Y-104739772D01*
X155945648Y-104731511D01*
X155826601Y-104695399D01*
X155737957Y-104648018D01*
X155691790Y-104623341D01*
X155573631Y-104526369D01*
X155476659Y-104408210D01*
X155404602Y-104273401D01*
X155369695Y-104158326D01*
X155360229Y-104127122D01*
X155360228Y-104127119D01*
X155345246Y-103975000D01*
X155360228Y-103822881D01*
X155374592Y-103775529D01*
X155404601Y-103676601D01*
X155476658Y-103541792D01*
X155476659Y-103541790D01*
X155573631Y-103423631D01*
X155691790Y-103326659D01*
X155826599Y-103254602D01*
X155826601Y-103254601D01*
X155972878Y-103210229D01*
X155972881Y-103210228D01*
X156086882Y-103199000D01*
X156713118Y-103199000D01*
X156827119Y-103210228D01*
X156827122Y-103210229D01*
X156973399Y-103254601D01*
X156973401Y-103254602D01*
X156980792Y-103256844D01*
X156989246Y-103260345D01*
X157013279Y-103265123D01*
X157037784Y-103265121D01*
X157061817Y-103260338D01*
X157084455Y-103250959D01*
X157104828Y-103237344D01*
X157122154Y-103220015D01*
X157135766Y-103199639D01*
X157145142Y-103176999D01*
X157149920Y-103152966D01*
X157149918Y-103128461D01*
X157145135Y-103104428D01*
X157135756Y-103081790D01*
X157122150Y-103061429D01*
X157098504Y-103032615D01*
X157073193Y-103001775D01*
X157059809Y-102976735D01*
X157031314Y-102923425D01*
X157028290Y-102913456D01*
X157005525Y-102838413D01*
X156996818Y-102750000D01*
X157005525Y-102661587D01*
X157031313Y-102576579D01*
X157031314Y-102576575D01*
X157031315Y-102576572D01*
X157034057Y-102567535D01*
X157036225Y-102562302D01*
X157041008Y-102538269D01*
X157041012Y-102513765D01*
X157036235Y-102489731D01*
X157026860Y-102467091D01*
X157013249Y-102446714D01*
X156995925Y-102429385D01*
X156975552Y-102415768D01*
X156952914Y-102406387D01*
X156928881Y-102401604D01*
X156916612Y-102401000D01*
X154999000Y-102401000D01*
X154999000Y-101299000D01*
X157101000Y-101299000D01*
X157101000Y-102216612D01*
X157101000Y-102216612D01*
G37*
G36*
X150151000Y-104301000D02*
X148549000Y-104301000D01*
X148549000Y-102199000D01*
X150151000Y-102199000D01*
X150151000Y-104301000D01*
X150151000Y-104301000D01*
G37*
G36*
X145551000Y-104301000D02*
X143949000Y-104301000D01*
X143949000Y-102199000D01*
X145551000Y-102199000D01*
X145551000Y-104301000D01*
X145551000Y-104301000D01*
G37*
G36*
X147851000Y-104301000D02*
X146249000Y-104301000D01*
X146249000Y-102199000D01*
X147851000Y-102199000D01*
X147851000Y-104301000D01*
X147851000Y-104301000D01*
G37*
G36*
X141584466Y-103091065D02*
X141623137Y-103102796D01*
X141658779Y-103121848D01*
X141690017Y-103147483D01*
X141715652Y-103178721D01*
X141734704Y-103214363D01*
X141746435Y-103253034D01*
X141751000Y-103299388D01*
X141751000Y-103950612D01*
X141746435Y-103996966D01*
X141734704Y-104035637D01*
X141715652Y-104071279D01*
X141690017Y-104102517D01*
X141658779Y-104128152D01*
X141623137Y-104147204D01*
X141584466Y-104158935D01*
X141538112Y-104163500D01*
X140461888Y-104163500D01*
X140415534Y-104158935D01*
X140376863Y-104147204D01*
X140341221Y-104128152D01*
X140309983Y-104102517D01*
X140284348Y-104071279D01*
X140265296Y-104035637D01*
X140253565Y-103996966D01*
X140249000Y-103950612D01*
X140249000Y-103299388D01*
X140253565Y-103253034D01*
X140265296Y-103214363D01*
X140284348Y-103178721D01*
X140309983Y-103147483D01*
X140341221Y-103121848D01*
X140376863Y-103102796D01*
X140415534Y-103091065D01*
X140461888Y-103086500D01*
X141538112Y-103086500D01*
X141584466Y-103091065D01*
X141584466Y-103091065D01*
G37*
G36*
X137121966Y-101003565D02*
X137160637Y-101015296D01*
X137196279Y-101034348D01*
X137227517Y-101059983D01*
X137253152Y-101091221D01*
X137272204Y-101126863D01*
X137283935Y-101165534D01*
X137288500Y-101211888D01*
X137288500Y-102288112D01*
X137283935Y-102334466D01*
X137272204Y-102373137D01*
X137253152Y-102408779D01*
X137227517Y-102440017D01*
X137196279Y-102465652D01*
X137160637Y-102484704D01*
X137121966Y-102496435D01*
X137075612Y-102501000D01*
X136424388Y-102501000D01*
X136378034Y-102496435D01*
X136339363Y-102484704D01*
X136303721Y-102465652D01*
X136272483Y-102440017D01*
X136246848Y-102408779D01*
X136227796Y-102373137D01*
X136216065Y-102334466D01*
X136211500Y-102288112D01*
X136211500Y-101211888D01*
X136216065Y-101165534D01*
X136227796Y-101126863D01*
X136246848Y-101091221D01*
X136272483Y-101059983D01*
X136303721Y-101034348D01*
X136339363Y-101015296D01*
X136378034Y-101003565D01*
X136424388Y-100999000D01*
X137075612Y-100999000D01*
X137121966Y-101003565D01*
X137121966Y-101003565D01*
G37*
G36*
X135246966Y-101003565D02*
X135285637Y-101015296D01*
X135321279Y-101034348D01*
X135352517Y-101059983D01*
X135378152Y-101091221D01*
X135397204Y-101126863D01*
X135408935Y-101165534D01*
X135413500Y-101211888D01*
X135413500Y-102288112D01*
X135408935Y-102334466D01*
X135397204Y-102373137D01*
X135378152Y-102408779D01*
X135352517Y-102440017D01*
X135321279Y-102465652D01*
X135285637Y-102484704D01*
X135246966Y-102496435D01*
X135200612Y-102501000D01*
X134549388Y-102501000D01*
X134503034Y-102496435D01*
X134464363Y-102484704D01*
X134428721Y-102465652D01*
X134397483Y-102440017D01*
X134371848Y-102408779D01*
X134352796Y-102373137D01*
X134341065Y-102334466D01*
X134336500Y-102288112D01*
X134336500Y-101211888D01*
X134341065Y-101165534D01*
X134352796Y-101126863D01*
X134371848Y-101091221D01*
X134397483Y-101059983D01*
X134428721Y-101034348D01*
X134464363Y-101015296D01*
X134503034Y-101003565D01*
X134549388Y-100999000D01*
X135200612Y-100999000D01*
X135246966Y-101003565D01*
X135246966Y-101003565D01*
G37*
G36*
X141584466Y-101216065D02*
X141623137Y-101227796D01*
X141658779Y-101246848D01*
X141690017Y-101272483D01*
X141715652Y-101303721D01*
X141734704Y-101339363D01*
X141746435Y-101378034D01*
X141751000Y-101424388D01*
X141751000Y-102075612D01*
X141746435Y-102121966D01*
X141734704Y-102160637D01*
X141715652Y-102196279D01*
X141690017Y-102227517D01*
X141658779Y-102253152D01*
X141623137Y-102272204D01*
X141584466Y-102283935D01*
X141538112Y-102288500D01*
X140461888Y-102288500D01*
X140415534Y-102283935D01*
X140376863Y-102272204D01*
X140341221Y-102253152D01*
X140309983Y-102227517D01*
X140284348Y-102196279D01*
X140265296Y-102160637D01*
X140253565Y-102121966D01*
X140249000Y-102075612D01*
X140249000Y-101424388D01*
X140253565Y-101378034D01*
X140265296Y-101339363D01*
X140284348Y-101303721D01*
X140309983Y-101272483D01*
X140341221Y-101246848D01*
X140376863Y-101227796D01*
X140415534Y-101216065D01*
X140461888Y-101211500D01*
X141538112Y-101211500D01*
X141584466Y-101216065D01*
X141584466Y-101216065D01*
G37*
G36*
X153434466Y-100366065D02*
X153473137Y-100377796D01*
X153508779Y-100396848D01*
X153540017Y-100422483D01*
X153565652Y-100453721D01*
X153584704Y-100489363D01*
X153596435Y-100528034D01*
X153601000Y-100574388D01*
X153601000Y-101225612D01*
X153596435Y-101271966D01*
X153584704Y-101310637D01*
X153565652Y-101346279D01*
X153540017Y-101377517D01*
X153508779Y-101403152D01*
X153473137Y-101422204D01*
X153434466Y-101433935D01*
X153388112Y-101438500D01*
X152311888Y-101438500D01*
X152265534Y-101433935D01*
X152226863Y-101422204D01*
X152191221Y-101403152D01*
X152159983Y-101377517D01*
X152134348Y-101346279D01*
X152115296Y-101310637D01*
X152103565Y-101271966D01*
X152099000Y-101225612D01*
X152099000Y-100574388D01*
X152103565Y-100528034D01*
X152115296Y-100489363D01*
X152134348Y-100453721D01*
X152159983Y-100422483D01*
X152191221Y-100396848D01*
X152226863Y-100377796D01*
X152265534Y-100366065D01*
X152311888Y-100361500D01*
X153388112Y-100361500D01*
X153434466Y-100366065D01*
X153434466Y-100366065D01*
G37*
G36*
X153434466Y-98491065D02*
X153473137Y-98502796D01*
X153508779Y-98521848D01*
X153540017Y-98547483D01*
X153565652Y-98578721D01*
X153584704Y-98614363D01*
X153596435Y-98653034D01*
X153601000Y-98699388D01*
X153601000Y-99350612D01*
X153596435Y-99396966D01*
X153584704Y-99435637D01*
X153565652Y-99471279D01*
X153540017Y-99502517D01*
X153508779Y-99528152D01*
X153473137Y-99547204D01*
X153434466Y-99558935D01*
X153388112Y-99563500D01*
X152311888Y-99563500D01*
X152265534Y-99558935D01*
X152226863Y-99547204D01*
X152191221Y-99528152D01*
X152159983Y-99502517D01*
X152134348Y-99471279D01*
X152115296Y-99435637D01*
X152103565Y-99396966D01*
X152099000Y-99350612D01*
X152099000Y-98699388D01*
X152103565Y-98653034D01*
X152115296Y-98614363D01*
X152134348Y-98578721D01*
X152159983Y-98547483D01*
X152191221Y-98521848D01*
X152226863Y-98502796D01*
X152265534Y-98491065D01*
X152311888Y-98486500D01*
X153388112Y-98486500D01*
X153434466Y-98491065D01*
X153434466Y-98491065D01*
G37*
G36*
X141584466Y-98153565D02*
X141623137Y-98165296D01*
X141658779Y-98184348D01*
X141690017Y-98209983D01*
X141715652Y-98241221D01*
X141734704Y-98276863D01*
X141746435Y-98315534D01*
X141751000Y-98361888D01*
X141751000Y-99013112D01*
X141746435Y-99059466D01*
X141734704Y-99098137D01*
X141715652Y-99133779D01*
X141690017Y-99165017D01*
X141658779Y-99190652D01*
X141623137Y-99209704D01*
X141584466Y-99221435D01*
X141538112Y-99226000D01*
X140461888Y-99226000D01*
X140415534Y-99221435D01*
X140376863Y-99209704D01*
X140341221Y-99190652D01*
X140309983Y-99165017D01*
X140284348Y-99133779D01*
X140265296Y-99098137D01*
X140253565Y-99059466D01*
X140249000Y-99013112D01*
X140249000Y-98361888D01*
X140253565Y-98315534D01*
X140265296Y-98276863D01*
X140284348Y-98241221D01*
X140309983Y-98209983D01*
X140341221Y-98184348D01*
X140376863Y-98165296D01*
X140415534Y-98153565D01*
X140461888Y-98149000D01*
X141538112Y-98149000D01*
X141584466Y-98153565D01*
X141584466Y-98153565D01*
G37*
G36*
X137834466Y-98133565D02*
X137873137Y-98145296D01*
X137908779Y-98164348D01*
X137940017Y-98189983D01*
X137965652Y-98221221D01*
X137984704Y-98256863D01*
X137996435Y-98295534D01*
X138001000Y-98341888D01*
X138001000Y-98993112D01*
X137996435Y-99039466D01*
X137984704Y-99078137D01*
X137965652Y-99113779D01*
X137940017Y-99145017D01*
X137908779Y-99170652D01*
X137873137Y-99189704D01*
X137834466Y-99201435D01*
X137788112Y-99206000D01*
X136711888Y-99206000D01*
X136665534Y-99201435D01*
X136626863Y-99189704D01*
X136591221Y-99170652D01*
X136559983Y-99145017D01*
X136534348Y-99113779D01*
X136515296Y-99078137D01*
X136503565Y-99039466D01*
X136499000Y-98993112D01*
X136499000Y-98341888D01*
X136503565Y-98295534D01*
X136515296Y-98256863D01*
X136534348Y-98221221D01*
X136559983Y-98189983D01*
X136591221Y-98164348D01*
X136626863Y-98145296D01*
X136665534Y-98133565D01*
X136711888Y-98129000D01*
X137788112Y-98129000D01*
X137834466Y-98133565D01*
X137834466Y-98133565D01*
G37*
G36*
X156827119Y-95760228D02*
X156827122Y-95760229D01*
X156973399Y-95804601D01*
X156973401Y-95804602D01*
X157108210Y-95876659D01*
X157226369Y-95973631D01*
X157323341Y-96091790D01*
X157323342Y-96091792D01*
X157395399Y-96226601D01*
X157414433Y-96289348D01*
X157439772Y-96372881D01*
X157454754Y-96525000D01*
X157439772Y-96677119D01*
X157439771Y-96677122D01*
X157396494Y-96819790D01*
X157395398Y-96823401D01*
X157323341Y-96958210D01*
X157226368Y-97076370D01*
X157189895Y-97106304D01*
X157172568Y-97123631D01*
X157158954Y-97144006D01*
X157149577Y-97166645D01*
X157144797Y-97190678D01*
X157144797Y-97215183D01*
X157149578Y-97239216D01*
X157158956Y-97261855D01*
X157172570Y-97282229D01*
X157189897Y-97299556D01*
X157210272Y-97313170D01*
X157232911Y-97322547D01*
X157256944Y-97327327D01*
X157281449Y-97327327D01*
X157305476Y-97322547D01*
X157331332Y-97314704D01*
X157361589Y-97305525D01*
X157427842Y-97299000D01*
X157472158Y-97299000D01*
X157538413Y-97305525D01*
X157607341Y-97326435D01*
X157623425Y-97331314D01*
X157701774Y-97373193D01*
X157770448Y-97429552D01*
X157826807Y-97498226D01*
X157868686Y-97576575D01*
X157868687Y-97576579D01*
X157894475Y-97661587D01*
X157903182Y-97750000D01*
X157894475Y-97838413D01*
X157871710Y-97913456D01*
X157868686Y-97923425D01*
X157826807Y-98001774D01*
X157770448Y-98070448D01*
X157701774Y-98126807D01*
X157623425Y-98168686D01*
X157613456Y-98171710D01*
X157538413Y-98194475D01*
X157472158Y-98201000D01*
X157427842Y-98201000D01*
X157361587Y-98194475D01*
X157299368Y-98175600D01*
X157276575Y-98168686D01*
X157276572Y-98168685D01*
X157267535Y-98165943D01*
X157262302Y-98163775D01*
X157238269Y-98158992D01*
X157213765Y-98158988D01*
X157189731Y-98163765D01*
X157167091Y-98173140D01*
X157146714Y-98186751D01*
X157129385Y-98204075D01*
X157115768Y-98224448D01*
X157106387Y-98247086D01*
X157101604Y-98271119D01*
X157101000Y-98283388D01*
X157101000Y-99201000D01*
X154999000Y-99201000D01*
X154999000Y-98099000D01*
X156916612Y-98099000D01*
X156940998Y-98096598D01*
X156964447Y-98089485D01*
X156986058Y-98077934D01*
X157005000Y-98062388D01*
X157020546Y-98043446D01*
X157032097Y-98021835D01*
X157039210Y-97998386D01*
X157041612Y-97974000D01*
X157039210Y-97949614D01*
X157034844Y-97935219D01*
X157034888Y-97935206D01*
X157005525Y-97838413D01*
X156996818Y-97750000D01*
X157005525Y-97661587D01*
X157031313Y-97576579D01*
X157031314Y-97576575D01*
X157059809Y-97523265D01*
X157073193Y-97498225D01*
X157098504Y-97467385D01*
X157122150Y-97438571D01*
X157135761Y-97418202D01*
X157145138Y-97395563D01*
X157149919Y-97371529D01*
X157149919Y-97347025D01*
X157145139Y-97322992D01*
X157135762Y-97300352D01*
X157122148Y-97279978D01*
X157104821Y-97262650D01*
X157084447Y-97249036D01*
X157061808Y-97239659D01*
X157037774Y-97234878D01*
X157013270Y-97234878D01*
X156989237Y-97239658D01*
X156980788Y-97243157D01*
X156973401Y-97245398D01*
X156973399Y-97245399D01*
X156851985Y-97282229D01*
X156827119Y-97289772D01*
X156713118Y-97301000D01*
X156086882Y-97301000D01*
X155972881Y-97289772D01*
X155940594Y-97279978D01*
X155826601Y-97245399D01*
X155826599Y-97245398D01*
X155691790Y-97173341D01*
X155573631Y-97076369D01*
X155476659Y-96958210D01*
X155404602Y-96823401D01*
X155403507Y-96819790D01*
X155360229Y-96677122D01*
X155360228Y-96677119D01*
X155345246Y-96525000D01*
X155360228Y-96372881D01*
X155385567Y-96289348D01*
X155404601Y-96226601D01*
X155476658Y-96091792D01*
X155476659Y-96091790D01*
X155573631Y-95973631D01*
X155691790Y-95876659D01*
X155826599Y-95804602D01*
X155826601Y-95804601D01*
X155972878Y-95760229D01*
X155972881Y-95760228D01*
X156086882Y-95749000D01*
X156713118Y-95749000D01*
X156827119Y-95760228D01*
X156827119Y-95760228D01*
G37*
G36*
X149001000Y-98001000D02*
X145099000Y-98001000D01*
X145099000Y-95899000D01*
X149001000Y-95899000D01*
X149001000Y-98001000D01*
X149001000Y-98001000D01*
G37*
G36*
X141584466Y-96278565D02*
X141623137Y-96290296D01*
X141658779Y-96309348D01*
X141690017Y-96334983D01*
X141715652Y-96366221D01*
X141734704Y-96401863D01*
X141746435Y-96440534D01*
X141751000Y-96486888D01*
X141751000Y-97138112D01*
X141746435Y-97184466D01*
X141734704Y-97223137D01*
X141715652Y-97258779D01*
X141690017Y-97290017D01*
X141658779Y-97315652D01*
X141623137Y-97334704D01*
X141584466Y-97346435D01*
X141538112Y-97351000D01*
X140461888Y-97351000D01*
X140415534Y-97346435D01*
X140376863Y-97334704D01*
X140341221Y-97315652D01*
X140309983Y-97290017D01*
X140284348Y-97258779D01*
X140265296Y-97223137D01*
X140253565Y-97184466D01*
X140249000Y-97138112D01*
X140249000Y-96486888D01*
X140253565Y-96440534D01*
X140265296Y-96401863D01*
X140284348Y-96366221D01*
X140309983Y-96334983D01*
X140341221Y-96309348D01*
X140376863Y-96290296D01*
X140415534Y-96278565D01*
X140461888Y-96274000D01*
X141538112Y-96274000D01*
X141584466Y-96278565D01*
X141584466Y-96278565D01*
G37*
G36*
X137834466Y-96258565D02*
X137873137Y-96270296D01*
X137908779Y-96289348D01*
X137940017Y-96314983D01*
X137965652Y-96346221D01*
X137984704Y-96381863D01*
X137996435Y-96420534D01*
X138001000Y-96466888D01*
X138001000Y-97118112D01*
X137996435Y-97164466D01*
X137984704Y-97203137D01*
X137965652Y-97238779D01*
X137940017Y-97270017D01*
X137908779Y-97295652D01*
X137873137Y-97314704D01*
X137834466Y-97326435D01*
X137788112Y-97331000D01*
X136711888Y-97331000D01*
X136665534Y-97326435D01*
X136626863Y-97314704D01*
X136591221Y-97295652D01*
X136559983Y-97270017D01*
X136534348Y-97238779D01*
X136515296Y-97203137D01*
X136503565Y-97164466D01*
X136499000Y-97118112D01*
X136499000Y-96466888D01*
X136503565Y-96420534D01*
X136515296Y-96381863D01*
X136534348Y-96346221D01*
X136559983Y-96314983D01*
X136591221Y-96289348D01*
X136626863Y-96270296D01*
X136665534Y-96258565D01*
X136711888Y-96254000D01*
X137788112Y-96254000D01*
X137834466Y-96258565D01*
X137834466Y-96258565D01*
G37*
G36*
X160647714Y-95758058D02*
X160654871Y-95760229D01*
X160765719Y-95793854D01*
X160765721Y-95793855D01*
X160874471Y-95851983D01*
X160969790Y-95930210D01*
X161048017Y-96025529D01*
X161106145Y-96134279D01*
X161141942Y-96252286D01*
X161154028Y-96375000D01*
X161141942Y-96497714D01*
X161106145Y-96615721D01*
X161048017Y-96724471D01*
X160969790Y-96819790D01*
X160874471Y-96898017D01*
X160874469Y-96898018D01*
X160765719Y-96956146D01*
X160669683Y-96985278D01*
X160647714Y-96991942D01*
X160555747Y-97001000D01*
X159844253Y-97001000D01*
X159752286Y-96991942D01*
X159730317Y-96985278D01*
X159634281Y-96956146D01*
X159525531Y-96898018D01*
X159525529Y-96898017D01*
X159430210Y-96819790D01*
X159351983Y-96724471D01*
X159293855Y-96615721D01*
X159258058Y-96497714D01*
X159245972Y-96375000D01*
X159258058Y-96252286D01*
X159293855Y-96134279D01*
X159351983Y-96025529D01*
X159430210Y-95930210D01*
X159525529Y-95851983D01*
X159634279Y-95793855D01*
X159634281Y-95793854D01*
X159745129Y-95760229D01*
X159752286Y-95758058D01*
X159844253Y-95749000D01*
X160555747Y-95749000D01*
X160647714Y-95758058D01*
X160647714Y-95758058D01*
G37*
G36*
X134138252Y-88227818D02*
X134138254Y-88227819D01*
X134138255Y-88227819D01*
X134511513Y-88382427D01*
X134558985Y-88414147D01*
X134847439Y-88606886D01*
X135133114Y-88892561D01*
X135133116Y-88892564D01*
X135357573Y-89228487D01*
X135512181Y-89601745D01*
X135512182Y-89601748D01*
X135582949Y-89957519D01*
X135591000Y-89997994D01*
X135591000Y-90402006D01*
X135512181Y-90798255D01*
X135357573Y-91171513D01*
X135259495Y-91318297D01*
X135133114Y-91507439D01*
X134847439Y-91793114D01*
X134847436Y-91793116D01*
X134511513Y-92017573D01*
X134138255Y-92172181D01*
X134138254Y-92172181D01*
X134138252Y-92172182D01*
X133742007Y-92251000D01*
X133337993Y-92251000D01*
X132941748Y-92172182D01*
X132941746Y-92172181D01*
X132941745Y-92172181D01*
X132568487Y-92017573D01*
X132232564Y-91793116D01*
X132232561Y-91793114D01*
X131946886Y-91507439D01*
X131820505Y-91318297D01*
X131722427Y-91171513D01*
X131567819Y-90798255D01*
X131489000Y-90402006D01*
X131489000Y-89997994D01*
X131497051Y-89957519D01*
X131567818Y-89601748D01*
X131567819Y-89601745D01*
X131722427Y-89228487D01*
X131946884Y-88892564D01*
X131946886Y-88892561D01*
X132232561Y-88606886D01*
X132521015Y-88414147D01*
X132568487Y-88382427D01*
X132941745Y-88227819D01*
X132941746Y-88227819D01*
X132941748Y-88227818D01*
X133337993Y-88149000D01*
X133742007Y-88149000D01*
X134138252Y-88227818D01*
X134138252Y-88227818D01*
G37*
G36*
X159138252Y-88227818D02*
X159138254Y-88227819D01*
X159138255Y-88227819D01*
X159511513Y-88382427D01*
X159558985Y-88414147D01*
X159847439Y-88606886D01*
X160133114Y-88892561D01*
X160133116Y-88892564D01*
X160357573Y-89228487D01*
X160512181Y-89601745D01*
X160512182Y-89601748D01*
X160582949Y-89957519D01*
X160591000Y-89997994D01*
X160591000Y-90402006D01*
X160512181Y-90798255D01*
X160357573Y-91171513D01*
X160259495Y-91318297D01*
X160133114Y-91507439D01*
X159847439Y-91793114D01*
X159847436Y-91793116D01*
X159511513Y-92017573D01*
X159138255Y-92172181D01*
X159138254Y-92172181D01*
X159138252Y-92172182D01*
X158742007Y-92251000D01*
X158337993Y-92251000D01*
X157941748Y-92172182D01*
X157941746Y-92172181D01*
X157941745Y-92172181D01*
X157568487Y-92017573D01*
X157232564Y-91793116D01*
X157232561Y-91793114D01*
X156946886Y-91507439D01*
X156820505Y-91318297D01*
X156722427Y-91171513D01*
X156567819Y-90798255D01*
X156489000Y-90402006D01*
X156489000Y-89997994D01*
X156497051Y-89957519D01*
X156567818Y-89601748D01*
X156567819Y-89601745D01*
X156722427Y-89228487D01*
X156946884Y-88892564D01*
X156946886Y-88892561D01*
X157232561Y-88606886D01*
X157521015Y-88414147D01*
X157568487Y-88382427D01*
X157941745Y-88227819D01*
X157941746Y-88227819D01*
X157941748Y-88227818D01*
X158337993Y-88149000D01*
X158742007Y-88149000D01*
X159138252Y-88227818D01*
X159138252Y-88227818D01*
G37*
G36*
X149058228Y-89681703D02*
X149213100Y-89745853D01*
X149352481Y-89838985D01*
X149471015Y-89957519D01*
X149564147Y-90096900D01*
X149628297Y-90251772D01*
X149661000Y-90416184D01*
X149661000Y-90583816D01*
X149628297Y-90748228D01*
X149564147Y-90903100D01*
X149471015Y-91042481D01*
X149352481Y-91161015D01*
X149213100Y-91254147D01*
X149058228Y-91318297D01*
X148893816Y-91351000D01*
X148726184Y-91351000D01*
X148561772Y-91318297D01*
X148406900Y-91254147D01*
X148267519Y-91161015D01*
X148148985Y-91042481D01*
X148055853Y-90903100D01*
X147991703Y-90748228D01*
X147959000Y-90583816D01*
X147959000Y-90416184D01*
X147991703Y-90251772D01*
X148055853Y-90096900D01*
X148148985Y-89957519D01*
X148267519Y-89838985D01*
X148406900Y-89745853D01*
X148561772Y-89681703D01*
X148726184Y-89649000D01*
X148893816Y-89649000D01*
X149058228Y-89681703D01*
X149058228Y-89681703D01*
G37*
G36*
X151828228Y-89681703D02*
X151983100Y-89745853D01*
X152122481Y-89838985D01*
X152241015Y-89957519D01*
X152334147Y-90096900D01*
X152398297Y-90251772D01*
X152431000Y-90416184D01*
X152431000Y-90583816D01*
X152398297Y-90748228D01*
X152334147Y-90903100D01*
X152241015Y-91042481D01*
X152122481Y-91161015D01*
X151983100Y-91254147D01*
X151828228Y-91318297D01*
X151663816Y-91351000D01*
X151496184Y-91351000D01*
X151331772Y-91318297D01*
X151176900Y-91254147D01*
X151037519Y-91161015D01*
X150918985Y-91042481D01*
X150825853Y-90903100D01*
X150761703Y-90748228D01*
X150729000Y-90583816D01*
X150729000Y-90416184D01*
X150761703Y-90251772D01*
X150825853Y-90096900D01*
X150918985Y-89957519D01*
X151037519Y-89838985D01*
X151176900Y-89745853D01*
X151331772Y-89681703D01*
X151496184Y-89649000D01*
X151663816Y-89649000D01*
X151828228Y-89681703D01*
X151828228Y-89681703D01*
G37*
G36*
X141351000Y-91351000D02*
X139649000Y-91351000D01*
X139649000Y-89649000D01*
X141351000Y-89649000D01*
X141351000Y-91351000D01*
X141351000Y-91351000D01*
G37*
G36*
X143518228Y-89681703D02*
X143673100Y-89745853D01*
X143812481Y-89838985D01*
X143931015Y-89957519D01*
X144024147Y-90096900D01*
X144088297Y-90251772D01*
X144121000Y-90416184D01*
X144121000Y-90583816D01*
X144088297Y-90748228D01*
X144024147Y-90903100D01*
X143931015Y-91042481D01*
X143812481Y-91161015D01*
X143673100Y-91254147D01*
X143518228Y-91318297D01*
X143353816Y-91351000D01*
X143186184Y-91351000D01*
X143021772Y-91318297D01*
X142866900Y-91254147D01*
X142727519Y-91161015D01*
X142608985Y-91042481D01*
X142515853Y-90903100D01*
X142451703Y-90748228D01*
X142419000Y-90583816D01*
X142419000Y-90416184D01*
X142451703Y-90251772D01*
X142515853Y-90096900D01*
X142608985Y-89957519D01*
X142727519Y-89838985D01*
X142866900Y-89745853D01*
X143021772Y-89681703D01*
X143186184Y-89649000D01*
X143353816Y-89649000D01*
X143518228Y-89681703D01*
X143518228Y-89681703D01*
G37*
G36*
X146288228Y-89681703D02*
X146443100Y-89745853D01*
X146582481Y-89838985D01*
X146701015Y-89957519D01*
X146794147Y-90096900D01*
X146858297Y-90251772D01*
X146891000Y-90416184D01*
X146891000Y-90583816D01*
X146858297Y-90748228D01*
X146794147Y-90903100D01*
X146701015Y-91042481D01*
X146582481Y-91161015D01*
X146443100Y-91254147D01*
X146288228Y-91318297D01*
X146123816Y-91351000D01*
X145956184Y-91351000D01*
X145791772Y-91318297D01*
X145636900Y-91254147D01*
X145497519Y-91161015D01*
X145378985Y-91042481D01*
X145285853Y-90903100D01*
X145221703Y-90748228D01*
X145189000Y-90583816D01*
X145189000Y-90416184D01*
X145221703Y-90251772D01*
X145285853Y-90096900D01*
X145378985Y-89957519D01*
X145497519Y-89838985D01*
X145636900Y-89745853D01*
X145791772Y-89681703D01*
X145956184Y-89649000D01*
X146123816Y-89649000D01*
X146288228Y-89681703D01*
X146288228Y-89681703D01*
G37*
G36*
X142133228Y-86841703D02*
X142288100Y-86905853D01*
X142427481Y-86998985D01*
X142546015Y-87117519D01*
X142639147Y-87256900D01*
X142703297Y-87411772D01*
X142736000Y-87576184D01*
X142736000Y-87743816D01*
X142703297Y-87908228D01*
X142639147Y-88063100D01*
X142546015Y-88202481D01*
X142427481Y-88321015D01*
X142288100Y-88414147D01*
X142133228Y-88478297D01*
X141968816Y-88511000D01*
X141801184Y-88511000D01*
X141636772Y-88478297D01*
X141481900Y-88414147D01*
X141342519Y-88321015D01*
X141223985Y-88202481D01*
X141130853Y-88063100D01*
X141066703Y-87908228D01*
X141034000Y-87743816D01*
X141034000Y-87576184D01*
X141066703Y-87411772D01*
X141130853Y-87256900D01*
X141223985Y-87117519D01*
X141342519Y-86998985D01*
X141481900Y-86905853D01*
X141636772Y-86841703D01*
X141801184Y-86809000D01*
X141968816Y-86809000D01*
X142133228Y-86841703D01*
X142133228Y-86841703D01*
G37*
G36*
X150443228Y-86841703D02*
X150598100Y-86905853D01*
X150737481Y-86998985D01*
X150856015Y-87117519D01*
X150949147Y-87256900D01*
X151013297Y-87411772D01*
X151046000Y-87576184D01*
X151046000Y-87743816D01*
X151013297Y-87908228D01*
X150949147Y-88063100D01*
X150856015Y-88202481D01*
X150737481Y-88321015D01*
X150598100Y-88414147D01*
X150443228Y-88478297D01*
X150278816Y-88511000D01*
X150111184Y-88511000D01*
X149946772Y-88478297D01*
X149791900Y-88414147D01*
X149652519Y-88321015D01*
X149533985Y-88202481D01*
X149440853Y-88063100D01*
X149376703Y-87908228D01*
X149344000Y-87743816D01*
X149344000Y-87576184D01*
X149376703Y-87411772D01*
X149440853Y-87256900D01*
X149533985Y-87117519D01*
X149652519Y-86998985D01*
X149791900Y-86905853D01*
X149946772Y-86841703D01*
X150111184Y-86809000D01*
X150278816Y-86809000D01*
X150443228Y-86841703D01*
X150443228Y-86841703D01*
G37*
G36*
X147673228Y-86841703D02*
X147828100Y-86905853D01*
X147967481Y-86998985D01*
X148086015Y-87117519D01*
X148179147Y-87256900D01*
X148243297Y-87411772D01*
X148276000Y-87576184D01*
X148276000Y-87743816D01*
X148243297Y-87908228D01*
X148179147Y-88063100D01*
X148086015Y-88202481D01*
X147967481Y-88321015D01*
X147828100Y-88414147D01*
X147673228Y-88478297D01*
X147508816Y-88511000D01*
X147341184Y-88511000D01*
X147176772Y-88478297D01*
X147021900Y-88414147D01*
X146882519Y-88321015D01*
X146763985Y-88202481D01*
X146670853Y-88063100D01*
X146606703Y-87908228D01*
X146574000Y-87743816D01*
X146574000Y-87576184D01*
X146606703Y-87411772D01*
X146670853Y-87256900D01*
X146763985Y-87117519D01*
X146882519Y-86998985D01*
X147021900Y-86905853D01*
X147176772Y-86841703D01*
X147341184Y-86809000D01*
X147508816Y-86809000D01*
X147673228Y-86841703D01*
X147673228Y-86841703D01*
G37*
G36*
X144903228Y-86841703D02*
X145058100Y-86905853D01*
X145197481Y-86998985D01*
X145316015Y-87117519D01*
X145409147Y-87256900D01*
X145473297Y-87411772D01*
X145506000Y-87576184D01*
X145506000Y-87743816D01*
X145473297Y-87908228D01*
X145409147Y-88063100D01*
X145316015Y-88202481D01*
X145197481Y-88321015D01*
X145058100Y-88414147D01*
X144903228Y-88478297D01*
X144738816Y-88511000D01*
X144571184Y-88511000D01*
X144406772Y-88478297D01*
X144251900Y-88414147D01*
X144112519Y-88321015D01*
X143993985Y-88202481D01*
X143900853Y-88063100D01*
X143836703Y-87908228D01*
X143804000Y-87743816D01*
X143804000Y-87576184D01*
X143836703Y-87411772D01*
X143900853Y-87256900D01*
X143993985Y-87117519D01*
X144112519Y-86998985D01*
X144251900Y-86905853D01*
X144406772Y-86841703D01*
X144571184Y-86809000D01*
X144738816Y-86809000D01*
X144903228Y-86841703D01*
X144903228Y-86841703D01*
G37*
M02*
